<svg width="1440" height="2094" viewBox="0 0 1440 2094" fill="none" xmlns="http://www.w3.org/2000/svg">
<line x1="76" y1="923" x2="76" stroke="white" stroke-width="70" stroke-dasharray="91 91"/>
<line x1="1368" y1="923" x2="1368" y2="0.000610352" stroke="white" stroke-width="70" stroke-dasharray="91 91"/>
<rect x="173" y="114" width="497" height="671" fill="white"/>
<rect x="781.5" y="122.5" width="480" height="654" stroke="white" stroke-width="17"/>
<rect x="173" y="785" width="21" height="99" fill="white"/>
<rect x="649" y="785" width="21" height="99" fill="white"/>
<rect x="407" y="785" width="29" height="63" fill="white"/>
<rect x="773" y="785" width="21" height="99" fill="white"/>
<rect x="1249" y="785" width="21" height="99" fill="white"/>
<rect x="1007" y="785" width="29" height="63" fill="white"/>
<path d="M172.075 1441.5C172.14 1441.76 185.4 1487 185.4 1487H166.55L165.25 1480.5H156.8L155.5 1487H136.65L149.975 1441.5H172.075ZM158.75 1470.1H163.3L161.025 1458.4L158.75 1470.1ZM204.545 1451.57C215.595 1451.57 223.72 1459.7 223.72 1469.77C223.72 1475.36 223.72 1481.93 223.72 1487H208.77L207.47 1483.1C207.47 1483.1 204.87 1487.98 199.02 1487.98C191.87 1487.98 187.32 1483.42 187.32 1477.25C187.32 1471.07 191.87 1466.52 202.92 1466.52H208.12C208.12 1466.52 207.47 1462.95 202.27 1462.95C199.02 1462.95 196.42 1465.55 196.42 1465.55L190.895 1456.77C190.895 1456.77 195.77 1451.57 204.545 1451.57ZM204.87 1477.57C206.495 1477.57 208.12 1475.95 208.12 1472.05C204.545 1472.05 202.92 1473.67 202.92 1475.62C202.92 1476.6 203.895 1477.57 204.87 1477.57ZM351.229 1453.85V1458.07C351.229 1458.07 354.479 1457.75 358.379 1457.75C369.429 1457.75 375.929 1464.25 375.929 1472.7C375.929 1481.15 369.429 1487.65 355.129 1487.65C344.079 1487.65 334.329 1487 334.329 1487V1441.5H370.079V1453.85H351.229ZM355.129 1469.45H351.229V1475.95H355.129C357.404 1475.95 359.029 1474.32 359.029 1472.7C359.029 1471.07 357.404 1469.45 355.129 1469.45ZM401.911 1450.6C395.411 1450.6 392.161 1453.85 392.161 1458.4C392.161 1458.4 396.061 1453.85 402.561 1453.85C411.011 1453.85 417.511 1460.35 417.511 1469.77C417.511 1479.85 409.386 1487.98 398.336 1487.98C387.286 1487.98 379.161 1479.85 379.161 1465.55V1462.95C379.161 1447.67 387.286 1439.55 401.911 1439.55C403.536 1439.55 404.511 1438.57 404.511 1436.95H416.861C416.861 1447.35 413.611 1450.6 401.911 1450.6ZM401.911 1469.77C401.911 1466.52 400.351 1464.9 398.336 1464.9C396.321 1464.9 394.761 1466.52 394.761 1469.77C394.761 1473.02 396.321 1474.65 398.336 1474.65C400.351 1474.65 401.911 1473.02 401.911 1469.77ZM584.713 1462.95V1463.27C584.713 1463.27 595.113 1464.9 595.113 1474.65C595.113 1481.8 589.263 1487.65 573.013 1487.65C562.613 1487.65 553.513 1487 553.513 1487V1441.5C553.513 1441.5 562.613 1440.85 572.688 1440.85C587.313 1440.85 593.163 1446.7 593.163 1453.52C593.163 1461.32 584.713 1462.95 584.713 1462.95ZM570.413 1452.55V1458.4H572.688C574.963 1458.4 576.263 1457.1 576.263 1455.47C576.263 1453.85 574.963 1452.55 572.688 1452.55H570.413ZM573.013 1475.95C575.613 1475.95 576.913 1474.65 576.913 1472.7C576.913 1470.75 575.613 1469.45 573.013 1469.45H570.413V1475.95C570.413 1475.95 571.713 1475.95 573.013 1475.95ZM627.319 1469.12V1469.45C627.319 1469.45 634.144 1471.07 634.144 1477.25C634.144 1482.45 628.944 1487.65 616.269 1487.65C606.519 1487.65 600.344 1487 600.344 1487V1452.55C600.344 1452.55 606.519 1451.9 615.944 1451.9C626.994 1451.9 632.194 1457.1 632.194 1462.3C632.194 1467.5 627.319 1469.12 627.319 1469.12ZM615.294 1477.9H616.269C617.569 1477.9 618.544 1476.92 618.544 1475.95C618.544 1474.97 617.569 1474 616.269 1474H615.294V1477.9ZM615.294 1461.65V1465.55C616.919 1465.55 617.894 1464.57 617.894 1463.6C617.894 1462.62 616.919 1461.65 615.294 1461.65ZM773.348 1456.45V1487H756.448V1441.5H790.898V1456.45H773.348ZM792.82 1452.55H821.42V1466.2H808.42V1487H792.82V1452.55ZM998.982 1473.35H1004.18V1495.45H987.282V1487H969.082V1495.45H952.182V1473.35H956.082C956.082 1473.35 960.632 1467.5 960.632 1441.5H998.982V1473.35ZM972.982 1473.35H982.082V1455.15H975.582C975.582 1467.5 972.982 1473.35 972.982 1473.35ZM1044.46 1474.65H1049.01V1494.15H1033.41V1487H1023.01V1494.15H1007.41V1474.65H1010.66C1010.66 1474.65 1013.91 1470.75 1013.91 1452.55H1044.46V1474.65ZM1024.96 1474.65H1029.51V1464.9H1026.91C1026.91 1470.75 1024.96 1474.65 1024.96 1474.65ZM1213.62 1470.75V1474H1233.12V1487H1196.72V1441.5H1231.82V1454.5H1213.62V1457.75H1230.52V1470.75H1213.62ZM1254.61 1451.57C1264.69 1451.57 1272.81 1459.7 1272.81 1469.77C1272.81 1470.03 1272.81 1472.76 1272.81 1473.02H1252.01C1252.01 1473.02 1252.66 1476.6 1257.86 1476.6C1261.11 1476.6 1263.71 1474 1263.71 1474L1269.24 1482.77C1269.24 1482.77 1264.36 1487.98 1255.59 1487.98C1244.54 1487.98 1236.41 1479.85 1236.41 1469.77C1236.41 1459.7 1244.54 1451.57 1254.61 1451.57ZM1251.69 1466.85H1257.54C1257.54 1464.25 1256.24 1462.95 1254.61 1462.95C1252.99 1462.95 1251.69 1464.25 1251.69 1466.85ZM156.8 1560.75V1564H176.3V1577H139.9V1531.5H175V1544.5H156.8V1547.75H173.7V1560.75H156.8ZM170.45 1521.75C170.45 1525 167.85 1527.6 164.6 1527.6C161.35 1527.6 158.75 1525 158.75 1521.75C158.75 1518.5 161.35 1515.9 164.6 1515.9C167.85 1515.9 170.45 1518.5 170.45 1521.75ZM156.15 1521.75C156.15 1525 153.55 1527.6 150.3 1527.6C147.05 1527.6 144.45 1525 144.45 1521.75C144.45 1518.5 147.05 1515.9 150.3 1515.9C153.55 1515.9 156.15 1518.5 156.15 1521.75ZM197.791 1541.57C207.866 1541.57 215.991 1549.7 215.991 1559.77C215.991 1560.03 215.991 1562.76 215.991 1563.02H195.191C195.191 1563.02 195.841 1566.6 201.041 1566.6C204.291 1566.6 206.891 1564 206.891 1564L212.416 1572.77C212.416 1572.77 207.541 1577.98 198.766 1577.98C187.716 1577.98 179.591 1569.85 179.591 1559.77C179.591 1549.7 187.716 1541.57 197.791 1541.57ZM194.866 1556.85H200.716C200.716 1554.25 199.416 1552.95 197.791 1552.95C196.166 1552.95 194.866 1554.25 194.866 1556.85ZM210.791 1532.8C210.791 1536.05 208.191 1538.65 204.941 1538.65C201.691 1538.65 199.091 1536.05 199.091 1532.8C199.091 1529.55 201.691 1526.95 204.941 1526.95C208.191 1526.95 210.791 1529.55 210.791 1532.8ZM196.491 1532.8C196.491 1536.05 193.891 1538.65 190.641 1538.65C187.391 1538.65 184.791 1536.05 184.791 1532.8C184.791 1529.55 187.391 1526.95 190.641 1526.95C193.891 1526.95 196.491 1529.55 196.491 1532.8ZM406.578 1531.5L394.228 1554.25L407.878 1577H388.378L379.278 1558.8V1577H362.378V1558.8L353.278 1577H333.778L347.428 1554.25L335.078 1531.5H354.578L362.378 1549.7V1531.5H379.278V1549.7L387.078 1531.5H406.578ZM468.335 1542.55L459.235 1559.45L469.635 1577H452.41L445.91 1563.35V1577H430.31V1563.35L423.81 1577H406.585L416.985 1559.45L407.885 1542.55H424.785L430.31 1555.55V1542.55H445.91V1555.55L451.435 1542.55H468.335ZM577.299 1552.95V1553.27C577.299 1553.27 586.399 1554.9 586.399 1564.65C586.399 1571.47 579.899 1577.98 567.874 1577.98C553.574 1577.98 547.724 1570.17 547.724 1570.17L553.899 1560.42C553.899 1560.42 558.449 1564.65 564.949 1564.65C566.899 1564.65 568.199 1563.35 568.199 1562.05C568.199 1560.75 566.899 1559.45 565.014 1559.45H559.099V1548.4H565.924C567.874 1548.4 568.849 1547.42 568.849 1546.12C568.849 1544.82 567.874 1543.85 565.924 1543.85C560.399 1543.85 555.849 1547.42 555.849 1547.42L549.674 1537.67C549.674 1537.67 555.524 1530.52 567.224 1530.52C579.249 1530.52 585.749 1537.02 585.749 1543.52C585.749 1551.32 577.299 1552.95 577.299 1552.95ZM614.009 1559.12V1559.45C614.009 1559.45 620.509 1561.07 620.509 1567.9C620.509 1572.77 615.309 1577.98 605.884 1577.98C594.509 1577.98 588.984 1571.8 588.984 1571.8L593.859 1564C593.859 1564 597.109 1567.25 601.009 1567.25C602.634 1567.25 603.609 1566.27 603.609 1565.3C603.609 1564.32 602.634 1563.35 601.009 1563.35H597.109V1556.2H601.659C603.284 1556.2 604.259 1555.22 604.259 1554.25C604.259 1553.27 603.284 1552.3 601.659 1552.3C597.759 1552.3 595.159 1554.9 595.159 1554.9L590.284 1547.1C590.284 1547.1 595.809 1541.57 605.234 1541.57C614.659 1541.57 619.859 1546.77 619.859 1551.65C619.859 1557.5 614.009 1559.12 614.009 1559.12ZM772.713 1553.6L783.113 1531.5H801.313V1577H784.413V1554.9L774.013 1577H755.813V1531.5H772.713V1553.6ZM824.733 1577H808.483V1542.55H824.083V1557.5L829.933 1542.55H846.183V1577H830.583V1562.05L824.733 1577ZM974.315 1553.6L984.715 1531.5H1002.91V1577H986.015V1554.9L975.615 1577H957.415V1531.5H974.315V1553.6ZM980.165 1517.2C982.115 1517.2 983.415 1515.9 983.415 1513.95H993.165C993.165 1521.75 987.965 1526.95 980.165 1526.95C972.365 1526.95 967.165 1521.75 967.165 1513.95H976.915C976.915 1515.9 978.215 1517.2 980.165 1517.2ZM1026.33 1577H1010.08V1542.55H1025.68V1557.5L1031.53 1542.55H1047.78V1577H1032.18V1562.05L1026.33 1577ZM1028.93 1528.25C1030.56 1528.25 1031.53 1527.27 1031.53 1525.65H1041.28C1041.28 1533.12 1036.41 1538 1028.93 1538C1021.46 1538 1016.58 1533.12 1016.58 1525.65H1026.33C1026.33 1527.27 1027.31 1528.25 1028.93 1528.25ZM1242.25 1531.5L1229.9 1554.25L1243.55 1577H1224.05L1214.95 1558.8V1577H1198.05V1531.5H1214.95V1549.7L1222.75 1531.5H1242.25ZM1284.18 1542.55L1275.08 1559.45L1285.48 1577H1268.25L1261.75 1563.35V1577H1246.15V1542.55H1261.75V1555.55L1267.28 1542.55H1284.18ZM184.1 1621.5V1667H167.2V1635.15H161.35C161.35 1659.52 152.9 1667.98 142.5 1667.98C139.25 1667.98 136 1667 136 1667V1654.65C136 1654.65 136 1654.65 137.3 1654.65C141.85 1654.65 145.75 1650.75 145.75 1621.5H184.1ZM194.487 1632.55H226.337V1667H210.737V1645.55H208.137C208.137 1662.12 202.287 1667.98 193.837 1667.98C191.237 1667.98 187.987 1667 187.987 1667V1655.95H189.287C192.537 1655.95 194.487 1654 194.487 1632.55ZM375.916 1667H362.266L354.466 1641.65V1667H337.566V1621.5H361.616L369.091 1646.2L376.566 1621.5H400.616V1667H383.716V1641.65L375.916 1667ZM439.606 1667H429.206L423.356 1648.15V1667H407.756V1632.55H429.206L434.406 1649.45L439.606 1632.55H461.056V1667H445.456V1648.15L439.606 1667ZM576.19 1621.5V1637.1H586.59V1621.5H603.49V1667H586.59V1651.4H576.19V1667H559.29V1621.5H576.19ZM631.427 1643.6V1632.55H647.027V1667H631.427V1655.95H626.227V1667H610.627V1632.55H626.227V1643.6H631.427ZM789.489 1644.25C789.489 1639.7 786.239 1636.45 782.339 1636.45C778.439 1636.45 775.189 1639.7 775.189 1644.25C775.189 1648.8 778.439 1652.05 782.339 1652.05C786.239 1652.05 789.489 1648.8 789.489 1644.25ZM807.689 1644.25C807.689 1657.57 797.289 1667.98 782.339 1667.98C767.389 1667.98 756.989 1657.57 756.989 1644.25C756.989 1630.92 767.389 1620.52 782.339 1620.52C797.289 1620.52 807.689 1630.92 807.689 1644.25ZM812.262 1649.77C812.262 1639.7 820.387 1631.57 832.087 1631.57C843.787 1631.57 851.912 1639.7 851.912 1649.77C851.912 1659.85 843.787 1667.98 832.087 1667.98C820.387 1667.98 812.262 1659.85 812.262 1649.77ZM836.312 1649.77C836.312 1646.85 834.362 1644.9 832.087 1644.9C829.812 1644.9 827.862 1646.85 827.862 1649.77C827.862 1652.7 829.812 1654.65 832.087 1654.65C834.362 1654.65 836.312 1652.7 836.312 1649.77ZM961.858 1621.5H1006.06V1667H989.158V1635.8H978.758V1667H961.858V1621.5ZM1013.2 1632.55H1049.6V1667H1034V1645.55H1028.8V1667H1013.2V1632.55ZM1219.4 1620.85C1233.7 1620.85 1240.2 1627.35 1240.2 1636.77C1240.2 1646.2 1233.7 1652.7 1222.65 1652.7C1220.05 1652.7 1216.8 1652.37 1216.8 1652.37V1667H1199.9V1621.5C1199.9 1621.5 1209 1620.85 1219.4 1620.85ZM1216.8 1640.35H1219.4C1221.67 1640.35 1223.3 1638.72 1223.3 1636.77C1223.3 1634.82 1221.67 1633.2 1219.4 1633.2H1216.8V1640.35ZM1283.74 1649.77C1283.74 1661.47 1277.24 1667.98 1270.09 1667.98C1263.59 1667.98 1260.99 1663.1 1260.99 1663.1V1683.25H1245.39V1632.55H1259.69C1260.99 1636.45 1260.99 1636.45 1260.99 1636.45C1260.99 1636.45 1263.59 1631.57 1270.09 1631.57C1277.24 1631.57 1283.74 1638.07 1283.74 1649.77ZM1267.49 1649.77C1267.49 1646.52 1265.87 1644.9 1263.92 1644.9C1261.97 1644.9 1260.34 1646.52 1260.34 1649.77C1260.34 1653.02 1261.97 1654.65 1263.92 1654.65C1265.87 1654.65 1267.49 1653.02 1267.49 1649.77ZM138.6 1734.25C138.6 1720.92 149 1710.52 162.65 1710.52C175 1710.52 180.85 1717.67 180.85 1717.67L173.05 1730.02C173.05 1730.02 169.15 1726.45 164.6 1726.45C160.05 1726.45 156.8 1729.7 156.8 1734.25C156.8 1738.8 160.05 1742.05 164.6 1742.05C169.15 1742.05 173.05 1738.47 173.05 1738.47L180.85 1750.82C180.85 1750.82 175 1757.98 162.65 1757.98C149 1757.98 138.6 1747.57 138.6 1734.25ZM199.078 1739.77C199.078 1742.7 201.028 1744.65 204.278 1744.65C207.528 1744.65 210.128 1742.05 210.128 1742.05L216.628 1752.45C216.628 1752.45 211.428 1757.98 202.003 1757.98C190.953 1757.98 182.828 1749.85 182.828 1739.77C182.828 1729.7 190.953 1721.57 202.003 1721.57C211.428 1721.57 216.628 1727.1 216.628 1727.1L210.128 1737.5C210.128 1737.5 207.528 1734.9 204.278 1734.9C201.028 1734.9 199.078 1736.85 199.078 1739.77ZM335.664 1711.5H377.264V1726.45H364.914V1757H348.014V1726.45H335.664V1711.5ZM377.226 1722.55H409.726V1736.2H401.276V1757H385.676V1736.2H377.226V1722.55ZM577.86 1726.45L581.435 1711.5H600.935L586.96 1741.4C581.76 1752.45 576.235 1757.98 568.11 1757.98C561.61 1757.98 557.06 1754.4 557.06 1754.4L560.96 1742.05C560.96 1742.05 563.56 1743.35 566.16 1743.35C568.11 1743.35 568.76 1741.4 568.76 1741.4L554.135 1711.5H573.635L577.86 1726.45ZM610.033 1759.6L611.008 1757L599.633 1722.55H615.883L618.808 1740.75L621.733 1722.55H637.983L625.633 1759.6C621.733 1771.3 617.183 1775.85 609.058 1775.85C604.508 1775.85 600.608 1773.25 600.608 1773.25L604.183 1761.88C604.183 1761.88 605.158 1762.53 606.458 1762.53C608.083 1762.53 609.448 1761.23 610.033 1759.6ZM796.037 1751.8V1757H779.137V1751.8C764.187 1751.8 756.387 1744 756.387 1734.25C756.387 1724.5 764.187 1716.7 779.137 1716.7V1711.5H796.037V1716.7C810.987 1716.7 818.787 1724.5 818.787 1734.25C818.787 1744 810.987 1751.8 796.037 1751.8ZM779.137 1740.75V1727.75C775.887 1727.75 773.287 1730.35 773.287 1734.25C773.287 1738.15 775.887 1740.75 779.137 1740.75ZM796.037 1727.75V1740.75C799.287 1740.75 801.887 1738.15 801.887 1734.25C801.887 1730.35 799.287 1727.75 796.037 1727.75ZM866.887 1739.77C866.887 1736.52 865.262 1734.9 863.312 1734.9C861.362 1734.9 859.737 1736.52 859.737 1739.77C859.737 1743.02 861.362 1744.65 863.312 1744.65C865.262 1744.65 866.887 1743.02 866.887 1739.77ZM844.787 1708.9H860.387V1726.45C860.387 1726.45 862.987 1721.57 869.487 1721.57C876.637 1721.57 883.137 1728.07 883.137 1739.77C883.137 1751.47 876.637 1757.98 869.487 1757.98C862.987 1757.98 860.387 1753.1 860.387 1753.1V1773.25H844.787V1753.1C844.787 1753.1 842.187 1757.98 835.687 1757.98C828.537 1757.98 822.037 1751.47 822.037 1739.77C822.037 1728.07 828.537 1721.57 835.687 1721.57C842.187 1721.57 844.787 1726.45 844.787 1726.45V1708.9ZM838.287 1739.77C838.287 1743.02 839.912 1744.65 841.862 1744.65C843.812 1744.65 845.437 1743.02 845.437 1739.77C845.437 1736.52 843.812 1734.9 841.862 1734.9C839.912 1734.9 838.287 1736.52 838.287 1739.77ZM975.513 1734.25L963.163 1711.5H982.663L987.213 1723.85L991.763 1711.5H1011.26L998.913 1734.25L1011.91 1757H992.413L987.213 1743.35L982.013 1757H962.513L975.513 1734.25ZM1049.95 1722.55L1041.18 1739.77L1050.93 1757H1033.38L1030.78 1748.55L1028.18 1757H1010.63L1020.38 1739.77L1011.6 1722.55H1028.18L1030.78 1731L1033.38 1722.55H1049.95ZM1240.84 1742.7H1246.04V1765.45H1229.14V1757H1197.29V1711.5H1214.19V1742.7H1223.94V1711.5H1240.84V1742.7ZM1286.36 1722.55V1744H1290.91V1764.15H1275.31V1757H1249.96V1722.55H1265.56V1744H1270.76V1722.55H1286.36ZM164.6 1801.5H181.5V1847H164.6V1832.05C164.6 1832.05 160.7 1835.3 154.85 1835.3C145.1 1835.3 139.25 1829.45 139.25 1817.1V1801.5H156.15V1817.1C156.15 1819.7 158.1 1821.65 160.375 1821.65C162.65 1821.65 164.6 1819.7 164.6 1817.1V1801.5ZM207.485 1822.95V1812.55H223.085V1847H207.485V1837.25C207.485 1837.25 204.885 1838.88 200.66 1838.88C193.185 1838.88 187.985 1833.67 187.985 1822.95V1812.55H203.585V1822.95C203.585 1824.57 204.56 1825.55 205.535 1825.55C206.51 1825.55 207.485 1824.57 207.485 1822.95ZM398.679 1801.5V1847H334.329V1801.5H351.229V1832.7H358.054V1801.5H374.954V1832.7H381.779V1801.5H398.679ZM421.452 1812.55V1834H425.352V1812.55H425.417H440.952V1834H444.852V1812.55H460.452V1847H405.852V1812.55H421.452ZM623.068 1832.7H628.268V1855.45H611.368V1847H558.718V1801.5H575.618V1832.7H582.443V1801.5H599.343V1832.7H606.168V1801.5H623.068V1832.7ZM671.146 1834V1812.55H686.746V1834H691.296V1854.15H675.696V1847H632.146V1812.55H647.746V1834H651.646V1812.55H667.246V1834H671.146ZM797.954 1847.65C787.554 1847.65 779.104 1847 779.104 1847V1816.45H770.654V1801.5H796.004V1814.82C796.004 1814.82 798.604 1814.5 801.204 1814.5C812.254 1814.5 818.754 1821 818.754 1831.07C818.754 1841.15 812.254 1847.65 797.954 1847.65ZM797.954 1826.85H796.004V1835.3H797.954C800.229 1835.3 801.854 1833.67 801.854 1831.07C801.854 1828.47 800.229 1826.85 797.954 1826.85ZM821.372 1812.55H844.122V1821.97C844.122 1821.97 846.072 1821.65 847.372 1821.65C855.497 1821.65 861.347 1827.5 861.347 1834.65C861.347 1841.8 855.497 1847.65 844.122 1847.65C834.697 1847.65 828.522 1847 828.522 1847V1826.2H821.372V1812.55ZM843.472 1832.05V1837.25C845.422 1837.25 846.397 1836.27 846.397 1834.65C846.397 1833.02 845.422 1832.05 843.472 1832.05ZM989.468 1847.65C979.068 1847.65 970.618 1847 970.618 1847V1801.5H987.518V1814.82C987.518 1814.82 990.118 1814.5 992.718 1814.5C1003.77 1814.5 1010.27 1821 1010.27 1831.07C1010.27 1841.15 1003.77 1847.65 989.468 1847.65ZM989.468 1826.85H987.518V1835.3H989.468C991.743 1835.3 993.368 1833.67 993.368 1831.07C993.368 1828.47 991.743 1826.85 989.468 1826.85ZM1030.42 1801.5V1847H1013.52V1801.5H1030.42ZM1056.42 1821.65C1064.55 1821.65 1070.4 1827.5 1070.4 1834.65C1070.4 1841.8 1064.55 1847.65 1053.17 1847.65C1043.75 1847.65 1037.57 1847 1037.57 1847V1812.55H1053.17V1821.97C1053.17 1821.97 1055.12 1821.65 1056.42 1821.65ZM1052.52 1832.05V1837.25C1054.47 1837.25 1055.45 1836.27 1055.45 1834.65C1055.45 1833.02 1054.47 1832.05 1052.52 1832.05ZM1087.95 1812.55V1847H1072.35V1812.55H1087.95ZM1218.7 1847.65C1208.3 1847.65 1199.2 1847 1199.2 1847V1801.5H1216.1V1814.82C1216.1 1814.82 1219.35 1814.5 1221.95 1814.5C1233 1814.5 1239.5 1821 1239.5 1831.07C1239.5 1841.15 1233 1847.65 1218.7 1847.65ZM1218.7 1826.85H1216.1V1835.3H1218.7C1220.97 1835.3 1222.6 1833.67 1222.6 1831.07C1222.6 1828.47 1220.97 1826.85 1218.7 1826.85ZM1263.87 1821.65C1271.99 1821.65 1277.84 1827.5 1277.84 1834.65C1277.84 1841.8 1271.99 1847.65 1260.62 1847.65C1250.87 1847.65 1244.69 1847 1244.69 1847V1812.55H1260.29V1821.97C1260.29 1821.97 1262.24 1821.65 1263.87 1821.65ZM1260.62 1832.05H1259.64V1837.25H1260.62C1261.92 1837.25 1262.89 1836.27 1262.89 1834.65C1262.89 1833.02 1261.92 1832.05 1260.62 1832.05ZM155.5 1890.52C169.15 1890.52 179.55 1900.92 179.55 1914.25C179.55 1927.57 169.15 1937.98 155.5 1937.98C143.15 1937.98 137.3 1930.82 137.3 1930.82L144.45 1919.77C144.45 1919.77 148.35 1923.35 152.9 1923.35C158.75 1923.35 160.375 1919.45 160.375 1919.45H149.65V1909.05H160.375C160.375 1909.05 158.75 1905.15 152.9 1905.15C148.35 1905.15 144.45 1908.72 144.45 1908.72L137.3 1897.67C137.3 1897.67 143.15 1890.52 155.5 1890.52ZM197.422 1901.57C208.472 1901.57 216.597 1909.7 216.597 1919.77C216.597 1929.85 208.472 1937.98 197.422 1937.98C187.997 1937.98 182.797 1932.45 182.797 1932.45L187.997 1924C187.997 1924 191.247 1926.92 194.822 1926.92C199.372 1926.92 200.672 1923.67 200.672 1923.67H192.222V1915.87H200.672C200.672 1915.87 199.372 1912.62 194.822 1912.62C191.247 1912.62 187.997 1915.55 187.997 1915.55L182.797 1907.1C182.797 1907.1 187.997 1901.57 197.422 1901.57ZM383.734 1890.52C397.384 1890.52 407.134 1900.28 407.134 1914.25C407.134 1928.22 397.384 1937.98 383.734 1937.98C364.884 1937.98 361.309 1921.4 361.309 1921.4H356.434V1937H339.534V1891.5H356.434V1907.1H361.309C361.309 1907.1 364.884 1890.52 383.734 1890.52ZM383.734 1922.05C386.334 1922.05 388.934 1919.45 388.934 1914.25C388.934 1909.05 386.334 1906.45 383.734 1906.45C381.134 1906.45 378.534 1909.05 378.534 1914.25C378.534 1919.45 381.134 1922.05 383.734 1922.05ZM449.361 1937.98C435.386 1937.98 431.486 1925.95 431.486 1925.95H428.561V1937H412.961V1902.55H428.561V1913.6H431.486C431.486 1913.6 435.386 1901.57 449.361 1901.57C460.411 1901.57 468.211 1909.37 468.211 1919.77C468.211 1930.17 460.411 1937.98 449.361 1937.98ZM449.361 1914.9C447.736 1914.9 446.111 1916.52 446.111 1919.77C446.111 1923.02 447.736 1924.65 449.361 1924.65C450.986 1924.65 452.611 1923.02 452.611 1919.77C452.611 1916.52 450.986 1914.9 449.361 1914.9ZM580.079 1937H560.579L571.629 1919.45C571.629 1919.45 565.779 1916.2 565.779 1906.77C565.779 1897.35 572.279 1890.85 586.579 1890.85C596.329 1890.85 605.429 1891.5 605.429 1891.5V1937H588.529V1922.05H587.879L580.079 1937ZM586.579 1910.35H588.529V1903.2H586.579C584.304 1903.2 582.679 1904.82 582.679 1906.77C582.679 1908.72 584.304 1910.35 586.579 1910.35ZM631.445 1925.95H631.12L625.92 1937H608.695L617.145 1922.7C617.145 1922.7 612.595 1919.77 612.595 1913.92C612.595 1907.75 618.445 1901.9 630.47 1901.9C640.22 1901.9 647.045 1902.55 647.045 1902.55V1937H631.445V1925.95ZM630.47 1916.85H632.095V1912.3H630.47C629.17 1912.3 628.195 1913.27 628.195 1914.57C628.195 1915.87 629.17 1916.85 630.47 1916.85Z" fill="white"/>
<path d="M129 1111V1181H103V1132H94C94 1169.5 81 1182.5 65 1182.5C60 1182.5 55 1181 55 1181V1162C55 1162 55 1162 57 1162C64 1162 70 1156 70 1111H129Z" fill="white"/>
<path d="M-18 1232V1162H8V1211H17C17 1173.5 30 1160.5 46 1160.5C51 1160.5 56 1162 56 1162V1181C56 1181 56 1181 54 1181C47 1181 41 1187 41 1232H-18Z" fill="white"/>
<path d="M129 1105V1035H103V1084H94C94 1046.5 81 1033.5 65 1033.5C60 1033.5 55 1035 55 1035V1054C55 1054 55 1054 57 1054C64 1054 70 1060 70 1105H129Z" fill="white"/>
<path d="M-18 984V1054H8V1005H17C17 1042.5 30 1055.5 46 1055.5C51 1055.5 56 1054 56 1054V1035C56 1035 56 1035 54 1035C47 1035 41 1029 41 984H-18Z" fill="white"/>
<path d="M132.863 1111V1181H158.863V1132H167.863C167.863 1169.5 180.863 1182.5 196.863 1182.5C201.863 1182.5 206.863 1181 206.863 1181V1162C206.863 1162 206.863 1162 204.863 1162C197.863 1162 191.863 1156 191.863 1111H132.863Z" fill="white"/>
<path d="M279.965 1232V1162H253.965V1211H244.965C244.965 1173.5 231.965 1160.5 215.965 1160.5C210.965 1160.5 205.965 1162 205.965 1162V1181C205.965 1181 205.965 1181 207.965 1181C214.965 1181 220.965 1187 220.965 1232H279.965Z" fill="white"/>
<path d="M132.863 1105V1035H158.863V1084H167.863C167.863 1046.5 180.863 1033.5 196.863 1033.5C201.863 1033.5 206.863 1035 206.863 1035V1054C206.863 1054 206.863 1054 204.863 1054C197.863 1054 191.863 1060 191.863 1105H132.863Z" fill="white"/>
<path d="M279.965 984V1054H253.965V1005H244.965C244.965 1042.5 231.965 1055.5 215.965 1055.5C210.965 1055.5 205.965 1054 205.965 1054V1035C205.965 1035 205.965 1035 207.965 1035C214.965 1035 220.965 1029 220.965 984H279.965Z" fill="white"/>
<path d="M280 1108V1178H254V1129H245C245 1166.5 232 1179.5 216 1179.5C211 1179.5 206 1178 206 1178V1159C206 1159 206 1159 208 1159C215 1159 221 1153 221 1108H280Z" fill="white"/>
<path d="M133 1229V1159H159V1208H168C168 1170.5 181 1157.5 197 1157.5C202 1157.5 207 1159 207 1159V1178C207 1178 207 1178 205 1178C198 1178 192 1184 192 1229H133Z" fill="white"/>
<path d="M280 1102V1032H254V1081H245C245 1043.5 232 1030.5 216 1030.5C211 1030.5 206 1032 206 1032V1051C206 1051 206 1051 208 1051C215 1051 221 1057 221 1102H280Z" fill="white"/>
<path d="M133 981V1051H159V1002H168C168 1039.5 181 1052.5 197 1052.5C202 1052.5 207 1051 207 1051V1032C207 1032 207 1032 205 1032C198 1032 192 1026 192 981H133Z" fill="white"/>
<path d="M283.863 1108V1178H309.863V1129H318.863C318.863 1166.5 331.863 1179.5 347.863 1179.5C352.863 1179.5 357.863 1178 357.863 1178V1159C357.863 1159 357.863 1159 355.863 1159C348.863 1159 342.863 1153 342.863 1108H283.863Z" fill="white"/>
<path d="M430.965 1229V1159H404.965V1208H395.965C395.965 1170.5 382.965 1157.5 366.965 1157.5C361.965 1157.5 356.965 1159 356.965 1159V1178C356.965 1178 356.965 1178 358.965 1178C365.965 1178 371.965 1184 371.965 1229H430.965Z" fill="white"/>
<path d="M283.863 1102V1032H309.863V1081H318.863C318.863 1043.5 331.863 1030.5 347.863 1030.5C352.863 1030.5 357.863 1032 357.863 1032V1051C357.863 1051 357.863 1051 355.863 1051C348.863 1051 342.863 1057 342.863 1102H283.863Z" fill="white"/>
<path d="M430.965 981V1051H404.965V1002H395.965C395.965 1039.5 382.965 1052.5 366.965 1052.5C361.965 1052.5 356.965 1051 356.965 1051V1032C356.965 1032 356.965 1032 358.965 1032C365.965 1032 371.965 1026 371.965 981H430.965Z" fill="white"/>
<path d="M582 1108V1178H556V1129H547C547 1166.5 534 1179.5 518 1179.5C513 1179.5 508 1178 508 1178V1159C508 1159 508 1159 510 1159C517 1159 523 1153 523 1108H582Z" fill="white"/>
<path d="M435 1229V1159H461V1208H470C470 1170.5 483 1157.5 499 1157.5C504 1157.5 509 1159 509 1159V1178C509 1178 509 1178 507 1178C500 1178 494 1184 494 1229H435Z" fill="white"/>
<path d="M582 1102V1032H556V1081H547C547 1043.5 534 1030.5 518 1030.5C513 1030.5 508 1032 508 1032V1051C508 1051 508 1051 510 1051C517 1051 523 1057 523 1102H582Z" fill="white"/>
<path d="M435 981V1051H461V1002H470C470 1039.5 483 1052.5 499 1052.5C504 1052.5 509 1051 509 1051V1032C509 1032 509 1032 507 1032C500 1032 494 1026 494 981H435Z" fill="white"/>
<path d="M585.863 1108V1178H611.863V1129H620.863C620.863 1166.5 633.863 1179.5 649.863 1179.5C654.863 1179.5 659.863 1178 659.863 1178V1159C659.863 1159 659.863 1159 657.863 1159C650.863 1159 644.863 1153 644.863 1108H585.863Z" fill="white"/>
<path d="M732.965 1229V1159H706.965V1208H697.965C697.965 1170.5 684.965 1157.5 668.965 1157.5C663.965 1157.5 658.965 1159 658.965 1159V1178C658.965 1178 658.965 1178 660.965 1178C667.965 1178 673.965 1184 673.965 1229H732.965Z" fill="white"/>
<path d="M585.863 1102V1032H611.863V1081H620.863C620.863 1043.5 633.863 1030.5 649.863 1030.5C654.863 1030.5 659.863 1032 659.863 1032V1051C659.863 1051 659.863 1051 657.863 1051C650.863 1051 644.863 1057 644.863 1102H585.863Z" fill="white"/>
<path d="M732.965 981V1051H706.965V1002H697.965C697.965 1039.5 684.965 1052.5 668.965 1052.5C663.965 1052.5 658.965 1051 658.965 1051V1032C658.965 1032 658.965 1032 660.965 1032C667.965 1032 673.965 1026 673.965 981H732.965Z" fill="white"/>
<path d="M733 1105V1175H707V1126H698C698 1163.5 685 1176.5 669 1176.5C664 1176.5 659 1175 659 1175V1156C659 1156 659 1156 661 1156C668 1156 674 1150 674 1105H733Z" fill="white"/>
<path d="M586 1226V1156H612V1205H621C621 1167.5 634 1154.5 650 1154.5C655 1154.5 660 1156 660 1156V1175C660 1175 660 1175 658 1175C651 1175 645 1181 645 1226H586Z" fill="white"/>
<path d="M733 1099V1029H707V1078H698C698 1040.5 685 1027.5 669 1027.5C664 1027.5 659 1029 659 1029V1048C659 1048 659 1048 661 1048C668 1048 674 1054 674 1099H733Z" fill="white"/>
<path d="M586 978V1048H612V999H621C621 1036.5 634 1049.5 650 1049.5C655 1049.5 660 1048 660 1048V1029C660 1029 660 1029 658 1029C651 1029 645 1023 645 978H586Z" fill="white"/>
<path d="M736.863 1105V1175H762.863V1126H771.863C771.863 1163.5 784.863 1176.5 800.863 1176.5C805.863 1176.5 810.863 1175 810.863 1175V1156C810.863 1156 810.863 1156 808.863 1156C801.863 1156 795.863 1150 795.863 1105H736.863Z" fill="white"/>
<path d="M883.965 1226V1156H857.965V1205H848.965C848.965 1167.5 835.965 1154.5 819.965 1154.5C814.965 1154.5 809.965 1156 809.965 1156V1175C809.965 1175 809.965 1175 811.965 1175C818.965 1175 824.965 1181 824.965 1226H883.965Z" fill="white"/>
<path d="M736.863 1099V1029H762.863V1078H771.863C771.863 1040.5 784.863 1027.5 800.863 1027.5C805.863 1027.5 810.863 1029 810.863 1029V1048C810.863 1048 810.863 1048 808.863 1048C801.863 1048 795.863 1054 795.863 1099H736.863Z" fill="white"/>
<path d="M883.965 978V1048H857.965V999H848.965C848.965 1036.5 835.965 1049.5 819.965 1049.5C814.965 1049.5 809.965 1048 809.965 1048V1029C809.965 1029 809.965 1029 811.965 1029C818.965 1029 824.965 1023 824.965 978H883.965Z" fill="white"/>
<path d="M1036 1105V1175H1010V1126H1001C1001 1163.5 988 1176.5 972 1176.5C967 1176.5 962 1175 962 1175V1156C962 1156 962 1156 964 1156C971 1156 977 1150 977 1105H1036Z" fill="white"/>
<path d="M889 1226V1156H915V1205H924C924 1167.5 937 1154.5 953 1154.5C958 1154.5 963 1156 963 1156V1175C963 1175 963 1175 961 1175C954 1175 948 1181 948 1226H889Z" fill="white"/>
<path d="M1036 1099V1029H1010V1078H1001C1001 1040.5 988 1027.5 972 1027.5C967 1027.5 962 1029 962 1029V1048C962 1048 962 1048 964 1048C971 1048 977 1054 977 1099H1036Z" fill="white"/>
<path d="M889 978V1048H915V999H924C924 1036.5 937 1049.5 953 1049.5C958 1049.5 963 1048 963 1048V1029C963 1029 963 1029 961 1029C954 1029 948 1023 948 978H889Z" fill="white"/>
<path d="M1039.86 1105V1175H1065.86V1126H1074.86C1074.86 1163.5 1087.86 1176.5 1103.86 1176.5C1108.86 1176.5 1113.86 1175 1113.86 1175V1156C1113.86 1156 1113.86 1156 1111.86 1156C1104.86 1156 1098.86 1150 1098.86 1105H1039.86Z" fill="white"/>
<path d="M1186.96 1226V1156H1160.96V1205H1151.96C1151.96 1167.5 1138.96 1154.5 1122.96 1154.5C1117.96 1154.5 1112.96 1156 1112.96 1156V1175C1112.96 1175 1112.96 1175 1114.96 1175C1121.96 1175 1127.96 1181 1127.96 1226H1186.96Z" fill="white"/>
<path d="M1039.86 1099V1029H1065.86V1078H1074.86C1074.86 1040.5 1087.86 1027.5 1103.86 1027.5C1108.86 1027.5 1113.86 1029 1113.86 1029V1048C1113.86 1048 1113.86 1048 1111.86 1048C1104.86 1048 1098.86 1054 1098.86 1099H1039.86Z" fill="white"/>
<path d="M1186.96 978V1048H1160.96V999H1151.96C1151.96 1036.5 1138.96 1049.5 1122.96 1049.5C1117.96 1049.5 1112.96 1048 1112.96 1048V1029C1112.96 1029 1112.96 1029 1114.96 1029C1121.96 1029 1127.96 1023 1127.96 978H1186.96Z" fill="white"/>
<path d="M1187 1102V1172H1161V1123H1152C1152 1160.5 1139 1173.5 1123 1173.5C1118 1173.5 1113 1172 1113 1172V1153C1113 1153 1113 1153 1115 1153C1122 1153 1128 1147 1128 1102H1187Z" fill="white"/>
<path d="M1040 1223V1153H1066V1202H1075C1075 1164.5 1088 1151.5 1104 1151.5C1109 1151.5 1114 1153 1114 1153V1172C1114 1172 1114 1172 1112 1172C1105 1172 1099 1178 1099 1223H1040Z" fill="white"/>
<path d="M1187 1096V1026H1161V1075H1152C1152 1037.5 1139 1024.5 1123 1024.5C1118 1024.5 1113 1026 1113 1026V1045C1113 1045 1113 1045 1115 1045C1122 1045 1128 1051 1128 1096H1187Z" fill="white"/>
<path d="M1040 975V1045H1066V996H1075C1075 1033.5 1088 1046.5 1104 1046.5C1109 1046.5 1114 1045 1114 1045V1026C1114 1026 1114 1026 1112 1026C1105 1026 1099 1020 1099 975H1040Z" fill="white"/>
<path d="M1190.86 1102V1172H1216.86V1123H1225.86C1225.86 1160.5 1238.86 1173.5 1254.86 1173.5C1259.86 1173.5 1264.86 1172 1264.86 1172V1153C1264.86 1153 1264.86 1153 1262.86 1153C1255.86 1153 1249.86 1147 1249.86 1102H1190.86Z" fill="white"/>
<path d="M1337.96 1223V1153H1311.96V1202H1302.96C1302.96 1164.5 1289.96 1151.5 1273.96 1151.5C1268.96 1151.5 1263.96 1153 1263.96 1153V1172C1263.96 1172 1263.96 1172 1265.96 1172C1272.96 1172 1278.96 1178 1278.96 1223H1337.96Z" fill="white"/>
<path d="M1190.86 1096V1026H1216.86V1075H1225.86C1225.86 1037.5 1238.86 1024.5 1254.86 1024.5C1259.86 1024.5 1264.86 1026 1264.86 1026V1045C1264.86 1045 1264.86 1045 1262.86 1045C1255.86 1045 1249.86 1051 1249.86 1096H1190.86Z" fill="white"/>
<path d="M1337.96 975V1045H1311.96V996H1302.96C1302.96 1033.5 1289.96 1046.5 1273.96 1046.5C1268.96 1046.5 1263.96 1045 1263.96 1045V1026C1263.96 1026 1263.96 1026 1265.96 1026C1272.96 1026 1278.96 1020 1278.96 975H1337.96Z" fill="white"/>
<path d="M1489 1102V1172H1463V1123H1454C1454 1160.5 1441 1173.5 1425 1173.5C1420 1173.5 1415 1172 1415 1172V1153C1415 1153 1415 1153 1417 1153C1424 1153 1430 1147 1430 1102H1489Z" fill="white"/>
<path d="M1342 1223V1153H1368V1202H1377C1377 1164.5 1390 1151.5 1406 1151.5C1411 1151.5 1416 1153 1416 1153V1172C1416 1172 1416 1172 1414 1172C1407 1172 1401 1178 1401 1223H1342Z" fill="white"/>
<path d="M1489 1096V1026H1463V1075H1454C1454 1037.5 1441 1024.5 1425 1024.5C1420 1024.5 1415 1026 1415 1026V1045C1415 1045 1415 1045 1417 1045C1424 1045 1430 1051 1430 1096H1489Z" fill="white"/>
<path d="M1342 975V1045H1368V996H1377C1377 1033.5 1390 1046.5 1406 1046.5C1411 1046.5 1416 1045 1416 1045V1026C1416 1026 1416 1026 1414 1026C1407 1026 1401 1020 1401 975H1342Z" fill="white"/>
<path d="M353.15 189C353.28 189.52 379.8 280 379.8 280H342.1L339.5 267H322.6L320 280H282.3L308.95 189H353.15ZM326.5 246.2H335.6L331.05 222.8L326.5 246.2ZM478.539 280H439.539L423.939 250.1H422.639V280H388.839V189C388.839 189 407.039 187.7 426.539 187.7C455.139 187.7 468.139 200.7 468.139 219.55C468.139 238.4 456.439 244.9 456.439 244.9L478.539 280ZM422.639 226.7H426.539C431.089 226.7 434.339 223.45 434.339 219.55C434.339 215.65 431.089 212.4 426.539 212.4H422.639V226.7ZM476.061 189H559.261V218.9H534.561V280H500.761V218.9H476.061V189Z" fill="black"/>
<path d="M210.25 326.95H257.85V372H237.45V343.95H230.65V372H210.25V326.95ZM316.513 349.475C316.513 364.775 308.013 373.275 298.663 373.275C290.163 373.275 286.763 366.9 286.763 366.9V393.25H266.363V326.95H285.063C286.763 332.05 286.763 332.05 286.763 332.05C286.763 332.05 290.163 325.675 298.663 325.675C308.013 325.675 316.513 334.175 316.513 349.475ZM295.263 349.475C295.263 345.225 293.138 343.1 290.588 343.1C288.038 343.1 285.913 345.225 285.913 349.475C285.913 353.725 288.038 355.85 290.588 355.85C293.138 355.85 295.263 353.725 295.263 349.475ZM343.282 325.675C357.732 325.675 368.357 336.3 368.357 349.475C368.357 356.785 368.357 365.37 368.357 372H348.807L347.107 366.9C347.107 366.9 343.707 373.275 336.057 373.275C326.707 373.275 320.757 367.325 320.757 359.25C320.757 351.175 326.707 345.225 341.157 345.225H347.957C347.957 345.225 347.107 340.55 340.307 340.55C336.057 340.55 332.657 343.95 332.657 343.95L325.432 332.475C325.432 332.475 331.807 325.675 343.282 325.675ZM343.707 359.675C345.832 359.675 347.957 357.55 347.957 352.45C343.282 352.45 341.157 354.575 341.157 357.125C341.157 358.4 342.432 359.675 343.707 359.675ZM425.742 326.95L413.842 349.05L427.442 372H404.917L396.417 354.15V372H376.017V326.95H396.417V343.95L403.642 326.95H425.742ZM427.402 326.95H469.902V344.8H458.852V372H438.452V344.8H427.402V326.95ZM496.212 372H474.962V326.95H495.362V346.5L503.012 326.95H524.262V372H503.862V352.45L496.212 372ZM582.46 326.95L570.56 349.05L584.16 372H561.635L553.135 354.15V372H532.735V326.95H553.135V343.95L560.36 326.95H582.46ZM607.496 325.675C621.946 325.675 632.571 336.3 632.571 349.475C632.571 356.785 632.571 365.37 632.571 372H613.021L611.321 366.9C611.321 366.9 607.921 373.275 600.271 373.275C590.921 373.275 584.971 367.325 584.971 359.25C584.971 351.175 590.921 345.225 605.371 345.225H612.171C612.171 345.225 611.321 340.55 604.521 340.55C600.271 340.55 596.871 343.95 596.871 343.95L589.646 332.475C589.646 332.475 596.021 325.675 607.496 325.675ZM607.921 359.675C610.046 359.675 612.171 357.55 612.171 352.45C607.496 352.45 605.371 354.575 605.371 357.125C605.371 358.4 606.646 359.675 607.921 359.675Z" fill="black"/>
<path d="M953.15 525C953.28 525.52 979.8 616 979.8 616H942.1L939.5 603H922.6L920 616H882.3L908.95 525H953.15ZM926.5 582.2H935.6L931.05 558.8L926.5 582.2ZM1078.54 616H1039.54L1023.94 586.1H1022.64V616H988.839V525C988.839 525 1007.04 523.7 1026.54 523.7C1055.14 523.7 1068.14 536.7 1068.14 555.55C1068.14 574.4 1056.44 580.9 1056.44 580.9L1078.54 616ZM1022.64 562.7H1026.54C1031.09 562.7 1034.34 559.45 1034.34 555.55C1034.34 551.65 1031.09 548.4 1026.54 548.4H1022.64V562.7ZM1076.06 525H1159.26V554.9H1134.56V616H1100.76V554.9H1076.06V525Z" fill="white"/>
<path d="M810.25 662.95H857.85V708H837.45V679.95H830.65V708H810.25V662.95ZM916.513 685.475C916.513 700.775 908.013 709.275 898.663 709.275C890.163 709.275 886.763 702.9 886.763 702.9V729.25H866.363V662.95H885.063C886.763 668.05 886.763 668.05 886.763 668.05C886.763 668.05 890.163 661.675 898.663 661.675C908.013 661.675 916.513 670.175 916.513 685.475ZM895.263 685.475C895.263 681.225 893.138 679.1 890.588 679.1C888.038 679.1 885.913 681.225 885.913 685.475C885.913 689.725 888.038 691.85 890.588 691.85C893.138 691.85 895.263 689.725 895.263 685.475ZM943.282 661.675C957.732 661.675 968.357 672.3 968.357 685.475C968.357 692.785 968.357 701.37 968.357 708H948.807L947.107 702.9C947.107 702.9 943.707 709.275 936.057 709.275C926.707 709.275 920.757 703.325 920.757 695.25C920.757 687.175 926.707 681.225 941.157 681.225H947.957C947.957 681.225 947.107 676.55 940.307 676.55C936.057 676.55 932.657 679.95 932.657 679.95L925.432 668.475C925.432 668.475 931.807 661.675 943.282 661.675ZM943.707 695.675C945.832 695.675 947.957 693.55 947.957 688.45C943.282 688.45 941.157 690.575 941.157 693.125C941.157 694.4 942.432 695.675 943.707 695.675ZM1025.74 662.95L1013.84 685.05L1027.44 708H1004.92L996.417 690.15V708H976.017V662.95H996.417V679.95L1003.64 662.95H1025.74ZM1027.4 662.95H1069.9V680.8H1058.85V708H1038.45V680.8H1027.4V662.95ZM1096.21 708H1074.96V662.95H1095.36V682.5L1103.01 662.95H1124.26V708H1103.86V688.45L1096.21 708ZM1182.46 662.95L1170.56 685.05L1184.16 708H1161.64L1153.14 690.15V708H1132.74V662.95H1153.14V679.95L1160.36 662.95H1182.46ZM1207.5 661.675C1221.95 661.675 1232.57 672.3 1232.57 685.475C1232.57 692.785 1232.57 701.37 1232.57 708H1213.02L1211.32 702.9C1211.32 702.9 1207.92 709.275 1200.27 709.275C1190.92 709.275 1184.97 703.325 1184.97 695.25C1184.97 687.175 1190.92 681.225 1205.37 681.225H1212.17C1212.17 681.225 1211.32 676.55 1204.52 676.55C1200.27 676.55 1196.87 679.95 1196.87 679.95L1189.65 668.475C1189.65 668.475 1196.02 661.675 1207.5 661.675ZM1207.92 695.675C1210.05 695.675 1212.17 693.55 1212.17 688.45C1207.5 688.45 1205.37 690.575 1205.37 693.125C1205.37 694.4 1206.65 695.675 1207.92 695.675Z" fill="white"/>
<rect x="194" y="420" width="455" height="333" fill="black"/>
<rect x="229" y="440" width="384" height="290" fill="white"/>
<rect x="254" y="466" width="334" height="239" fill="black"/>
<rect x="289" y="491" width="265" height="188" fill="white"/>
<rect x="323" y="517" width="196" height="130" fill="black"/>
<rect x="794" y="137" width="455" height="333" fill="black"/>
<rect x="829" y="157" width="384" height="290" fill="white"/>
<rect x="854" y="183" width="334" height="239" fill="black"/>
<rect x="889" y="208" width="265" height="188" fill="white"/>
<rect x="923" y="234" width="196" height="130" fill="black"/>
</svg>
