<svg width="1440" height="3556" viewBox="0 0 1440 3556" fill="none" xmlns="http://www.w3.org/2000/svg">
<g clip-path="url(#clip0_26_9082)">
<rect width="1440" height="3556" fill="black"/>
<rect x="487.5" y="2779.5" width="469" height="803" fill="white" stroke="black" stroke-width="15"/>
<path d="M952.884 499.155L915.521 541.404L939.792 562.868L921.508 583.543L873.865 541.411L929.512 478.486L952.884 499.155Z" fill="white"/>
<path d="M1119 183.6H1175.4V151.2H1203V214.8H1119V183.6Z" fill="white"/>
<path d="M1138.4 95V151.4H1170.8V179H1107.2V95H1138.4Z" fill="white"/>
<path d="M1164.4 250.8C1164.4 272.4 1152.4 284.4 1139.2 284.4C1127.2 284.4 1122.4 275.4 1122.4 275.4V307.8H1093.6V219H1120C1122.4 226.2 1122.4 226.2 1122.4 226.2C1122.4 226.2 1127.2 217.2 1139.2 217.2C1152.4 217.2 1164.4 229.2 1164.4 250.8ZM1134.4 250.8C1134.4 244.8 1131.4 241.8 1127.8 241.8C1124.2 241.8 1121.2 244.8 1121.2 250.8C1121.2 256.8 1124.2 259.8 1127.8 259.8C1131.4 259.8 1134.4 256.8 1134.4 250.8Z" fill="white"/>
<path d="M1251.4 88.8C1251.4 110.4 1239.4 122.4 1226.2 122.4C1214.2 122.4 1209.4 113.4 1209.4 113.4V145.8H1180.6V57L1207 57C1209.4 64.2 1209.4 64.2 1209.4 64.2C1209.4 64.2 1214.2 55.2 1226.2 55.2C1239.4 55.2 1251.4 67.2 1251.4 88.8ZM1221.4 88.8C1221.4 82.8 1218.4 79.8 1214.8 79.8C1211.2 79.8 1208.2 82.8 1208.2 88.8C1208.2 94.8 1211.2 97.8 1214.8 97.8C1218.4 97.8 1221.4 94.8 1221.4 88.8Z" fill="white"/>
<path d="M1165.6 251.2C1165.6 229.6 1177.6 217.6 1190.8 217.6C1202.8 217.6 1207.6 226.6 1207.6 226.6V194.2H1236.4V283H1210C1207.6 275.8 1207.6 275.8 1207.6 275.8C1207.6 275.8 1202.8 284.8 1190.8 284.8C1177.6 284.8 1165.6 272.8 1165.6 251.2ZM1195.6 251.2C1195.6 257.2 1198.6 260.2 1202.2 260.2C1205.8 260.2 1208.8 257.2 1208.8 251.2C1208.8 245.2 1205.8 242.2 1202.2 242.2C1198.6 242.2 1195.6 245.2 1195.6 251.2Z" fill="white"/>
<path d="M1069.2 140.4C1047.6 140.4 1035.6 128.4 1035.6 115.2C1035.6 103.2 1044.6 98.4 1044.6 98.4H1012.2V69.6L1101 69.6V96C1093.8 98.4 1093.8 98.4 1093.8 98.4C1093.8 98.4 1102.8 103.2 1102.8 115.2C1102.8 128.4 1090.8 140.4 1069.2 140.4ZM1069.2 110.4C1075.2 110.4 1078.2 107.4 1078.2 103.8C1078.2 100.2 1075.2 97.2 1069.2 97.2C1063.2 97.2 1060.2 100.2 1060.2 103.8C1060.2 107.4 1063.2 110.4 1069.2 110.4Z" fill="white"/>
<path d="M1056.8 143.6C1078.4 143.6 1090.4 155.6 1090.4 168.8C1090.4 180.8 1081.4 185.6 1081.4 185.6H1113.8V214.4H1025V188C1032.2 185.6 1032.2 185.6 1032.2 185.6C1032.2 185.6 1023.2 180.8 1023.2 168.8C1023.2 155.6 1035.2 143.6 1056.8 143.6ZM1056.8 173.6C1050.8 173.6 1047.8 176.6 1047.8 180.2C1047.8 183.8 1050.8 186.8 1056.8 186.8C1062.8 186.8 1065.8 183.8 1065.8 180.2C1065.8 176.6 1062.8 173.6 1056.8 173.6Z" fill="white"/>
<path d="M1020.4 195V251.4H1052.8V279H989.2V195H1020.4Z" fill="white"/>
<path d="M1143.6 146V89.6L1111.2 89.6V62L1174.8 62V146H1143.6Z" fill="white"/>
<path d="M1057.6 303V246.6H1025.2V219H1088.8V303H1057.6Z" fill="white"/>
<path d="M846 289.6H902.4V257.2H930V320.8H846V289.6Z" fill="white"/>
<path d="M865.4 201V257.4H897.8V285H834.2V201H865.4Z" fill="white"/>
<path d="M978.4 194.8C978.4 216.4 966.4 228.4 953.2 228.4C941.2 228.4 936.4 219.4 936.4 219.4V251.8H907.6V163H934C936.4 170.2 936.4 170.2 936.4 170.2C936.4 170.2 941.2 161.2 953.2 161.2C966.4 161.2 978.4 173.2 978.4 194.8ZM948.4 194.8C948.4 188.8 945.4 185.8 941.8 185.8C938.2 185.8 935.2 188.8 935.2 194.8C935.2 200.8 938.2 203.8 941.8 203.8C945.4 203.8 948.4 200.8 948.4 194.8Z" fill="white"/>
<path d="M796.2 246.4C774.6 246.4 762.6 234.4 762.6 221.2C762.6 209.2 771.6 204.4 771.6 204.4H739.2V175.6H828V202C820.8 204.4 820.8 204.4 820.8 204.4C820.8 204.4 829.8 209.2 829.8 221.2C829.8 234.4 817.8 246.4 796.2 246.4ZM796.2 216.4C802.2 216.4 805.2 213.4 805.2 209.8C805.2 206.2 802.2 203.2 796.2 203.2C790.2 203.2 787.2 206.2 787.2 209.8C787.2 213.4 790.2 216.4 796.2 216.4Z" fill="white"/>
<path d="M783.8 249.6C805.4 249.6 817.4 261.6 817.4 274.8C817.4 286.8 808.4 291.6 808.4 291.6H840.8V320.4H752V294C759.2 291.6 759.2 291.6 759.2 291.6C759.2 291.6 750.2 286.8 750.2 274.8C750.2 261.6 762.2 249.6 783.8 249.6ZM783.8 279.6C777.8 279.6 774.8 282.6 774.8 286.2C774.8 289.8 777.8 292.8 783.8 292.8C789.8 292.8 792.8 289.8 792.8 286.2C792.8 282.6 789.8 279.6 783.8 279.6Z" fill="white"/>
<path d="M870.6 252V195.6H838.2V168H901.8V252H870.6Z" fill="white"/>
<path d="M994 440.6H1050.4V408.2H1078V471.8H994V440.6Z" fill="white"/>
<path d="M1013.4 352V408.4H1045.8V436H982.2V352H1013.4Z" fill="white"/>
<path d="M1126.4 345.8C1126.4 367.4 1114.4 379.4 1101.2 379.4C1089.2 379.4 1084.4 370.4 1084.4 370.4V402.8H1055.6V314H1082C1084.4 321.2 1084.4 321.2 1084.4 321.2C1084.4 321.2 1089.2 312.2 1101.2 312.2C1114.4 312.2 1126.4 324.2 1126.4 345.8ZM1096.4 345.8C1096.4 339.8 1093.4 336.8 1089.8 336.8C1086.2 336.8 1083.2 339.8 1083.2 345.8C1083.2 351.8 1086.2 354.8 1089.8 354.8C1093.4 354.8 1096.4 351.8 1096.4 345.8Z" fill="white"/>
<path d="M1040.6 508.2C1040.6 486.6 1052.6 474.6 1065.8 474.6C1077.8 474.6 1082.6 483.6 1082.6 483.6V451.2H1111.4V540H1085C1082.6 532.8 1082.6 532.8 1082.6 532.8C1082.6 532.8 1077.8 541.8 1065.8 541.8C1052.6 541.8 1040.6 529.8 1040.6 508.2ZM1070.6 508.2C1070.6 514.2 1073.6 517.2 1077.2 517.2C1080.8 517.2 1083.8 514.2 1083.8 508.2C1083.8 502.2 1080.8 499.2 1077.2 499.2C1073.6 499.2 1070.6 502.2 1070.6 508.2Z" fill="white"/>
<path d="M944.2 397.4C922.6 397.4 910.6 385.4 910.6 372.2C910.6 360.2 919.6 355.4 919.6 355.4H887.2V326.6H976V353C968.8 355.4 968.8 355.4 968.8 355.4C968.8 355.4 977.8 360.2 977.8 372.2C977.8 385.4 965.8 397.4 944.2 397.4ZM944.2 367.4C950.2 367.4 953.2 364.4 953.2 360.8C953.2 357.2 950.2 354.2 944.2 354.2C938.2 354.2 935.2 357.2 935.2 360.8C935.2 364.4 938.2 367.4 944.2 367.4Z" fill="white"/>
<path d="M1018.6 403V346.6H986.2V319H1049.8V403H1018.6Z" fill="white"/>
<path d="M1161.4 322V378.4H1193.8V406H1130.2V322H1161.4Z" fill="white"/>
<path d="M1328 423.6H1384.4V391.2H1412V454.8H1328V423.6Z" fill="white"/>
<path d="M1347.4 335V391.4H1379.8V419H1316.2V335H1347.4Z" fill="white"/>
<path d="M1122.6 468.2C1122.6 446.6 1134.6 434.6 1147.8 434.6C1159.8 434.6 1164.6 443.6 1164.6 443.6V411.2H1193.4V500H1167C1164.6 492.8 1164.6 492.8 1164.6 492.8C1164.6 492.8 1159.8 501.8 1147.8 501.8C1134.6 501.8 1122.6 489.8 1122.6 468.2ZM1152.6 468.2C1152.6 474.2 1155.6 477.2 1159.2 477.2C1162.8 477.2 1165.8 474.2 1165.8 468.2C1165.8 462.2 1162.8 459.2 1159.2 459.2C1155.6 459.2 1152.6 462.2 1152.6 468.2Z" fill="white"/>
<path d="M1373.4 490.8C1373.4 512.4 1361.4 524.4 1348.2 524.4C1336.2 524.4 1331.4 515.4 1331.4 515.4V547.8H1302.6V459H1329C1331.4 466.2 1331.4 466.2 1331.4 466.2C1331.4 466.2 1336.2 457.2 1348.2 457.2C1361.4 457.2 1373.4 469.2 1373.4 490.8ZM1343.4 490.8C1343.4 484.8 1340.4 481.8 1336.8 481.8C1333.2 481.8 1330.2 484.8 1330.2 490.8C1330.2 496.8 1333.2 499.8 1336.8 499.8C1340.4 499.8 1343.4 496.8 1343.4 490.8Z" fill="white"/>
<path d="M1460.4 328.8C1460.4 350.4 1448.4 362.4 1435.2 362.4C1423.2 362.4 1418.4 353.4 1418.4 353.4V385.8H1389.6V297H1416C1418.4 304.2 1418.4 304.2 1418.4 304.2C1418.4 304.2 1423.2 295.2 1435.2 295.2C1448.4 295.2 1460.4 307.2 1460.4 328.8ZM1430.4 328.8C1430.4 322.8 1427.4 319.8 1423.8 319.8C1420.2 319.8 1417.2 322.8 1417.2 328.8C1417.2 334.8 1420.2 337.8 1423.8 337.8C1427.4 337.8 1430.4 334.8 1430.4 328.8Z" fill="white"/>
<path d="M1374.6 491.2C1374.6 469.6 1386.6 457.6 1399.8 457.6C1411.8 457.6 1416.6 466.6 1416.6 466.6V434.2H1445.4V523H1419C1416.6 515.8 1416.6 515.8 1416.6 515.8C1416.6 515.8 1411.8 524.8 1399.8 524.8C1386.6 524.8 1374.6 512.8 1374.6 491.2ZM1404.6 491.2C1404.6 497.2 1407.6 500.2 1411.2 500.2C1414.8 500.2 1417.8 497.2 1417.8 491.2C1417.8 485.2 1414.8 482.2 1411.2 482.2C1407.6 482.2 1404.6 485.2 1404.6 491.2Z" fill="white"/>
<path d="M1278.2 380.4C1256.6 380.4 1244.6 368.4 1244.6 355.2C1244.6 343.2 1253.6 338.4 1253.6 338.4H1221.2V309.6H1310V336C1302.8 338.4 1302.8 338.4 1302.8 338.4C1302.8 338.4 1311.8 343.2 1311.8 355.2C1311.8 368.4 1299.8 380.4 1278.2 380.4ZM1278.2 350.4C1284.2 350.4 1287.2 347.4 1287.2 343.8C1287.2 340.2 1284.2 337.2 1278.2 337.2C1272.2 337.2 1269.2 340.2 1269.2 343.8C1269.2 347.4 1272.2 350.4 1278.2 350.4Z" fill="white"/>
<path d="M1265.8 383.6C1287.4 383.6 1299.4 395.6 1299.4 408.8C1299.4 420.8 1290.4 425.6 1290.4 425.6H1322.8V454.4H1234V428C1241.2 425.6 1241.2 425.6 1241.2 425.6C1241.2 425.6 1232.2 420.8 1232.2 408.8C1232.2 395.6 1244.2 383.6 1265.8 383.6ZM1265.8 413.6C1259.8 413.6 1256.8 416.6 1256.8 420.2C1256.8 423.8 1259.8 426.8 1265.8 426.8C1271.8 426.8 1274.8 423.8 1274.8 420.2C1274.8 416.6 1271.8 413.6 1265.8 413.6Z" fill="white"/>
<path d="M1229.4 435V491.4H1261.8V519H1198.2V435H1229.4Z" fill="white"/>
<path d="M1198.6 430V373.6H1166.2V346H1229.8V430H1198.6Z" fill="white"/>
<path d="M1352.6 386V329.6H1320.2V302H1383.8V386H1352.6Z" fill="white"/>
<path d="M1266.6 543V486.6H1234.2V459H1297.8V543H1266.6Z" fill="white"/>
<path d="M1293.4 53.9998V110.4H1325.8V138H1262.2V53.9998H1293.4Z" fill="white"/>
<path d="M1254.6 200.2C1254.6 178.6 1266.6 166.6 1279.8 166.6C1291.8 166.6 1296.6 175.6 1296.6 175.6V143.2H1325.4V232H1299C1296.6 224.8 1296.6 224.8 1296.6 224.8C1296.6 224.8 1291.8 233.8 1279.8 233.8C1266.6 233.8 1254.6 221.8 1254.6 200.2ZM1284.6 200.2C1284.6 206.2 1287.6 209.2 1291.2 209.2C1294.8 209.2 1297.8 206.2 1297.8 200.2C1297.8 194.2 1294.8 191.2 1291.2 191.2C1287.6 191.2 1284.6 194.2 1284.6 200.2Z" fill="white"/>
<path d="M1505.4 222.8C1505.4 244.4 1493.4 256.4 1480.2 256.4C1468.2 256.4 1463.4 247.4 1463.4 247.4V279.8H1434.6V191H1461C1463.4 198.2 1463.4 198.2 1463.4 198.2C1463.4 198.2 1468.2 189.2 1480.2 189.2C1493.4 189.2 1505.4 201.2 1505.4 222.8ZM1475.4 222.8C1475.4 216.8 1472.4 213.8 1468.8 213.8C1465.2 213.8 1462.2 216.8 1462.2 222.8C1462.2 228.8 1465.2 231.8 1468.8 231.8C1472.4 231.8 1475.4 228.8 1475.4 222.8Z" fill="white"/>
<path d="M1410.2 112.4C1388.6 112.4 1376.6 100.4 1376.6 87.1998C1376.6 75.1998 1385.6 70.3998 1385.6 70.3998H1353.2V41.5998L1442 41.5998V67.9998C1434.8 70.3998 1434.8 70.3998 1434.8 70.3998C1434.8 70.3998 1443.8 75.1998 1443.8 87.1998C1443.8 100.4 1431.8 112.4 1410.2 112.4ZM1410.2 82.3998C1416.2 82.3998 1419.2 79.3998 1419.2 75.7998C1419.2 72.1998 1416.2 69.1998 1410.2 69.1998C1404.2 69.1998 1401.2 72.1998 1401.2 75.7998C1401.2 79.3998 1404.2 82.3998 1410.2 82.3998Z" fill="white"/>
<path d="M1397.8 115.6C1419.4 115.6 1431.4 127.6 1431.4 140.8C1431.4 152.8 1422.4 157.6 1422.4 157.6H1454.8V186.4H1366V160C1373.2 157.6 1373.2 157.6 1373.2 157.6C1373.2 157.6 1364.2 152.8 1364.2 140.8C1364.2 127.6 1376.2 115.6 1397.8 115.6ZM1397.8 145.6C1391.8 145.6 1388.8 148.6 1388.8 152.2C1388.8 155.8 1391.8 158.8 1397.8 158.8C1403.8 158.8 1406.8 155.8 1406.8 152.2C1406.8 148.6 1403.8 145.6 1397.8 145.6Z" fill="white"/>
<path d="M1361.4 167V223.4H1393.8V251H1330.2V167H1361.4Z" fill="white"/>
<path d="M1330.6 162V105.6L1298.2 105.6V77.9998L1361.8 77.9998V162H1330.6Z" fill="white"/>
<path d="M1398.6 275V218.6H1366.2V191H1429.8V275H1398.6Z" fill="white"/>
<rect width="1443" height="816" transform="matrix(1 0 0 -1 0 1156)" fill="url(#paint0_linear_26_9082)"/>
<rect y="1144" width="1443" height="1228" fill="url(#paint1_linear_26_9082)"/>
<path d="M0 1958V1144L962 1150.46L0 1958Z" fill="white"/>
<path d="M-41 620V1159L962 1154.72L-41 620Z" fill="white"/>
<path d="M1447 1570V1144L925 1147.38L1447 1570Z" fill="white"/>
<path d="M1443 812V1159L930 1156.25L1443 812Z" fill="white"/>
<path d="M201 2273H153L133.8 2236.2H132.2V2273H90.6V2161C90.6 2161 113 2159.4 137 2159.4C172.2 2159.4 188.2 2175.4 188.2 2198.6C188.2 2221.8 173.8 2229.8 173.8 2229.8L201 2273ZM132.2 2207.4H137C142.6 2207.4 146.6 2203.4 146.6 2198.6C146.6 2193.8 142.6 2189.8 137 2189.8H132.2V2207.4Z" fill="white"/>
<path d="M182 2159H230L249.2 2195.8H250.8L250.8 2159H292.4V2271C292.4 2271 270 2272.6 246 2272.6C210.8 2272.6 194.8 2256.6 194.8 2233.4C194.8 2210.2 209.2 2202.2 209.2 2202.2L182 2159ZM250.8 2224.6H246C240.4 2224.6 236.4 2228.6 236.4 2233.4C236.4 2238.2 240.4 2242.2 246 2242.2H250.8V2224.6Z" fill="white"/>
<path d="M394 2273H442L461.2 2236.2H462.8V2273H504.4V2161C504.4 2161 482 2159.4 458 2159.4C422.8 2159.4 406.8 2175.4 406.8 2198.6C406.8 2221.8 421.2 2229.8 421.2 2229.8L394 2273ZM462.8 2207.4H458C452.4 2207.4 448.4 2203.4 448.4 2198.6C448.4 2193.8 452.4 2189.8 458 2189.8H462.8V2207.4Z" fill="white"/>
<path d="M413 2159H365L345.8 2195.8H344.2V2159H302.6V2271C302.6 2271 325 2272.6 349 2272.6C384.2 2272.6 400.2 2256.6 400.2 2233.4C400.2 2210.2 385.8 2202.2 385.8 2202.2L413 2159ZM344.2 2224.6H349C354.6 2224.6 358.6 2228.6 358.6 2233.4C358.6 2238.2 354.6 2242.2 349 2242.2H344.2V2224.6Z" fill="white"/>
<path d="M625 2273H577L557.8 2236.2H556.2V2273H514.6V2161C514.6 2161 537 2159.4 561 2159.4C596.2 2159.4 612.2 2175.4 612.2 2198.6C612.2 2221.8 597.8 2229.8 597.8 2229.8L625 2273ZM556.2 2207.4H561C566.6 2207.4 570.6 2203.4 570.6 2198.6C570.6 2193.8 566.6 2189.8 561 2189.8H556.2V2207.4Z" fill="white"/>
<path d="M606 2159H654L673.2 2195.8H674.8V2159H716.4V2271C716.4 2271 694 2272.6 670 2272.6C634.8 2272.6 618.8 2256.6 618.8 2233.4C618.8 2210.2 633.2 2202.2 633.2 2202.2L606 2159ZM674.8 2224.6H670C664.4 2224.6 660.4 2228.6 660.4 2233.4C660.4 2238.2 664.4 2242.2 670 2242.2H674.8V2224.6Z" fill="white"/>
<path d="M818 2273H866L885.2 2236.2H886.8V2273H928.4V2161C928.4 2161 906 2159.4 882 2159.4C846.8 2159.4 830.8 2175.4 830.8 2198.6C830.8 2221.8 845.2 2229.8 845.2 2229.8L818 2273ZM886.8 2207.4H882C876.4 2207.4 872.4 2203.4 872.4 2198.6C872.4 2193.8 876.4 2189.8 882 2189.8H886.8V2207.4Z" fill="white"/>
<path d="M837 2159H789L769.8 2195.8H768.2V2159H726.6V2271C726.6 2271 749 2272.6 773 2272.6C808.2 2272.6 824.2 2256.6 824.2 2233.4C824.2 2210.2 809.8 2202.2 809.8 2202.2L837 2159ZM768.2 2224.6H773C778.6 2224.6 782.6 2228.6 782.6 2233.4C782.6 2238.2 778.6 2242.2 773 2242.2H768.2V2224.6Z" fill="white"/>
<path d="M1049 2273H1001L981.8 2236.2H980.2V2273H938.6V2161C938.6 2161 961 2159.4 985 2159.4C1020.2 2159.4 1036.2 2175.4 1036.2 2198.6C1036.2 2221.8 1021.8 2229.8 1021.8 2229.8L1049 2273ZM980.2 2207.4H985C990.6 2207.4 994.6 2203.4 994.6 2198.6C994.6 2193.8 990.6 2189.8 985 2189.8H980.2V2207.4Z" fill="white"/>
<path d="M1030 2159H1078L1097.2 2195.8H1098.8V2159H1140.4V2271C1140.4 2271 1118 2272.6 1094 2272.6C1058.8 2272.6 1042.8 2256.6 1042.8 2233.4C1042.8 2210.2 1057.2 2202.2 1057.2 2202.2L1030 2159ZM1098.8 2224.6H1094C1088.4 2224.6 1084.4 2228.6 1084.4 2233.4C1084.4 2238.2 1088.4 2242.2 1094 2242.2H1098.8V2224.6Z" fill="white"/>
<path d="M1242 2273H1290L1309.2 2236.2H1310.8V2273H1352.4V2161C1352.4 2161 1330 2159.4 1306 2159.4C1270.8 2159.4 1254.8 2175.4 1254.8 2198.6C1254.8 2221.8 1269.2 2229.8 1269.2 2229.8L1242 2273ZM1310.8 2207.4H1306C1300.4 2207.4 1296.4 2203.4 1296.4 2198.6C1296.4 2193.8 1300.4 2189.8 1306 2189.8H1310.8V2207.4Z" fill="white"/>
<path d="M1261 2159H1213L1193.8 2195.8H1192.2V2159H1150.6V2271C1150.6 2271 1173 2272.6 1197 2272.6C1232.2 2272.6 1248.2 2256.6 1248.2 2233.4C1248.2 2210.2 1233.8 2202.2 1233.8 2202.2L1261 2159ZM1192.2 2224.6H1197C1202.6 2224.6 1206.6 2228.6 1206.6 2233.4C1206.6 2238.2 1202.6 2242.2 1197 2242.2H1192.2V2224.6Z" fill="white"/>
<path d="M937.2 2101.6C937.2 2072.8 921.2 2056.8 903.6 2056.8C887.6 2056.8 881.2 2068.8 881.2 2068.8V2025.6H842.8V2144H878C881.2 2134.4 881.2 2134.4 881.2 2134.4C881.2 2134.4 887.6 2146.4 903.6 2146.4C921.2 2146.4 937.2 2130.4 937.2 2101.6ZM897.2 2101.6C897.2 2109.6 893.2 2113.6 888.4 2113.6C883.6 2113.6 879.6 2109.6 879.6 2101.6C879.6 2093.6 883.6 2089.6 888.4 2089.6C893.2 2089.6 897.2 2093.6 897.2 2101.6Z" fill="white"/>
<path d="M738.8 2101.6C738.8 2072.8 754.8 2056.8 772.4 2056.8C788.4 2056.8 794.8 2068.8 794.8 2068.8V2025.6H833.2V2144H798C794.8 2134.4 794.8 2134.4 794.8 2134.4C794.8 2134.4 788.4 2146.4 772.4 2146.4C754.8 2146.4 738.8 2130.4 738.8 2101.6ZM778.8 2101.6C778.8 2109.6 782.8 2113.6 787.6 2113.6C792.4 2113.6 796.4 2109.6 796.4 2101.6C796.4 2093.6 792.4 2089.6 787.6 2089.6C782.8 2089.6 778.8 2093.6 778.8 2101.6Z" fill="white"/>
<path d="M1041.2 1972.6C1041.2 1943.8 1025.2 1927.8 1007.6 1927.8C991.6 1927.8 985.2 1939.8 985.2 1939.8V1896.6H946.8V2015H982C985.2 2005.4 985.2 2005.4 985.2 2005.4C985.2 2005.4 991.6 2017.4 1007.6 2017.4C1025.2 2017.4 1041.2 2001.4 1041.2 1972.6ZM1001.2 1972.6C1001.2 1980.6 997.2 1984.6 992.4 1984.6C987.6 1984.6 983.6 1980.6 983.6 1972.6C983.6 1964.6 987.6 1960.6 992.4 1960.6C997.2 1960.6 1001.2 1964.6 1001.2 1972.6Z" fill="white"/>
<path d="M842.8 1972.6C842.8 1943.8 858.8 1927.8 876.4 1927.8C892.4 1927.8 898.8 1939.8 898.8 1939.8V1896.6H937.2V2015H902C898.8 2005.4 898.8 2005.4 898.8 2005.4C898.8 2005.4 892.4 2017.4 876.4 2017.4C858.8 2017.4 842.8 2001.4 842.8 1972.6ZM882.8 1972.6C882.8 1980.6 886.8 1984.6 891.6 1984.6C896.4 1984.6 900.4 1980.6 900.4 1972.6C900.4 1964.6 896.4 1960.6 891.6 1960.6C886.8 1960.6 882.8 1964.6 882.8 1972.6Z" fill="white"/>
<path d="M1143.2 2101.6C1143.2 2072.8 1127.2 2056.8 1109.6 2056.8C1093.6 2056.8 1087.2 2068.8 1087.2 2068.8V2025.6H1048.8V2144H1084C1087.2 2134.4 1087.2 2134.4 1087.2 2134.4C1087.2 2134.4 1093.6 2146.4 1109.6 2146.4C1127.2 2146.4 1143.2 2130.4 1143.2 2101.6ZM1103.2 2101.6C1103.2 2109.6 1099.2 2113.6 1094.4 2113.6C1089.6 2113.6 1085.6 2109.6 1085.6 2101.6C1085.6 2093.6 1089.6 2089.6 1094.4 2089.6C1099.2 2089.6 1103.2 2093.6 1103.2 2101.6Z" fill="white"/>
<path d="M944.8 2101.6C944.8 2072.8 960.8 2056.8 978.4 2056.8C994.4 2056.8 1000.8 2068.8 1000.8 2068.8V2025.6H1039.2V2144H1004C1000.8 2134.4 1000.8 2134.4 1000.8 2134.4C1000.8 2134.4 994.4 2146.4 978.4 2146.4C960.8 2146.4 944.8 2130.4 944.8 2101.6ZM984.8 2101.6C984.8 2109.6 988.8 2113.6 993.6 2113.6C998.4 2113.6 1002.4 2109.6 1002.4 2101.6C1002.4 2093.6 998.4 2089.6 993.6 2089.6C988.8 2089.6 984.8 2093.6 984.8 2101.6Z" fill="white"/>
<path d="M890.884 1312.16L853.521 1354.4L877.792 1375.87L859.508 1396.54L811.865 1354.41L867.512 1291.49L890.884 1312.16Z" fill="white"/>
<path d="M989.966 1176.88L947.717 1139.52L926.253 1163.79L905.578 1145.51L947.71 1097.87L1010.63 1153.51L989.966 1176.88Z" fill="white"/>
<path d="M1002.55 1002.24C1018.73 1016.54 1019.77 1033.48 1011.03 1043.37C1003.08 1052.36 993.158 1049.99 993.158 1049.99L1017.43 1071.46L998.35 1093.03L931.83 1034.21L949.319 1014.43C956.302 1017.4 956.302 1017.4 956.302 1017.4C956.302 1017.4 952.74 1007.84 960.689 998.855C969.434 988.966 986.373 987.927 1002.55 1002.24ZM982.679 1024.71C978.185 1020.73 973.95 1020.99 971.565 1023.69C969.181 1026.39 969.44 1030.62 973.935 1034.6C978.43 1038.57 982.664 1038.31 985.049 1035.61C987.434 1032.92 987.174 1028.68 982.679 1024.71Z" fill="white"/>
<path d="M868.383 1169.37C850.882 1156.71 848.192 1139.95 855.929 1129.26C862.962 1119.53 873.068 1120.92 873.068 1120.92L846.816 1101.93L863.696 1078.59L935.645 1130.64L920.172 1152.03C912.931 1149.76 912.931 1149.76 912.931 1149.76C912.931 1149.76 917.41 1158.92 910.377 1168.64C902.64 1179.34 885.884 1182.03 868.383 1169.37ZM885.966 1145.06C890.828 1148.58 895.017 1147.9 897.127 1144.99C899.237 1142.07 898.564 1137.88 893.703 1134.36C888.841 1130.85 884.652 1131.52 882.542 1134.44C880.432 1137.35 881.105 1141.54 885.966 1145.06Z" fill="white"/>
<path d="M1011.55 1661.24C1027.73 1675.54 1028.77 1692.48 1020.03 1702.37C1012.08 1711.36 1002.16 1708.99 1002.16 1708.99L1026.43 1730.46L1007.35 1752.03L940.83 1693.21L958.319 1673.43C965.302 1676.4 965.302 1676.4 965.302 1676.4C965.302 1676.4 961.74 1666.84 969.689 1657.85C978.434 1647.97 995.373 1646.93 1011.55 1661.24ZM991.679 1683.71C987.185 1679.73 982.95 1679.99 980.565 1682.69C978.181 1685.39 978.44 1689.62 982.935 1693.6C987.43 1697.57 991.664 1697.31 994.049 1694.61C996.434 1691.92 996.174 1687.68 991.679 1683.71Z" fill="white" fill-opacity="0.9"/>
<path d="M952.312 1851.27C958.317 1839.18 968.37 1835.8 975.759 1839.47C982.476 1842.8 982.661 1849.17 982.661 1849.17L991.668 1831.04L1007.79 1839.04L983.103 1888.75L968.325 1881.41C968.983 1876.71 968.983 1876.71 968.983 1876.71C968.983 1876.71 963.794 1880.42 957.077 1877.08C949.688 1873.41 946.307 1863.36 952.312 1851.27ZM969.105 1859.61C967.437 1862.97 968.282 1865.48 970.297 1866.48C972.313 1867.48 974.826 1866.64 976.494 1863.28C978.162 1859.92 977.317 1857.41 975.301 1856.4C973.286 1855.4 970.773 1856.25 969.105 1859.61Z" fill="white"/>
<path d="M851.553 710.236C867.734 724.545 868.773 741.483 860.029 751.371C852.08 760.361 842.158 757.994 842.158 757.994L866.429 779.458L847.35 801.032L780.83 742.206L798.319 722.43C805.302 725.402 805.302 725.402 805.302 725.402C805.302 725.402 801.74 715.844 809.689 706.855C818.434 696.966 835.373 695.927 851.553 710.236ZM831.679 732.709C827.185 728.734 822.95 728.994 820.565 731.691C818.181 734.387 818.44 738.622 822.935 742.597C827.43 746.572 831.664 746.312 834.049 743.615C836.434 740.918 836.174 736.683 831.679 732.709Z" fill="white"/>
<path d="M914.235 1149.2C928.544 1133.02 945.482 1131.98 955.371 1140.73C964.36 1148.68 961.993 1158.6 961.993 1158.6L983.457 1134.33L1005.03 1153.41L946.205 1219.93L926.429 1202.44C929.401 1195.46 929.401 1195.46 929.401 1195.46C929.401 1195.46 919.843 1199.02 910.854 1191.07C900.965 1182.32 899.926 1165.39 914.235 1149.2ZM936.708 1169.08C932.733 1173.57 932.993 1177.81 935.69 1180.19C938.386 1182.58 942.621 1182.32 946.596 1177.82C950.571 1173.33 950.311 1169.09 947.614 1166.71C944.917 1164.32 940.682 1164.58 936.708 1169.08Z" fill="white"/>
<path d="M1041.07 1330.55C1026.76 1346.73 1009.82 1347.77 999.934 1339.03C990.945 1331.08 993.311 1321.16 993.311 1321.16L971.848 1345.43L950.274 1326.35L1009.1 1259.83L1028.88 1277.32C1025.9 1284.3 1025.9 1284.3 1025.9 1284.3C1025.9 1284.3 1035.46 1280.74 1044.45 1288.69C1054.34 1297.43 1055.38 1314.37 1041.07 1330.55ZM1018.6 1310.68C1022.57 1306.19 1022.31 1301.95 1019.61 1299.57C1016.92 1297.18 1012.68 1297.44 1008.71 1301.94C1004.73 1306.43 1004.99 1310.67 1007.69 1313.05C1010.39 1315.43 1014.62 1315.18 1018.6 1310.68Z" fill="white"/>
<path d="M977.07 912.554C962.761 928.735 945.822 929.774 935.934 921.03C926.945 913.081 929.311 903.159 929.311 903.159L907.848 927.43L886.274 908.351L945.1 841.831L964.876 859.32C961.904 866.303 961.904 866.303 961.904 866.303C961.904 866.303 971.462 862.741 980.451 870.69C990.339 879.435 991.379 896.374 977.07 912.554ZM954.597 892.68C958.572 888.186 958.312 883.951 955.615 881.566C952.918 879.181 948.684 879.441 944.709 883.936C940.734 888.431 940.994 892.665 943.691 895.05C946.388 897.435 950.622 897.175 954.597 892.68Z" fill="white"/>
<path d="M892.966 1067.88L850.717 1030.52L829.253 1054.79L808.578 1036.51L850.71 988.866L913.635 1044.51L892.966 1067.88Z" fill="white"/>
<path d="M1009.16 1435.18L1051.4 1472.54L1072.87 1448.27L1093.54 1466.55L1051.41 1514.2L988.486 1458.55L1009.16 1435.18Z" fill="white"/>
<path d="M919.155 637.179L961.404 674.541L982.868 650.271L1003.54 668.554L961.411 716.197L898.486 660.551L919.155 637.179Z" fill="white"/>
<path d="M857.485 1689.07L876.333 1724.29L896.568 1713.46L905.792 1730.7L866.071 1751.95L837.999 1699.49L857.485 1689.07Z" fill="white" fill-opacity="0.83"/>
<rect x="61" y="2297" width="1318" height="305" fill="white" stroke="black" stroke-width="22"/>
<rect x="128" y="2351" width="1182" height="202" fill="white" stroke="black" stroke-width="22"/>
<line x1="67.7358" y1="2308.81" x2="134.776" y2="2355.75" stroke="black" stroke-width="20"/>
<line x1="69.2642" y1="2595.62" x2="126.116" y2="2555.81" stroke="black" stroke-width="20"/>
<line x1="1306.26" y1="2353.75" x2="1373.3" y2="2306.81" stroke="black" stroke-width="20"/>
<line x1="1313.74" y1="2555.81" x2="1368.16" y2="2593.91" stroke="black" stroke-width="20"/>
<path d="M410.2 2380V2430.4H443.8V2380H498.4V2527H443.8V2476.6H410.2V2527H355.6V2380H410.2ZM624.359 2453.5C624.359 2438.8 613.859 2428.3 601.259 2428.3C588.659 2428.3 578.159 2438.8 578.159 2453.5C578.159 2468.2 588.659 2478.7 601.259 2478.7C613.859 2478.7 624.359 2468.2 624.359 2453.5ZM683.159 2453.5C683.159 2496.55 649.559 2530.15 601.259 2530.15C552.959 2530.15 519.359 2496.55 519.359 2453.5C519.359 2410.45 552.959 2376.85 601.259 2376.85C649.559 2376.85 683.159 2410.45 683.159 2453.5ZM691.731 2380H826.131V2428.3H786.231V2527H731.631V2428.3H691.731V2380ZM897.466 2474.5V2485H960.466V2527H842.866V2380H956.266V2422H897.466V2432.5H952.066V2474.5H897.466ZM1034.05 2380V2478.7H1090.75V2527H979.448V2380H1034.05Z" fill="black"/>
<path d="M956.966 1252.88L914.717 1215.52L893.253 1239.79L872.578 1221.51L914.71 1173.87L977.635 1229.51L956.966 1252.88Z" fill="white"/>
<path d="M905.339 1569.3C886.278 1559.14 881.333 1542.91 887.542 1531.26C893.186 1520.67 903.386 1520.67 903.386 1520.67L874.794 1505.43L888.341 1480.01L966.704 1521.78L954.286 1545.08C946.804 1543.81 946.804 1543.81 946.804 1543.81C946.804 1543.81 952.488 1552.28 946.844 1562.87C940.635 1574.52 924.401 1579.46 905.339 1569.3ZM919.45 1542.83C924.745 1545.65 928.804 1544.42 930.497 1541.24C932.19 1538.06 930.954 1534 925.659 1531.18C920.364 1528.36 916.306 1529.6 914.613 1532.77C912.919 1535.95 914.156 1540.01 919.45 1542.83Z" fill="white"/>
<path d="M160.25 2851.45C118.15 2851.45 84.47 2817.77 84.47 2739.88V2622H185.51V2739.88C185.51 2756.72 193.93 2765.14 202.35 2765.14C210.77 2765.14 219.19 2756.72 219.19 2739.88V2622H320.23L320.23 2739.88C320.23 2756.72 328.65 2765.14 337.07 2765.14C345.49 2765.14 353.91 2756.72 353.91 2739.88V2622H454.95L454.95 2845.13H358.12L349.7 2819.87C349.7 2819.87 332.86 2851.45 290.76 2851.45C248.66 2851.45 227.61 2811.45 227.61 2811.45C227.61 2811.45 202.35 2851.45 160.25 2851.45Z" fill="white"/>
<path d="M160.25 2835.55C118.15 2835.55 84.47 2869.23 84.47 2947.12V3065H185.51V2947.12C185.51 2930.28 193.93 2921.86 202.35 2921.86C210.77 2921.86 219.19 2930.28 219.19 2947.12V3065H320.23L320.23 2947.12C320.23 2930.28 328.65 2921.86 337.07 2921.86C345.49 2921.86 353.91 2930.28 353.91 2947.12V3065H454.95L454.95 2841.87H358.12L349.7 2867.13C349.7 2867.13 332.86 2835.55 290.76 2835.55C248.66 2835.55 227.61 2875.55 227.61 2875.55C227.61 2875.55 202.35 2835.55 160.25 2835.55Z" fill="white"/>
<path d="M160.25 3323.45C118.15 3323.45 84.47 3289.77 84.47 3211.88V3094H185.51V3211.88C185.51 3228.72 193.93 3237.14 202.35 3237.14C210.77 3237.14 219.19 3228.72 219.19 3211.88V3094H320.23L320.23 3211.88C320.23 3228.72 328.65 3237.14 337.07 3237.14C345.49 3237.14 353.91 3228.72 353.91 3211.88V3094H454.95L454.95 3317.13H358.12L349.7 3291.87C349.7 3291.87 332.86 3323.45 290.76 3323.45C248.66 3323.45 227.61 3283.45 227.61 3283.45C227.61 3283.45 202.35 3323.45 160.25 3323.45Z" fill="white"/>
<path d="M160.25 3307.55C118.15 3307.55 84.47 3341.23 84.47 3419.12V3537H185.51V3419.12C185.51 3402.28 193.93 3393.86 202.35 3393.86C210.77 3393.86 219.19 3402.28 219.19 3419.12V3537H320.23L320.23 3419.12C320.23 3402.28 328.65 3393.86 337.07 3393.86C345.49 3393.86 353.91 3402.28 353.91 3419.12V3537H454.95L454.95 3313.87H358.12L349.7 3339.13C349.7 3339.13 332.86 3307.55 290.76 3307.55C248.66 3307.55 227.61 3347.55 227.61 3347.55C227.61 3347.55 202.35 3307.55 160.25 3307.55Z" fill="white"/>
<path d="M1275.75 2850.45C1317.85 2850.45 1351.53 2816.77 1351.53 2738.88V2621L1250.49 2621V2738.88C1250.49 2755.72 1242.07 2764.14 1233.65 2764.14C1225.23 2764.14 1216.81 2755.72 1216.81 2738.88V2621H1115.77V2738.88C1115.77 2755.72 1107.35 2764.14 1098.93 2764.14C1090.51 2764.14 1082.09 2755.72 1082.09 2738.88V2621H981.05V2844.13H1077.88L1086.3 2818.87C1086.3 2818.87 1103.14 2850.45 1145.24 2850.45C1187.34 2850.45 1208.39 2810.45 1208.39 2810.45C1208.39 2810.45 1233.65 2850.45 1275.75 2850.45Z" fill="white"/>
<path d="M1275.75 2834.55C1317.85 2834.55 1351.53 2868.23 1351.53 2946.12V3064L1250.49 3064V2946.12C1250.49 2929.28 1242.07 2920.86 1233.65 2920.86C1225.23 2920.86 1216.81 2929.28 1216.81 2946.12V3064H1115.77V2946.12C1115.77 2929.28 1107.35 2920.86 1098.93 2920.86C1090.51 2920.86 1082.09 2929.28 1082.09 2946.12V3064H981.05V2840.87H1077.88L1086.3 2866.13C1086.3 2866.13 1103.14 2834.55 1145.24 2834.55C1187.34 2834.55 1208.39 2874.55 1208.39 2874.55C1208.39 2874.55 1233.65 2834.55 1275.75 2834.55Z" fill="white"/>
<path d="M1275.75 3323.45C1317.85 3323.45 1351.53 3289.77 1351.53 3211.88V3094L1250.49 3094V3211.88C1250.49 3228.72 1242.07 3237.14 1233.65 3237.14C1225.23 3237.14 1216.81 3228.72 1216.81 3211.88V3094H1115.77V3211.88C1115.77 3228.72 1107.35 3237.14 1098.93 3237.14C1090.51 3237.14 1082.09 3228.72 1082.09 3211.88V3094H981.05V3317.13H1077.88L1086.3 3291.87C1086.3 3291.87 1103.14 3323.45 1145.24 3323.45C1187.34 3323.45 1208.39 3283.45 1208.39 3283.45C1208.39 3283.45 1233.65 3323.45 1275.75 3323.45Z" fill="white"/>
<path d="M1275.75 3307.55C1317.85 3307.55 1351.53 3341.23 1351.53 3419.12V3537L1250.49 3537V3419.12C1250.49 3402.28 1242.07 3393.86 1233.65 3393.86C1225.23 3393.86 1216.81 3402.28 1216.81 3419.12V3537H1115.77V3419.12C1115.77 3402.28 1107.35 3393.86 1098.93 3393.86C1090.51 3393.86 1082.09 3402.28 1082.09 3419.12V3537H981.05V3313.87H1077.88L1086.3 3339.13C1086.3 3339.13 1103.14 3307.55 1145.24 3307.55C1187.34 3307.55 1208.39 3347.55 1208.39 3347.55C1208.39 3347.55 1233.65 3307.55 1275.75 3307.55Z" fill="white"/>
<rect x="556.5" y="2849.5" width="331" height="680" fill="white" stroke="black" stroke-width="15"/>
<path d="M630 3188H672L648 3248H616L630 3188Z" fill="black"/>
<path d="M543.5 2670L548 2696L551 2670H576L564 2723H540L534 2696L528 2723H504L492 2670H517L520 2696L524.5 2670H543.5ZM606.008 2668.5C621.508 2668.5 634.008 2681 634.008 2696.5C634.008 2696.9 634.008 2701.1 634.008 2701.5H602.008C602.008 2701.5 603.008 2707 611.008 2707C616.008 2707 620.008 2703 620.008 2703L628.508 2716.5C628.508 2716.5 621.008 2724.5 607.508 2724.5C590.508 2724.5 578.008 2712 578.008 2696.5C578.008 2681 590.508 2668.5 606.008 2668.5ZM601.508 2692H610.508C610.508 2688 608.508 2686 606.008 2686C603.508 2686 601.508 2688 601.508 2692ZM641.043 2723V2649H665.043V2723H641.043ZM698.027 2696.5C698.027 2701 701.027 2704 706.027 2704C711.027 2704 715.027 2700 715.027 2700L725.027 2716C725.027 2716 717.027 2724.5 702.527 2724.5C685.527 2724.5 673.027 2712 673.027 2696.5C673.027 2681 685.527 2668.5 702.527 2668.5C717.027 2668.5 725.027 2677 725.027 2677L715.027 2693C715.027 2693 711.027 2689 706.027 2689C701.027 2689 698.027 2692 698.027 2696.5ZM728.984 2696.5C728.984 2681 741.484 2668.5 759.484 2668.5C777.484 2668.5 789.984 2681 789.984 2696.5C789.984 2712 777.484 2724.5 759.484 2724.5C741.484 2724.5 728.984 2712 728.984 2696.5ZM765.984 2696.5C765.984 2692 762.984 2689 759.484 2689C755.984 2689 752.984 2692 752.984 2696.5C752.984 2701 755.984 2704 759.484 2704C762.984 2704 765.984 2701 765.984 2696.5ZM867.977 2668.5C877.977 2668.5 885.977 2676.5 885.977 2695V2723H861.977V2695C861.977 2691 859.977 2689 857.977 2689C855.977 2689 853.977 2691 853.977 2695V2723H829.977V2695C829.977 2691 827.977 2689 825.977 2689C823.977 2689 821.977 2691 821.977 2695V2723H797.977V2670H820.977L822.977 2676C822.977 2676 826.977 2668.5 836.977 2668.5C846.977 2668.5 851.977 2678 851.977 2678C851.977 2678 857.977 2668.5 867.977 2668.5ZM920.949 2668.5C936.449 2668.5 948.949 2681 948.949 2696.5C948.949 2696.9 948.949 2701.1 948.949 2701.5H916.949C916.949 2701.5 917.949 2707 925.949 2707C930.949 2707 934.949 2703 934.949 2703L943.449 2716.5C943.449 2716.5 935.949 2724.5 922.449 2724.5C905.449 2724.5 892.949 2712 892.949 2696.5C892.949 2681 905.449 2668.5 920.949 2668.5ZM916.449 2692H925.449C925.449 2688 923.449 2686 920.949 2686C918.449 2686 916.449 2688 916.449 2692Z" fill="white"/>
</g>
<defs>
<linearGradient id="paint0_linear_26_9082" x1="721.5" y1="0" x2="721.5" y2="816" gradientUnits="userSpaceOnUse">
<stop stop-color="white"/>
<stop offset="1" stop-color="white" stop-opacity="0"/>
</linearGradient>
<linearGradient id="paint1_linear_26_9082" x1="721.5" y1="1144" x2="721.5" y2="2372" gradientUnits="userSpaceOnUse">
<stop stop-color="white"/>
<stop offset="1" stop-color="white" stop-opacity="0"/>
</linearGradient>
<clipPath id="clip0_26_9082">
<rect width="1440" height="3556" fill="white"/>
</clipPath>
</defs>
</svg>
