<svg width="1312" height="1726" viewBox="0 0 1312 1726" fill="none" xmlns="http://www.w3.org/2000/svg">
<path d="M500 1544L707 1563.32V1726H500V1544Z" fill="#D9D9D9"/>
<rect x="895" width="122" height="237" fill="white"/>
<path d="M941 225L830.5 245.5L1040.5 281.5L1016.5 234L941 225Z" fill="white"/>
<path d="M205.586 762.152L416.056 802.534L205.499 880.152L0.0293674 838.7L205.586 762.152Z" fill="white"/>
<path d="M1127.36 1193.64L1308.5 1224.5L1127.36 1310.5L924.784 1277.75L1127.36 1193.64Z" fill="white"/>
<path d="M924 162.5L972 165V270L924 266V162.5ZM924 150V111L972 115V153L924 150Z" fill="black"/>
<path d="M817.5 260L1035 294.5L995.5 310.5L785 272L817.5 260Z" fill="white"/>
<path d="M919.5 276L971 283.5L936 300L882.5 290L919.5 276Z" fill="black"/>
<path d="M785.578 295.7L995.498 333.5L962.998 346L752.827 306.997L785.578 295.7Z" fill="white"/>
<path d="M745.492 328.7L955.412 366.5L922.912 379L712.742 339.997L745.492 328.7Z" fill="white"/>
<path d="M705.492 360.7L915.412 398.5L882.912 411L672.742 371.997L705.492 360.7Z" fill="white"/>
<path d="M661.492 393.7L871.412 431.5L838.912 444L628.742 404.997L661.492 393.7Z" fill="white"/>
<path d="M619.492 427.7L829.412 465.5L796.912 478L586.742 438.997L619.492 427.7Z" fill="white"/>
<path d="M577.492 460.7L787.412 498.5L754.912 511L544.742 471.997L577.492 460.7Z" fill="white"/>
<path d="M534.492 494.7L744.412 532.5L711.912 545L501.742 505.997L534.492 494.7Z" fill="white"/>
<path d="M491.492 527.7L701.412 565.5L668.912 578L458.742 538.997L491.492 527.7Z" fill="white"/>
<path d="M409.492 594.7L619.412 632.5L586.912 645L376.742 605.997L409.492 594.7Z" fill="white"/>
<path d="M452.492 561.7L662.412 599.5L629.912 612L419.742 572.997L452.492 561.7Z" fill="white"/>
<path d="M661.492 393.7L871.412 431.5L838.912 444L628.742 404.997L661.492 393.7Z" fill="white"/>
<path d="M871 310L922.5 317.5L887.5 334L834 324L871 310Z" fill="black"/>
<path d="M825 342L876.5 349.5L841.5 366L788 356L825 342Z" fill="black"/>
<path d="M783 373L834.5 380.5L799.5 397L746 387L783 373Z" fill="black"/>
<path d="M619.492 427.7L829.412 465.5L796.912 478L586.742 438.997L619.492 427.7Z" fill="white"/>
<path d="M577.492 460.7L787.412 498.5L754.912 511L544.742 471.997L577.492 460.7Z" fill="white"/>
<path d="M534.492 494.7L744.412 532.5L711.912 545L501.742 505.997L534.492 494.7Z" fill="white"/>
<path d="M491.492 527.7L701.412 565.5L668.912 578L458.742 538.997L491.492 527.7Z" fill="white"/>
<path d="M370.492 628.7L580.412 666.5L547.912 679L337.742 639.997L370.492 628.7Z" fill="white"/>
<path d="M328.492 661.7L538.412 699.5L505.912 712L295.742 672.997L328.492 661.7Z" fill="white"/>
<path d="M285.492 695.7L495.412 733.5L462.912 746L252.742 706.997L285.492 695.7Z" fill="white"/>
<path d="M242.492 728.7L452.412 766.5L419.912 779L209.742 739.997L242.492 728.7Z" fill="white"/>
<path d="M370.492 628.7L580.412 666.5L547.912 679L337.742 639.997L370.492 628.7Z" fill="white"/>
<path d="M328.492 661.7L538.412 699.5L505.912 712L295.742 672.997L328.492 661.7Z" fill="white"/>
<path d="M285.492 695.7L495.412 733.5L462.912 746L252.742 706.997L285.492 695.7Z" fill="white"/>
<path d="M906.716 1299.03L1116.5 1337.6L1083.95 1349.98L873.924 1310.2L906.716 1299.03Z" fill="white"/>
<path d="M864.595 1331.87L1074.38 1370.44L1041.83 1382.82L831.803 1343.05L864.595 1331.87Z" fill="white"/>
<path d="M824.662 1365.82L1034.44 1404.39L1001.9 1416.77L791.87 1377L824.662 1365.82Z" fill="white"/>
<path d="M785.662 1397.82L995.441 1436.39L962.896 1448.77L752.87 1409L785.662 1397.82Z" fill="white"/>
<path d="M747.662 1431.82L957.441 1470.39L924.896 1482.77L714.87 1443L747.662 1431.82Z" fill="white"/>
<path d="M242.492 728.7L452.412 766.5L419.912 779L209.742 739.997L242.492 728.7Z" fill="white"/>
<path d="M452.492 561.7L662.412 599.5L629.912 612L419.742 572.997L452.492 561.7Z" fill="white"/>
<path d="M415.734 827.608L216.146 905.234L257.005 912.694L449.11 832.618L415.734 827.608Z" fill="white"/>
<path d="M465.243 852.092L273.873 931.684L307.34 937.308L498.696 856.488L465.243 852.092Z" fill="white"/>
<path d="M510.2 876.221L318.83 955.814L352.297 961.437L543.653 880.618L510.2 876.221Z" fill="white"/>
<path d="M554.864 899.39L363.494 978.983L396.961 984.606L588.317 903.787L554.864 899.39Z" fill="white"/>
<path d="M603.54 922.726L412.17 1002.32L445.637 1007.94L636.993 927.122L603.54 922.726Z" fill="white"/>
<path d="M650.524 947.444L459.154 1027.04L492.621 1032.66L683.978 951.841L650.524 947.444Z" fill="white"/>
<path d="M697.293 971.185L505.923 1050.78L539.391 1056.4L730.747 975.582L697.293 971.185Z" fill="white"/>
<path d="M735 405L786.5 412.5L751.5 429L698 419L735 405Z" fill="black"/>
<path d="M651 471L702.5 478.5L667.5 495L614 485L651 471Z" fill="black"/>
<path d="M602 505L653.5 512.5L618.5 529L565 519L602 505Z" fill="black"/>
<path d="M745.227 995.701L553.857 1075.29L587.324 1080.92L778.681 1000.1L745.227 995.701Z" fill="white"/>
<path d="M792.95 1019.24L601.58 1098.83L635.047 1104.45L826.403 1023.64L792.95 1019.24Z" fill="white"/>
<path d="M837.086 1044.57L645.716 1124.16L679.184 1129.78L870.54 1048.96L837.086 1044.57Z" fill="white"/>
<path d="M603.54 922.726L412.17 1002.32L445.637 1007.94L636.993 927.122L603.54 922.726Z" fill="white"/>
<path d="M650.524 947.444L459.154 1027.04L492.621 1032.66L683.978 951.841L650.524 947.444Z" fill="white"/>
<path d="M697.293 971.185L505.923 1050.78L539.391 1056.4L730.747 975.582L697.293 971.185Z" fill="white"/>
<path d="M745.227 995.701L553.857 1075.29L587.324 1080.92L778.681 1000.1L745.227 995.701Z" fill="white"/>
<path d="M881.008 1069.28L689.638 1148.88L723.105 1154.5L914.462 1073.68L881.008 1069.28Z" fill="white"/>
<path d="M927.782 1093.02L736.412 1172.62L769.879 1178.24L961.235 1097.42L927.782 1093.02Z" fill="white"/>
<path d="M975.711 1117.54L784.341 1197.13L817.809 1202.76L1009.17 1121.94L975.711 1117.54Z" fill="white"/>
<path d="M881.008 1069.28L689.638 1148.88L723.105 1154.5L914.462 1073.68L881.008 1069.28Z" fill="white"/>
<path d="M927.782 1093.02L736.412 1172.62L769.879 1178.24L961.235 1097.42L927.782 1093.02Z" fill="white"/>
<path d="M975.711 1117.54L784.341 1197.13L817.809 1202.76L1009.17 1121.94L975.711 1117.54Z" fill="white"/>
<path d="M1024.01 1143.28L832.638 1222.88L866.105 1228.5L1057.46 1147.68L1024.01 1143.28Z" fill="white"/>
<path d="M1071.94 1167.8L880.572 1247.39L914.039 1253.01L1105.4 1172.19L1071.94 1167.8Z" fill="white"/>
<path d="M1024.01 1143.28L832.638 1222.88L866.105 1228.5L1057.46 1147.68L1024.01 1143.28Z" fill="white"/>
<path d="M1071.94 1167.8L880.572 1247.39L914.039 1253.01L1105.4 1172.19L1071.94 1167.8Z" fill="white"/>
<path d="M792.95 1019.24L601.58 1098.83L635.047 1104.45L826.403 1023.64L792.95 1019.24Z" fill="white"/>
<path d="M837.086 1044.57L645.716 1124.16L679.184 1129.78L870.54 1048.96L837.086 1044.57Z" fill="white"/>
<path d="M696.154 1468.41L907.001 1508.5L707.534 1593.07L500.195 1544.53L696.154 1468.41Z" fill="white"/>
</svg>
