<svg width="1440" height="3228" viewBox="0 0 1440 3228" fill="none" xmlns="http://www.w3.org/2000/svg">
<rect width="1440" height="1283" fill="url(#paint0_linear_32_9264)"/>
<rect y="1193" width="1440" height="2035" fill="url(#paint1_linear_32_9264)"/>
<rect y="161.5" width="1452" height="66" fill="black"/>
<rect x="192" y="101" width="1053" height="191" fill="black"/>
<path d="M348.5 899C371 899 384.5 885.5 384.5 872C384.5 827 141.5 827 141.5 629C141.5 525.5 240.5 426.5 398 426.5C560 426.5 641 525.5 641 525.5L555.5 660.5C555.5 660.5 501.5 611 438.5 611C416 611 402.5 624.5 402.5 638C402.5 683 645.5 683 645.5 881C645.5 984.5 546.5 1083.5 389 1083.5C191 1083.5 110 975.5 110 975.5L195.5 840.5C195.5 840.5 258.5 899 348.5 899Z" fill="#D9D9D9"/>
<path d="M641 525.5L648.603 530.315L652.079 524.828L647.966 519.801L641 525.5ZM555.5 660.5L549.418 667.134L557.348 674.403L563.103 665.315L555.5 660.5ZM110 975.5L102.397 970.685L99.0736 975.931L102.8 980.9L110 975.5ZM195.5 840.5L201.624 833.905L193.69 826.537L187.897 835.685L195.5 840.5ZM348.5 908C374.198 908 393.5 892.075 393.5 872H375.5C375.5 878.925 367.802 890 348.5 890V908ZM393.5 872C393.5 861.851 386.577 854.583 379.251 849.409C371.713 844.084 361.397 839.299 349.971 834.574C326.486 824.861 297.04 814.833 267.025 799.825C237.248 784.937 208.149 765.682 186.503 738.558C165.002 711.615 150.5 676.472 150.5 629H132.5C132.5 680.528 148.373 719.635 172.434 749.786C196.351 779.756 228.002 800.438 258.975 815.925C289.71 831.292 321.014 842.077 343.092 851.207C354.447 855.904 363.115 860.049 368.866 864.111C374.83 868.323 375.5 870.899 375.5 872H393.5ZM150.5 629C150.5 531.804 244.023 435.5 398 435.5V417.5C236.977 417.5 132.5 519.196 132.5 629H150.5ZM398 435.5C477.077 435.5 536.224 459.643 575.557 483.68C595.241 495.709 609.969 507.717 619.731 516.666C624.61 521.138 628.244 524.842 630.629 527.393C631.822 528.669 632.702 529.655 633.27 530.306C633.554 530.631 633.759 530.872 633.887 531.023C633.951 531.099 633.995 531.151 634.019 531.181C634.032 531.196 634.039 531.205 634.042 531.208C634.043 531.209 634.043 531.209 634.042 531.208C634.041 531.207 634.039 531.205 634.039 531.205C634.037 531.202 634.034 531.199 641 525.5C647.966 519.801 647.963 519.797 647.959 519.793C647.958 519.791 647.954 519.787 647.951 519.783C647.945 519.775 647.937 519.767 647.929 519.756C647.912 519.735 647.889 519.708 647.862 519.675C647.808 519.61 647.733 519.521 647.639 519.409C647.45 519.185 647.181 518.87 646.832 518.47C646.134 517.671 645.116 516.531 643.777 515.099C641.1 512.236 637.14 508.205 631.894 503.397C621.406 493.783 605.759 481.041 584.943 468.32C543.276 442.857 480.923 417.5 398 417.5V435.5ZM633.397 520.685L547.897 655.685L563.103 665.315L648.603 530.315L633.397 520.685ZM555.5 660.5C561.582 653.866 561.579 653.864 561.577 653.862C561.576 653.861 561.574 653.858 561.571 653.856C561.567 653.853 561.562 653.848 561.556 653.843C561.545 653.832 561.53 653.818 561.512 653.802C561.475 653.769 561.425 653.724 561.363 653.667C561.238 653.555 561.06 653.396 560.833 653.196C560.377 652.794 559.719 652.221 558.87 651.503C557.172 650.066 554.705 648.041 551.557 645.626C545.27 640.801 536.226 634.383 525.134 627.961C503.097 615.203 472.239 602 438.5 602V620C467.761 620 495.403 631.547 516.116 643.539C526.399 649.492 534.792 655.449 540.599 659.905C543.498 662.131 545.742 663.973 547.243 665.244C547.993 665.878 548.557 666.369 548.924 666.693C549.107 666.854 549.24 666.974 549.323 667.049C549.365 667.086 549.394 667.112 549.41 667.126C549.418 667.134 549.422 667.138 549.424 667.139C549.425 667.14 549.424 667.14 549.424 667.139C549.423 667.139 549.422 667.137 549.422 667.137C549.42 667.136 549.418 667.134 555.5 660.5ZM438.5 602C412.802 602 393.5 617.925 393.5 638H411.5C411.5 631.075 419.198 620 438.5 620V602ZM393.5 638C393.5 648.149 400.423 655.417 407.749 660.591C415.287 665.916 425.603 670.701 437.029 675.426C460.514 685.139 489.96 695.167 519.975 710.175C549.752 725.063 578.851 744.318 600.497 771.442C621.998 798.385 636.5 833.528 636.5 881H654.5C654.5 829.472 638.627 790.365 614.566 760.214C590.649 730.244 558.998 709.562 528.025 694.075C497.29 678.708 465.986 667.923 443.908 658.793C432.553 654.096 423.885 649.951 418.134 645.889C412.17 641.677 411.5 639.101 411.5 638H393.5ZM636.5 881C636.5 978.196 542.977 1074.5 389 1074.5V1092.5C550.023 1092.5 654.5 990.804 654.5 881H636.5ZM389 1074.5C291.73 1074.5 223.569 1048 179.88 1021.78C158.005 1008.66 142.209 995.57 131.94 985.841C126.805 980.977 123.055 976.955 120.62 974.191C119.403 972.81 118.515 971.743 117.948 971.043C117.664 970.694 117.461 970.436 117.336 970.276C117.274 970.197 117.232 970.142 117.209 970.112C117.198 970.097 117.191 970.089 117.19 970.087C117.189 970.086 117.19 970.086 117.191 970.088C117.192 970.09 117.194 970.092 117.195 970.093C117.197 970.096 117.2 970.1 110 975.5C102.8 980.9 102.803 980.905 102.807 980.909C102.809 980.912 102.813 980.917 102.816 980.921C102.823 980.93 102.831 980.941 102.84 980.953C102.858 980.977 102.881 981.008 102.91 981.045C102.966 981.119 103.043 981.219 103.14 981.343C103.335 981.592 103.61 981.941 103.968 982.382C104.684 983.265 105.73 984.519 107.114 986.09C109.882 989.232 114.007 993.648 119.56 998.909C130.666 1009.43 147.495 1023.34 170.62 1037.22C216.931 1065 288.27 1092.5 389 1092.5V1074.5ZM117.603 980.315L203.103 845.315L187.897 835.685L102.397 970.685L117.603 980.315ZM195.5 840.5C189.376 847.095 189.378 847.097 189.381 847.1C189.383 847.101 189.386 847.104 189.388 847.106C189.393 847.111 189.399 847.116 189.406 847.123C189.42 847.136 189.438 847.152 189.459 847.172C189.502 847.211 189.561 847.265 189.635 847.332C189.782 847.466 189.991 847.654 190.26 847.892C190.797 848.368 191.575 849.046 192.584 849.896C194.601 851.596 197.547 853.988 201.35 856.841C208.951 862.542 220.01 870.106 233.963 877.664C261.822 892.754 301.557 908 348.5 908V890C305.443 890 268.678 875.996 242.537 861.836C229.49 854.769 219.174 847.708 212.15 842.441C208.641 839.809 205.961 837.63 204.182 836.131C203.293 835.382 202.629 834.802 202.199 834.422C201.985 834.232 201.829 834.091 201.732 834.004C201.684 833.96 201.651 833.93 201.633 833.913C201.624 833.905 201.619 833.9 201.617 833.898C201.616 833.898 201.617 833.898 201.618 833.899C201.618 833.9 201.62 833.901 201.62 833.901C201.622 833.903 201.624 833.905 195.5 840.5Z" fill="black"/>
<line x1="219" y1="421.5" x2="580" y2="421.5" stroke="black" stroke-width="7"/>
<line x1="94" y1="1092.5" x2="595" y2="1092.5" stroke="black" stroke-width="7"/>
<line x1="97.5" y1="1096" x2="97.5" y2="857" stroke="black" stroke-width="7"/>
<circle cx="385.5" cy="1090.5" r="10.5" fill="white" stroke="#E35555" stroke-width="4"/>
<circle cx="101.5" cy="976.5" r="10.5" fill="white" stroke="#E35555" stroke-width="4"/>
<circle cx="392.5" cy="424.5" r="10.5" fill="white" stroke="#E35555" stroke-width="4"/>
<circle cx="580.5" cy="421.5" r="11.5" fill="white" stroke="black" stroke-width="2"/>
<circle cx="595.5" cy="1095.5" r="11.5" fill="white" stroke="black" stroke-width="2"/>
<circle cx="98.5" cy="1090.5" r="11.5" fill="white" stroke="black" stroke-width="2"/>
<circle cx="222.5" cy="421.5" r="11.5" fill="white" stroke="black" stroke-width="2"/>
<circle cx="98.5" cy="856.5" r="11.5" fill="white" stroke="black" stroke-width="2"/>
<rect x="359" y="392" width="66" height="66" rx="18" stroke="#E35555" stroke-width="4"/>
<rect x="68" y="944" width="66" height="66" rx="18" stroke="#E35555" stroke-width="4"/>
<rect x="352" y="1058" width="66" height="66" rx="18" stroke="#E35555" stroke-width="4"/>
<circle cx="385.5" cy="1090.5" r="10.5" fill="white" stroke="#E35555" stroke-width="4"/>
<circle cx="385.5" cy="1090.5" r="10.5" fill="white" stroke="#E35555" stroke-width="4"/>
<rect x="41.5" y="376.5" width="689" height="779" stroke="url(#paint2_linear_32_9264)" stroke-width="5" stroke-linecap="square" stroke-linejoin="bevel" stroke-dasharray="15 15"/>
<rect x="842.5" y="556.5" width="556" height="380" stroke="black" stroke-width="5" stroke-linecap="square" stroke-linejoin="bevel"/>
<path d="M222.4 1385.35C267.25 1385.35 304.3 1360 304.3 1360V1385.35C304.3 1385.35 273.1 1426.3 222.4 1426.3C171.7 1426.3 140.5 1385.35 140.5 1385.35V1360C140.5 1360 177.55 1385.35 222.4 1385.35Z" fill="black"/>
<path d="M222.4 1324.65C267.25 1324.65 304.3 1350 304.3 1350V1324.65C304.3 1324.65 273.1 1283.7 222.4 1283.7C171.7 1283.7 140.5 1324.65 140.5 1324.65V1350C140.5 1350 177.55 1324.65 222.4 1324.65Z" fill="black"/>
<path d="M193.227 1353.5C193.227 1338 205.727 1325.5 223.727 1325.5C241.727 1325.5 254.227 1338 254.227 1353.5C254.227 1369 241.727 1381.5 223.727 1381.5C205.727 1381.5 193.227 1369 193.227 1353.5ZM230.227 1353.5C230.227 1349 227.227 1346 223.727 1346C220.227 1346 217.227 1349 217.227 1353.5C217.227 1358 220.227 1361 223.727 1361C227.227 1361 230.227 1358 230.227 1353.5Z" fill="black"/>
<path d="M475.623 1385.35C520.473 1385.35 557.523 1360 557.523 1360V1385.35C557.523 1385.35 526.323 1426.3 475.623 1426.3C424.923 1426.3 393.723 1385.35 393.723 1385.35V1360C393.723 1360 430.773 1385.35 475.623 1385.35Z" fill="black"/>
<path d="M475.623 1324.65C520.473 1324.65 557.523 1350 557.523 1350V1324.65C557.523 1324.65 526.323 1283.7 475.623 1283.7C424.923 1283.7 393.723 1324.65 393.723 1324.65V1350C393.723 1350 430.773 1324.65 475.623 1324.65Z" fill="black"/>
<path d="M432.547 1355.5C432.547 1340 445.047 1327.5 463.047 1327.5C481.047 1327.5 493.547 1340 493.547 1355.5C493.547 1371 481.047 1383.5 463.047 1383.5C445.047 1383.5 432.547 1371 432.547 1355.5ZM469.547 1355.5C469.547 1351 466.547 1348 463.047 1348C459.547 1348 456.547 1351 456.547 1355.5C456.547 1360 459.547 1363 463.047 1363C466.547 1363 469.547 1360 469.547 1355.5Z" fill="black"/>
<path d="M728.845 1385.35C773.695 1385.35 810.745 1360 810.745 1360V1385.35C810.745 1385.35 779.545 1426.3 728.845 1426.3C678.145 1426.3 646.945 1385.35 646.945 1385.35V1360C646.945 1360 683.995 1385.35 728.845 1385.35Z" fill="black"/>
<path d="M728.845 1324.65C773.695 1324.65 810.745 1350 810.745 1350V1324.65C810.745 1324.65 779.545 1283.7 728.845 1283.7C678.145 1283.7 646.945 1324.65 646.945 1324.65V1350C646.945 1350 683.995 1324.65 728.845 1324.65Z" fill="black"/>
<path d="M699.672 1353.5C699.672 1338 712.172 1325.5 730.172 1325.5C748.172 1325.5 760.672 1338 760.672 1353.5C760.672 1369 748.172 1381.5 730.172 1381.5C712.172 1381.5 699.672 1369 699.672 1353.5ZM736.672 1353.5C736.672 1349 733.672 1346 730.172 1346C726.672 1346 723.672 1349 723.672 1353.5C723.672 1358 726.672 1361 730.172 1361C733.672 1361 736.672 1358 736.672 1353.5Z" fill="black"/>
<path d="M982.068 1385.35C1026.92 1385.35 1063.97 1360 1063.97 1360V1385.35C1063.97 1385.35 1032.77 1426.3 982.068 1426.3C931.368 1426.3 900.168 1385.35 900.168 1385.35V1360C900.168 1360 937.218 1385.35 982.068 1385.35Z" fill="black"/>
<path d="M982.068 1324.65C1026.92 1324.65 1063.97 1350 1063.97 1350V1324.65C1063.97 1324.65 1032.77 1283.7 982.068 1283.7C931.368 1283.7 900.168 1324.65 900.168 1324.65V1350C900.168 1350 937.218 1324.65 982.068 1324.65Z" fill="black"/>
<path d="M965.801 1353.5C965.801 1338 978.301 1325.5 996.301 1325.5C1014.3 1325.5 1026.8 1338 1026.8 1353.5C1026.8 1369 1014.3 1381.5 996.301 1381.5C978.301 1381.5 965.801 1369 965.801 1353.5ZM1002.8 1353.5C1002.8 1349 999.801 1346 996.301 1346C992.801 1346 989.801 1349 989.801 1353.5C989.801 1358 992.801 1361 996.301 1361C999.801 1361 1002.8 1358 1002.8 1353.5Z" fill="black"/>
<path d="M1235.29 1385.35C1280.14 1385.35 1317.19 1360 1317.19 1360V1385.35C1317.19 1385.35 1285.99 1426.3 1235.29 1426.3C1184.59 1426.3 1153.39 1385.35 1153.39 1385.35V1360C1153.39 1360 1190.44 1385.35 1235.29 1385.35Z" fill="black"/>
<path d="M1235.29 1324.65C1280.14 1324.65 1317.19 1350 1317.19 1350V1324.65C1317.19 1324.65 1285.99 1283.7 1235.29 1283.7C1184.59 1283.7 1153.39 1324.65 1153.39 1324.65V1350C1153.39 1350 1190.44 1324.65 1235.29 1324.65Z" fill="black"/>
<path d="M1224.98 1353.5C1224.98 1338 1237.48 1325.5 1255.48 1325.5C1273.48 1325.5 1285.98 1338 1285.98 1353.5C1285.98 1369 1273.48 1381.5 1255.48 1381.5C1237.48 1381.5 1224.98 1369 1224.98 1353.5ZM1261.98 1353.5C1261.98 1349 1258.98 1346 1255.48 1346C1251.98 1346 1248.98 1349 1248.98 1353.5C1248.98 1358 1251.98 1361 1255.48 1361C1258.98 1361 1261.98 1358 1261.98 1353.5Z" fill="black"/>
<path d="M222.4 1563.35C267.25 1563.35 304.3 1538 304.3 1538V1563.35C304.3 1563.35 273.1 1604.3 222.4 1604.3C171.7 1604.3 140.5 1563.35 140.5 1563.35V1538C140.5 1538 177.55 1563.35 222.4 1563.35Z" fill="black"/>
<path d="M222.4 1502.65C267.25 1502.65 304.3 1528 304.3 1528V1502.65C304.3 1502.65 273.1 1461.7 222.4 1461.7C171.7 1461.7 140.5 1502.65 140.5 1502.65V1528C140.5 1528 177.55 1502.65 222.4 1502.65Z" fill="black"/>
<path d="M206 1533.5C206 1518 218.5 1505.5 236.5 1505.5C254.5 1505.5 267 1518 267 1533.5C267 1549 254.5 1561.5 236.5 1561.5C218.5 1561.5 206 1549 206 1533.5ZM243 1533.5C243 1529 240 1526 236.5 1526C233 1526 230 1529 230 1533.5C230 1538 233 1541 236.5 1541C240 1541 243 1538 243 1533.5Z" fill="black"/>
<path d="M475.623 1563.35C520.473 1563.35 557.523 1538 557.523 1538V1563.35C557.523 1563.35 526.323 1604.3 475.623 1604.3C424.923 1604.3 393.723 1563.35 393.723 1563.35V1538C393.723 1538 430.773 1563.35 475.623 1563.35Z" fill="black"/>
<path d="M475.623 1502.65C520.473 1502.65 557.523 1528 557.523 1528V1502.65C557.523 1502.65 526.323 1461.7 475.623 1461.7C424.923 1461.7 393.723 1502.65 393.723 1502.65V1528C393.723 1528 430.773 1502.65 475.623 1502.65Z" fill="black"/>
<path d="M458 1531.5C458 1516 470.5 1503.5 488.5 1503.5C506.5 1503.5 519 1516 519 1531.5C519 1547 506.5 1559.5 488.5 1559.5C470.5 1559.5 458 1547 458 1531.5ZM495 1531.5C495 1527 492 1524 488.5 1524C485 1524 482 1527 482 1531.5C482 1536 485 1539 488.5 1539C492 1539 495 1536 495 1531.5Z" fill="black"/>
<path d="M728.845 1563.35C773.695 1563.35 810.745 1538 810.745 1538V1563.35C810.745 1563.35 779.545 1604.3 728.845 1604.3C678.145 1604.3 646.945 1563.35 646.945 1563.35V1538C646.945 1538 683.995 1563.35 728.845 1563.35Z" fill="black"/>
<path d="M728.845 1502.65C773.695 1502.65 810.745 1528 810.745 1528V1502.65C810.745 1502.65 779.545 1461.7 728.845 1461.7C678.145 1461.7 646.945 1502.65 646.945 1502.65V1528C646.945 1528 683.995 1502.65 728.845 1502.65Z" fill="black"/>
<path d="M679 1531.5C679 1516 691.5 1503.5 709.5 1503.5C727.5 1503.5 740 1516 740 1531.5C740 1547 727.5 1559.5 709.5 1559.5C691.5 1559.5 679 1547 679 1531.5ZM716 1531.5C716 1527 713 1524 709.5 1524C706 1524 703 1527 703 1531.5C703 1536 706 1539 709.5 1539C713 1539 716 1536 716 1531.5Z" fill="black"/>
<path d="M982.068 1563.35C1026.92 1563.35 1063.97 1538 1063.97 1538V1563.35C1063.97 1563.35 1032.77 1604.3 982.068 1604.3C931.368 1604.3 900.168 1563.35 900.168 1563.35V1538C900.168 1538 937.218 1563.35 982.068 1563.35Z" fill="black"/>
<path d="M982.068 1502.65C1026.92 1502.65 1063.97 1528 1063.97 1528V1502.65C1063.97 1502.65 1032.77 1461.7 982.068 1461.7C931.368 1461.7 900.168 1502.65 900.168 1502.65V1528C900.168 1528 937.218 1502.65 982.068 1502.65Z" fill="black"/>
<path d="M944 1531.5C944 1516 956.5 1503.5 974.5 1503.5C992.5 1503.5 1005 1516 1005 1531.5C1005 1547 992.5 1559.5 974.5 1559.5C956.5 1559.5 944 1547 944 1531.5ZM981 1531.5C981 1527 978 1524 974.5 1524C971 1524 968 1527 968 1531.5C968 1536 971 1539 974.5 1539C978 1539 981 1536 981 1531.5Z" fill="black"/>
<path d="M1235.29 1563.35C1280.14 1563.35 1317.19 1538 1317.19 1538V1563.35C1317.19 1563.35 1285.99 1604.3 1235.29 1604.3C1184.59 1604.3 1153.39 1563.35 1153.39 1563.35V1538C1153.39 1538 1190.44 1563.35 1235.29 1563.35Z" fill="black"/>
<path d="M1235.29 1502.65C1280.14 1502.65 1317.19 1528 1317.19 1528V1502.65C1317.19 1502.65 1285.99 1461.7 1235.29 1461.7C1184.59 1461.7 1153.39 1502.65 1153.39 1502.65V1528C1153.39 1528 1190.44 1502.65 1235.29 1502.65Z" fill="black"/>
<path d="M1192 1531.5C1192 1516 1204.5 1503.5 1222.5 1503.5C1240.5 1503.5 1253 1516 1253 1531.5C1253 1547 1240.5 1559.5 1222.5 1559.5C1204.5 1559.5 1192 1547 1192 1531.5ZM1229 1531.5C1229 1527 1226 1524 1222.5 1524C1219 1524 1216 1527 1216 1531.5C1216 1536 1219 1539 1222.5 1539C1226 1539 1229 1536 1229 1531.5Z" fill="black"/>
<path d="M222.4 1741.35C267.25 1741.35 304.3 1716 304.3 1716V1741.35C304.3 1741.35 273.1 1782.3 222.4 1782.3C171.7 1782.3 140.5 1741.35 140.5 1741.35V1716C140.5 1716 177.55 1741.35 222.4 1741.35Z" fill="black"/>
<path d="M222.4 1680.65C267.25 1680.65 304.3 1706 304.3 1706V1680.65C304.3 1680.65 273.1 1639.7 222.4 1639.7C171.7 1639.7 140.5 1680.65 140.5 1680.65V1706C140.5 1706 177.55 1680.65 222.4 1680.65Z" fill="black"/>
<path d="M179 1711.5C179 1696 191.5 1683.5 209.5 1683.5C227.5 1683.5 240 1696 240 1711.5C240 1727 227.5 1739.5 209.5 1739.5C191.5 1739.5 179 1727 179 1711.5ZM216 1711.5C216 1707 213 1704 209.5 1704C206 1704 203 1707 203 1711.5C203 1716 206 1719 209.5 1719C213 1719 216 1716 216 1711.5Z" fill="black"/>
<path d="M475.623 1741.35C520.473 1741.35 557.523 1716 557.523 1716V1741.35C557.523 1741.35 526.323 1782.3 475.623 1782.3C424.923 1782.3 393.723 1741.35 393.723 1741.35V1716C393.723 1716 430.773 1741.35 475.623 1741.35Z" fill="black"/>
<path d="M475.623 1680.65C520.473 1680.65 557.523 1706 557.523 1706V1680.65C557.523 1680.65 526.323 1639.7 475.623 1639.7C424.923 1639.7 393.723 1680.65 393.723 1680.65V1706C393.723 1706 430.773 1680.65 475.623 1680.65Z" fill="black"/>
<path d="M432.547 1711.5C432.547 1696 445.047 1683.5 463.047 1683.5C481.047 1683.5 493.547 1696 493.547 1711.5C493.547 1727 481.047 1739.5 463.047 1739.5C445.047 1739.5 432.547 1727 432.547 1711.5ZM469.547 1711.5C469.547 1707 466.547 1704 463.047 1704C459.547 1704 456.547 1707 456.547 1711.5C456.547 1716 459.547 1719 463.047 1719C466.547 1719 469.547 1716 469.547 1711.5Z" fill="black"/>
<path d="M728.845 1741.35C773.695 1741.35 810.745 1716 810.745 1716V1741.35C810.745 1741.35 779.545 1782.3 728.845 1782.3C678.145 1782.3 646.945 1741.35 646.945 1741.35V1716C646.945 1716 683.995 1741.35 728.845 1741.35Z" fill="black"/>
<path d="M728.845 1680.65C773.695 1680.65 810.745 1706 810.745 1706V1680.65C810.745 1680.65 779.545 1639.7 728.845 1639.7C678.145 1639.7 646.945 1680.65 646.945 1680.65V1706C646.945 1706 683.995 1680.65 728.845 1680.65Z" fill="black"/>
<path d="M712 1722.5C712 1707 724.5 1694.5 742.5 1694.5C760.5 1694.5 773 1707 773 1722.5C773 1738 760.5 1750.5 742.5 1750.5C724.5 1750.5 712 1738 712 1722.5ZM749 1722.5C749 1718 746 1715 742.5 1715C739 1715 736 1718 736 1722.5C736 1727 739 1730 742.5 1730C746 1730 749 1727 749 1722.5Z" fill="black"/>
<path d="M982.068 1741.35C1026.92 1741.35 1063.97 1716 1063.97 1716V1741.35C1063.97 1741.35 1032.77 1782.3 982.068 1782.3C931.368 1782.3 900.168 1741.35 900.168 1741.35V1716C900.168 1716 937.218 1741.35 982.068 1741.35Z" fill="black"/>
<path d="M982.068 1680.65C1026.92 1680.65 1063.97 1706 1063.97 1706V1680.65C1063.97 1680.65 1032.77 1639.7 982.068 1639.7C931.368 1639.7 900.168 1680.65 900.168 1680.65V1706C900.168 1706 937.218 1680.65 982.068 1680.65Z" fill="black"/>
<path d="M932 1718.5C932 1703 944.5 1690.5 962.5 1690.5C980.5 1690.5 993 1703 993 1718.5C993 1734 980.5 1746.5 962.5 1746.5C944.5 1746.5 932 1734 932 1718.5ZM969 1718.5C969 1714 966 1711 962.5 1711C959 1711 956 1714 956 1718.5C956 1723 959 1726 962.5 1726C966 1726 969 1723 969 1718.5Z" fill="black"/>
<path d="M1235.29 1741.35C1280.14 1741.35 1317.19 1716 1317.19 1716V1741.35C1317.19 1741.35 1285.99 1782.3 1235.29 1782.3C1184.59 1782.3 1153.39 1741.35 1153.39 1741.35V1716C1153.39 1716 1190.44 1741.35 1235.29 1741.35Z" fill="black"/>
<path d="M1235.29 1680.65C1280.14 1680.65 1317.19 1706 1317.19 1706V1680.65C1317.19 1680.65 1285.99 1639.7 1235.29 1639.7C1184.59 1639.7 1153.39 1680.65 1153.39 1680.65V1706C1153.39 1706 1190.44 1680.65 1235.29 1680.65Z" fill="black"/>
<path d="M1224.98 1709.5C1224.98 1694 1237.48 1681.5 1255.48 1681.5C1273.48 1681.5 1285.98 1694 1285.98 1709.5C1285.98 1725 1273.48 1737.5 1255.48 1737.5C1237.48 1737.5 1224.98 1725 1224.98 1709.5ZM1261.98 1709.5C1261.98 1705 1258.98 1702 1255.48 1702C1251.98 1702 1248.98 1705 1248.98 1709.5C1248.98 1714 1251.98 1717 1255.48 1717C1258.98 1717 1261.98 1714 1261.98 1709.5Z" fill="black"/>
<path d="M222.4 1385.35C267.25 1385.35 304.3 1360 304.3 1360V1385.35C304.3 1385.35 273.1 1426.3 222.4 1426.3C171.7 1426.3 140.5 1385.35 140.5 1385.35V1360C140.5 1360 177.55 1385.35 222.4 1385.35Z" fill="black"/>
<path d="M193.227 1353.5C193.227 1338 205.727 1325.5 223.727 1325.5C241.727 1325.5 254.227 1338 254.227 1353.5C254.227 1369 241.727 1381.5 223.727 1381.5C205.727 1381.5 193.227 1369 193.227 1353.5ZM230.227 1353.5C230.227 1349 227.227 1346 223.727 1346C220.227 1346 217.227 1349 217.227 1353.5C217.227 1358 220.227 1361 223.727 1361C227.227 1361 230.227 1358 230.227 1353.5Z" fill="black"/>
<path d="M475.623 1385.35C520.473 1385.35 557.523 1360 557.523 1360V1385.35C557.523 1385.35 526.323 1426.3 475.623 1426.3C424.923 1426.3 393.723 1385.35 393.723 1385.35V1360C393.723 1360 430.773 1385.35 475.623 1385.35Z" fill="black"/>
<path d="M432.547 1355.5C432.547 1340 445.047 1327.5 463.047 1327.5C481.047 1327.5 493.547 1340 493.547 1355.5C493.547 1371 481.047 1383.5 463.047 1383.5C445.047 1383.5 432.547 1371 432.547 1355.5ZM469.547 1355.5C469.547 1351 466.547 1348 463.047 1348C459.547 1348 456.547 1351 456.547 1355.5C456.547 1360 459.547 1363 463.047 1363C466.547 1363 469.547 1360 469.547 1355.5Z" fill="black"/>
<path d="M728.845 1385.35C773.695 1385.35 810.745 1360 810.745 1360V1385.35C810.745 1385.35 779.545 1426.3 728.845 1426.3C678.145 1426.3 646.945 1385.35 646.945 1385.35V1360C646.945 1360 683.995 1385.35 728.845 1385.35Z" fill="black"/>
<path d="M699.672 1353.5C699.672 1338 712.172 1325.5 730.172 1325.5C748.172 1325.5 760.672 1338 760.672 1353.5C760.672 1369 748.172 1381.5 730.172 1381.5C712.172 1381.5 699.672 1369 699.672 1353.5ZM736.672 1353.5C736.672 1349 733.672 1346 730.172 1346C726.672 1346 723.672 1349 723.672 1353.5C723.672 1358 726.672 1361 730.172 1361C733.672 1361 736.672 1358 736.672 1353.5Z" fill="black"/>
<path d="M982.064 1385.35C1026.91 1385.35 1063.96 1360 1063.96 1360V1385.35C1063.96 1385.35 1032.76 1426.3 982.064 1426.3C931.364 1426.3 900.164 1385.35 900.164 1385.35V1360C900.164 1360 937.214 1385.35 982.064 1385.35Z" fill="black"/>
<path d="M965.805 1353.5C965.805 1338 978.305 1325.5 996.305 1325.5C1014.3 1325.5 1026.8 1338 1026.8 1353.5C1026.8 1369 1014.3 1381.5 996.305 1381.5C978.305 1381.5 965.805 1369 965.805 1353.5ZM1002.8 1353.5C1002.8 1349 999.805 1346 996.305 1346C992.805 1346 989.805 1349 989.805 1353.5C989.805 1358 992.805 1361 996.305 1361C999.805 1361 1002.8 1358 1002.8 1353.5Z" fill="black"/>
<path d="M1235.29 1385.35C1280.14 1385.35 1317.19 1360 1317.19 1360V1385.35C1317.19 1385.35 1285.99 1426.3 1235.29 1426.3C1184.59 1426.3 1153.39 1385.35 1153.39 1385.35V1360C1153.39 1360 1190.44 1385.35 1235.29 1385.35Z" fill="black"/>
<path d="M1224.98 1353.5C1224.98 1338 1237.48 1325.5 1255.48 1325.5C1273.48 1325.5 1285.98 1338 1285.98 1353.5C1285.98 1369 1273.48 1381.5 1255.48 1381.5C1237.48 1381.5 1224.98 1369 1224.98 1353.5ZM1261.98 1353.5C1261.98 1349 1258.98 1346 1255.48 1346C1251.98 1346 1248.98 1349 1248.98 1353.5C1248.98 1358 1251.98 1361 1255.48 1361C1258.98 1361 1261.98 1358 1261.98 1353.5Z" fill="black"/>
<path d="M222.4 1563.35C267.25 1563.35 304.3 1538 304.3 1538V1563.35C304.3 1563.35 273.1 1604.3 222.4 1604.3C171.7 1604.3 140.5 1563.35 140.5 1563.35V1538C140.5 1538 177.55 1563.35 222.4 1563.35Z" fill="black"/>
<path d="M222.4 1502.65C267.25 1502.65 304.3 1528 304.3 1528V1502.65C304.3 1502.65 273.1 1461.7 222.4 1461.7C171.7 1461.7 140.5 1502.65 140.5 1502.65V1528C140.5 1528 177.55 1502.65 222.4 1502.65Z" fill="black"/>
<path d="M206 1533.5C206 1518 218.5 1505.5 236.5 1505.5C254.5 1505.5 267 1518 267 1533.5C267 1549 254.5 1561.5 236.5 1561.5C218.5 1561.5 206 1549 206 1533.5ZM243 1533.5C243 1529 240 1526 236.5 1526C233 1526 230 1529 230 1533.5C230 1538 233 1541 236.5 1541C240 1541 243 1538 243 1533.5Z" fill="black"/>
<path d="M475.623 1563.35C520.473 1563.35 557.523 1538 557.523 1538V1563.35C557.523 1563.35 526.323 1604.3 475.623 1604.3C424.923 1604.3 393.723 1563.35 393.723 1563.35V1538C393.723 1538 430.773 1563.35 475.623 1563.35Z" fill="black"/>
<path d="M475.623 1502.65C520.473 1502.65 557.523 1528 557.523 1528V1502.65C557.523 1502.65 526.323 1461.7 475.623 1461.7C424.923 1461.7 393.723 1502.65 393.723 1502.65V1528C393.723 1528 430.773 1502.65 475.623 1502.65Z" fill="black"/>
<path d="M458 1531.5C458 1516 470.5 1503.5 488.5 1503.5C506.5 1503.5 519 1516 519 1531.5C519 1547 506.5 1559.5 488.5 1559.5C470.5 1559.5 458 1547 458 1531.5ZM495 1531.5C495 1527 492 1524 488.5 1524C485 1524 482 1527 482 1531.5C482 1536 485 1539 488.5 1539C492 1539 495 1536 495 1531.5Z" fill="black"/>
<path d="M728.845 1563.35C773.695 1563.35 810.745 1538 810.745 1538V1563.35C810.745 1563.35 779.545 1604.3 728.845 1604.3C678.145 1604.3 646.945 1563.35 646.945 1563.35V1538C646.945 1538 683.995 1563.35 728.845 1563.35Z" fill="black"/>
<path d="M728.845 1502.65C773.695 1502.65 810.745 1528 810.745 1528V1502.65C810.745 1502.65 779.545 1461.7 728.845 1461.7C678.145 1461.7 646.945 1502.65 646.945 1502.65V1528C646.945 1528 683.995 1502.65 728.845 1502.65Z" fill="black"/>
<path d="M679 1531.5C679 1516 691.5 1503.5 709.5 1503.5C727.5 1503.5 740 1516 740 1531.5C740 1547 727.5 1559.5 709.5 1559.5C691.5 1559.5 679 1547 679 1531.5ZM716 1531.5C716 1527 713 1524 709.5 1524C706 1524 703 1527 703 1531.5C703 1536 706 1539 709.5 1539C713 1539 716 1536 716 1531.5Z" fill="black"/>
<path d="M982.064 1563.35C1026.91 1563.35 1063.96 1538 1063.96 1538V1563.35C1063.96 1563.35 1032.76 1604.3 982.064 1604.3C931.364 1604.3 900.164 1563.35 900.164 1563.35V1538C900.164 1538 937.214 1563.35 982.064 1563.35Z" fill="black"/>
<path d="M982.064 1502.65C1026.91 1502.65 1063.96 1528 1063.96 1528V1502.65C1063.96 1502.65 1032.76 1461.7 982.064 1461.7C931.364 1461.7 900.164 1502.65 900.164 1502.65V1528C900.164 1528 937.214 1502.65 982.064 1502.65Z" fill="black"/>
<path d="M944 1531.5C944 1516 956.5 1503.5 974.5 1503.5C992.5 1503.5 1005 1516 1005 1531.5C1005 1547 992.5 1559.5 974.5 1559.5C956.5 1559.5 944 1547 944 1531.5ZM981 1531.5C981 1527 978 1524 974.5 1524C971 1524 968 1527 968 1531.5C968 1536 971 1539 974.5 1539C978 1539 981 1536 981 1531.5Z" fill="black"/>
<path d="M1235.29 1563.35C1280.14 1563.35 1317.19 1538 1317.19 1538V1563.35C1317.19 1563.35 1285.99 1604.3 1235.29 1604.3C1184.59 1604.3 1153.39 1563.35 1153.39 1563.35V1538C1153.39 1538 1190.44 1563.35 1235.29 1563.35Z" fill="black"/>
<path d="M1235.29 1502.65C1280.14 1502.65 1317.19 1528 1317.19 1528V1502.65C1317.19 1502.65 1285.99 1461.7 1235.29 1461.7C1184.59 1461.7 1153.39 1502.65 1153.39 1502.65V1528C1153.39 1528 1190.44 1502.65 1235.29 1502.65Z" fill="black"/>
<path d="M1192 1531.5C1192 1516 1204.5 1503.5 1222.5 1503.5C1240.5 1503.5 1253 1516 1253 1531.5C1253 1547 1240.5 1559.5 1222.5 1559.5C1204.5 1559.5 1192 1547 1192 1531.5ZM1229 1531.5C1229 1527 1226 1524 1222.5 1524C1219 1524 1216 1527 1216 1531.5C1216 1536 1219 1539 1222.5 1539C1226 1539 1229 1536 1229 1531.5Z" fill="black"/>
<path d="M222.4 1741.35C267.25 1741.35 304.3 1716 304.3 1716V1741.35C304.3 1741.35 273.1 1782.3 222.4 1782.3C171.7 1782.3 140.5 1741.35 140.5 1741.35V1716C140.5 1716 177.55 1741.35 222.4 1741.35Z" fill="black"/>
<path d="M222.4 1680.65C267.25 1680.65 304.3 1706 304.3 1706V1680.65C304.3 1680.65 273.1 1639.7 222.4 1639.7C171.7 1639.7 140.5 1680.65 140.5 1680.65V1706C140.5 1706 177.55 1680.65 222.4 1680.65Z" fill="black"/>
<path d="M179 1711.5C179 1696 191.5 1683.5 209.5 1683.5C227.5 1683.5 240 1696 240 1711.5C240 1727 227.5 1739.5 209.5 1739.5C191.5 1739.5 179 1727 179 1711.5ZM216 1711.5C216 1707 213 1704 209.5 1704C206 1704 203 1707 203 1711.5C203 1716 206 1719 209.5 1719C213 1719 216 1716 216 1711.5Z" fill="black"/>
<path d="M475.623 1741.35C520.473 1741.35 557.523 1716 557.523 1716V1741.35C557.523 1741.35 526.323 1782.3 475.623 1782.3C424.923 1782.3 393.723 1741.35 393.723 1741.35V1716C393.723 1716 430.773 1741.35 475.623 1741.35Z" fill="black"/>
<path d="M475.623 1680.65C520.473 1680.65 557.523 1706 557.523 1706V1680.65C557.523 1680.65 526.323 1639.7 475.623 1639.7C424.923 1639.7 393.723 1680.65 393.723 1680.65V1706C393.723 1706 430.773 1680.65 475.623 1680.65Z" fill="black"/>
<path d="M432.547 1711.5C432.547 1696 445.047 1683.5 463.047 1683.5C481.047 1683.5 493.547 1696 493.547 1711.5C493.547 1727 481.047 1739.5 463.047 1739.5C445.047 1739.5 432.547 1727 432.547 1711.5ZM469.547 1711.5C469.547 1707 466.547 1704 463.047 1704C459.547 1704 456.547 1707 456.547 1711.5C456.547 1716 459.547 1719 463.047 1719C466.547 1719 469.547 1716 469.547 1711.5Z" fill="black"/>
<path d="M728.845 1741.35C773.695 1741.35 810.745 1716 810.745 1716V1741.35C810.745 1741.35 779.545 1782.3 728.845 1782.3C678.145 1782.3 646.945 1741.35 646.945 1741.35V1716C646.945 1716 683.995 1741.35 728.845 1741.35Z" fill="black"/>
<path d="M728.845 1680.65C773.695 1680.65 810.745 1706 810.745 1706V1680.65C810.745 1680.65 779.545 1639.7 728.845 1639.7C678.145 1639.7 646.945 1680.65 646.945 1680.65V1706C646.945 1706 683.995 1680.65 728.845 1680.65Z" fill="black"/>
<path d="M712 1722.5C712 1707 724.5 1694.5 742.5 1694.5C760.5 1694.5 773 1707 773 1722.5C773 1738 760.5 1750.5 742.5 1750.5C724.5 1750.5 712 1738 712 1722.5ZM749 1722.5C749 1718 746 1715 742.5 1715C739 1715 736 1718 736 1722.5C736 1727 739 1730 742.5 1730C746 1730 749 1727 749 1722.5Z" fill="black"/>
<path d="M982.064 1741.35C1026.91 1741.35 1063.96 1716 1063.96 1716V1741.35C1063.96 1741.35 1032.76 1782.3 982.064 1782.3C931.364 1782.3 900.164 1741.35 900.164 1741.35V1716C900.164 1716 937.214 1741.35 982.064 1741.35Z" fill="black"/>
<path d="M982.064 1680.65C1026.91 1680.65 1063.96 1706 1063.96 1706V1680.65C1063.96 1680.65 1032.76 1639.7 982.064 1639.7C931.364 1639.7 900.164 1680.65 900.164 1680.65V1706C900.164 1706 937.214 1680.65 982.064 1680.65Z" fill="black"/>
<path d="M932 1718.5C932 1703 944.5 1690.5 962.5 1690.5C980.5 1690.5 993 1703 993 1718.5C993 1734 980.5 1746.5 962.5 1746.5C944.5 1746.5 932 1734 932 1718.5ZM969 1718.5C969 1714 966 1711 962.5 1711C959 1711 956 1714 956 1718.5C956 1723 959 1726 962.5 1726C966 1726 969 1723 969 1718.5Z" fill="black"/>
<path d="M1235.29 1741.35C1280.14 1741.35 1317.19 1716 1317.19 1716V1741.35C1317.19 1741.35 1285.99 1782.3 1235.29 1782.3C1184.59 1782.3 1153.39 1741.35 1153.39 1741.35V1716C1153.39 1716 1190.44 1741.35 1235.29 1741.35Z" fill="black"/>
<path d="M1235.29 1680.65C1280.14 1680.65 1317.19 1706 1317.19 1706V1680.65C1317.19 1680.65 1285.99 1639.7 1235.29 1639.7C1184.59 1639.7 1153.39 1680.65 1153.39 1680.65V1706C1153.39 1706 1190.44 1680.65 1235.29 1680.65Z" fill="black"/>
<path d="M1224.98 1709.5C1224.98 1694 1237.48 1681.5 1255.48 1681.5C1273.48 1681.5 1285.98 1694 1285.98 1709.5C1285.98 1725 1273.48 1737.5 1255.48 1737.5C1237.48 1737.5 1224.98 1725 1224.98 1709.5ZM1261.98 1709.5C1261.98 1705 1258.98 1702 1255.48 1702C1251.98 1702 1248.98 1705 1248.98 1709.5C1248.98 1714 1251.98 1717 1255.48 1717C1258.98 1717 1261.98 1714 1261.98 1709.5Z" fill="black"/>
<path d="M222.4 1919.35C267.25 1919.35 304.3 1894 304.3 1894V1919.35C304.3 1919.35 273.1 1960.3 222.4 1960.3C171.7 1960.3 140.5 1919.35 140.5 1919.35V1894C140.5 1894 177.55 1919.35 222.4 1919.35Z" fill="black"/>
<path d="M222.4 1858.65C267.25 1858.65 304.3 1884 304.3 1884V1858.65C304.3 1858.65 273.1 1817.7 222.4 1817.7C171.7 1817.7 140.5 1858.65 140.5 1858.65V1884C140.5 1884 177.55 1858.65 222.4 1858.65Z" fill="black"/>
<path d="M193.227 1887.5C193.227 1872 205.727 1859.5 223.727 1859.5C241.727 1859.5 254.227 1872 254.227 1887.5C254.227 1903 241.727 1915.5 223.727 1915.5C205.727 1915.5 193.227 1903 193.227 1887.5ZM230.227 1887.5C230.227 1883 227.227 1880 223.727 1880C220.227 1880 217.227 1883 217.227 1887.5C217.227 1892 220.227 1895 223.727 1895C227.227 1895 230.227 1892 230.227 1887.5Z" fill="black"/>
<path d="M475.623 1919.35C520.473 1919.35 557.523 1894 557.523 1894V1919.35C557.523 1919.35 526.323 1960.3 475.623 1960.3C424.923 1960.3 393.723 1919.35 393.723 1919.35V1894C393.723 1894 430.773 1919.35 475.623 1919.35Z" fill="black"/>
<path d="M475.623 1858.65C520.473 1858.65 557.523 1884 557.523 1884V1858.65C557.523 1858.65 526.323 1817.7 475.623 1817.7C424.923 1817.7 393.723 1858.65 393.723 1858.65V1884C393.723 1884 430.773 1858.65 475.623 1858.65Z" fill="black"/>
<path d="M432.547 1889.5C432.547 1874 445.047 1861.5 463.047 1861.5C481.047 1861.5 493.547 1874 493.547 1889.5C493.547 1905 481.047 1917.5 463.047 1917.5C445.047 1917.5 432.547 1905 432.547 1889.5ZM469.547 1889.5C469.547 1885 466.547 1882 463.047 1882C459.547 1882 456.547 1885 456.547 1889.5C456.547 1894 459.547 1897 463.047 1897C466.547 1897 469.547 1894 469.547 1889.5Z" fill="black"/>
<path d="M728.845 1919.35C773.695 1919.35 810.745 1894 810.745 1894V1919.35C810.745 1919.35 779.545 1960.3 728.845 1960.3C678.145 1960.3 646.945 1919.35 646.945 1919.35V1894C646.945 1894 683.995 1919.35 728.845 1919.35Z" fill="black"/>
<path d="M728.845 1858.65C773.695 1858.65 810.745 1884 810.745 1884V1858.65C810.745 1858.65 779.545 1817.7 728.845 1817.7C678.145 1817.7 646.945 1858.65 646.945 1858.65V1884C646.945 1884 683.995 1858.65 728.845 1858.65Z" fill="black"/>
<path d="M699.672 1887.5C699.672 1872 712.172 1859.5 730.172 1859.5C748.172 1859.5 760.672 1872 760.672 1887.5C760.672 1903 748.172 1915.5 730.172 1915.5C712.172 1915.5 699.672 1903 699.672 1887.5ZM736.672 1887.5C736.672 1883 733.672 1880 730.172 1880C726.672 1880 723.672 1883 723.672 1887.5C723.672 1892 726.672 1895 730.172 1895C733.672 1895 736.672 1892 736.672 1887.5Z" fill="black"/>
<path d="M982.068 1919.35C1026.92 1919.35 1063.97 1894 1063.97 1894V1919.35C1063.97 1919.35 1032.77 1960.3 982.068 1960.3C931.368 1960.3 900.168 1919.35 900.168 1919.35V1894C900.168 1894 937.218 1919.35 982.068 1919.35Z" fill="black"/>
<path d="M982.068 1858.65C1026.92 1858.65 1063.97 1884 1063.97 1884V1858.65C1063.97 1858.65 1032.77 1817.7 982.068 1817.7C931.368 1817.7 900.168 1858.65 900.168 1858.65V1884C900.168 1884 937.218 1858.65 982.068 1858.65Z" fill="black"/>
<path d="M965.801 1887.5C965.801 1872 978.301 1859.5 996.301 1859.5C1014.3 1859.5 1026.8 1872 1026.8 1887.5C1026.8 1903 1014.3 1915.5 996.301 1915.5C978.301 1915.5 965.801 1903 965.801 1887.5ZM1002.8 1887.5C1002.8 1883 999.801 1880 996.301 1880C992.801 1880 989.801 1883 989.801 1887.5C989.801 1892 992.801 1895 996.301 1895C999.801 1895 1002.8 1892 1002.8 1887.5Z" fill="black"/>
<path d="M1235.29 1919.35C1280.14 1919.35 1317.19 1894 1317.19 1894V1919.35C1317.19 1919.35 1285.99 1960.3 1235.29 1960.3C1184.59 1960.3 1153.39 1919.35 1153.39 1919.35V1894C1153.39 1894 1190.44 1919.35 1235.29 1919.35Z" fill="black"/>
<path d="M1235.29 1858.65C1280.14 1858.65 1317.19 1884 1317.19 1884V1858.65C1317.19 1858.65 1285.99 1817.7 1235.29 1817.7C1184.59 1817.7 1153.39 1858.65 1153.39 1858.65V1884C1153.39 1884 1190.44 1858.65 1235.29 1858.65Z" fill="black"/>
<path d="M1224.98 1887.5C1224.98 1872 1237.48 1859.5 1255.48 1859.5C1273.48 1859.5 1285.98 1872 1285.98 1887.5C1285.98 1903 1273.48 1915.5 1255.48 1915.5C1237.48 1915.5 1224.98 1903 1224.98 1887.5ZM1261.98 1887.5C1261.98 1883 1258.98 1880 1255.48 1880C1251.98 1880 1248.98 1883 1248.98 1887.5C1248.98 1892 1251.98 1895 1255.48 1895C1258.98 1895 1261.98 1892 1261.98 1887.5Z" fill="black"/>
<path d="M222.4 2097.35C267.25 2097.35 304.3 2072 304.3 2072V2097.35C304.3 2097.35 273.1 2138.3 222.4 2138.3C171.7 2138.3 140.5 2097.35 140.5 2097.35V2072C140.5 2072 177.55 2097.35 222.4 2097.35Z" fill="black"/>
<path d="M222.4 2036.65C267.25 2036.65 304.3 2062 304.3 2062V2036.65C304.3 2036.65 273.1 1995.7 222.4 1995.7C171.7 1995.7 140.5 2036.65 140.5 2036.65V2062C140.5 2062 177.55 2036.65 222.4 2036.65Z" fill="black"/>
<path d="M206 2067.5C206 2052 218.5 2039.5 236.5 2039.5C254.5 2039.5 267 2052 267 2067.5C267 2083 254.5 2095.5 236.5 2095.5C218.5 2095.5 206 2083 206 2067.5ZM243 2067.5C243 2063 240 2060 236.5 2060C233 2060 230 2063 230 2067.5C230 2072 233 2075 236.5 2075C240 2075 243 2072 243 2067.5Z" fill="black"/>
<path d="M475.623 2097.35C520.473 2097.35 557.523 2072 557.523 2072V2097.35C557.523 2097.35 526.323 2138.3 475.623 2138.3C424.923 2138.3 393.723 2097.35 393.723 2097.35V2072C393.723 2072 430.773 2097.35 475.623 2097.35Z" fill="black"/>
<path d="M475.623 2036.65C520.473 2036.65 557.523 2062 557.523 2062V2036.65C557.523 2036.65 526.323 1995.7 475.623 1995.7C424.923 1995.7 393.723 2036.65 393.723 2036.65V2062C393.723 2062 430.773 2036.65 475.623 2036.65Z" fill="black"/>
<path d="M458 2065.5C458 2050 470.5 2037.5 488.5 2037.5C506.5 2037.5 519 2050 519 2065.5C519 2081 506.5 2093.5 488.5 2093.5C470.5 2093.5 458 2081 458 2065.5ZM495 2065.5C495 2061 492 2058 488.5 2058C485 2058 482 2061 482 2065.5C482 2070 485 2073 488.5 2073C492 2073 495 2070 495 2065.5Z" fill="black"/>
<path d="M728.845 2097.35C773.695 2097.35 810.745 2072 810.745 2072V2097.35C810.745 2097.35 779.545 2138.3 728.845 2138.3C678.145 2138.3 646.945 2097.35 646.945 2097.35V2072C646.945 2072 683.995 2097.35 728.845 2097.35Z" fill="black"/>
<path d="M728.845 2036.65C773.695 2036.65 810.745 2062 810.745 2062V2036.65C810.745 2036.65 779.545 1995.7 728.845 1995.7C678.145 1995.7 646.945 2036.65 646.945 2036.65V2062C646.945 2062 683.995 2036.65 728.845 2036.65Z" fill="black"/>
<path d="M679 2065.5C679 2050 691.5 2037.5 709.5 2037.5C727.5 2037.5 740 2050 740 2065.5C740 2081 727.5 2093.5 709.5 2093.5C691.5 2093.5 679 2081 679 2065.5ZM716 2065.5C716 2061 713 2058 709.5 2058C706 2058 703 2061 703 2065.5C703 2070 706 2073 709.5 2073C713 2073 716 2070 716 2065.5Z" fill="black"/>
<path d="M982.068 2097.35C1026.92 2097.35 1063.97 2072 1063.97 2072V2097.35C1063.97 2097.35 1032.77 2138.3 982.068 2138.3C931.368 2138.3 900.168 2097.35 900.168 2097.35V2072C900.168 2072 937.218 2097.35 982.068 2097.35Z" fill="black"/>
<path d="M982.068 2036.65C1026.92 2036.65 1063.97 2062 1063.97 2062V2036.65C1063.97 2036.65 1032.77 1995.7 982.068 1995.7C931.368 1995.7 900.168 2036.65 900.168 2036.65V2062C900.168 2062 937.218 2036.65 982.068 2036.65Z" fill="black"/>
<path d="M944 2065.5C944 2050 956.5 2037.5 974.5 2037.5C992.5 2037.5 1005 2050 1005 2065.5C1005 2081 992.5 2093.5 974.5 2093.5C956.5 2093.5 944 2081 944 2065.5ZM981 2065.5C981 2061 978 2058 974.5 2058C971 2058 968 2061 968 2065.5C968 2070 971 2073 974.5 2073C978 2073 981 2070 981 2065.5Z" fill="black"/>
<path d="M1235.29 2097.35C1280.14 2097.35 1317.19 2072 1317.19 2072V2097.35C1317.19 2097.35 1285.99 2138.3 1235.29 2138.3C1184.59 2138.3 1153.39 2097.35 1153.39 2097.35V2072C1153.39 2072 1190.44 2097.35 1235.29 2097.35Z" fill="black"/>
<path d="M1235.29 2036.65C1280.14 2036.65 1317.19 2062 1317.19 2062V2036.65C1317.19 2036.65 1285.99 1995.7 1235.29 1995.7C1184.59 1995.7 1153.39 2036.65 1153.39 2036.65V2062C1153.39 2062 1190.44 2036.65 1235.29 2036.65Z" fill="black"/>
<path d="M1192 2065.5C1192 2050 1204.5 2037.5 1222.5 2037.5C1240.5 2037.5 1253 2050 1253 2065.5C1253 2081 1240.5 2093.5 1222.5 2093.5C1204.5 2093.5 1192 2081 1192 2065.5ZM1229 2065.5C1229 2061 1226 2058 1222.5 2058C1219 2058 1216 2061 1216 2065.5C1216 2070 1219 2073 1222.5 2073C1226 2073 1229 2070 1229 2065.5Z" fill="black"/>
<path d="M222.4 2275.35C267.25 2275.35 304.3 2250 304.3 2250V2275.35C304.3 2275.35 273.1 2316.3 222.4 2316.3C171.7 2316.3 140.5 2275.35 140.5 2275.35V2250C140.5 2250 177.55 2275.35 222.4 2275.35Z" fill="black"/>
<path d="M222.4 2214.65C267.25 2214.65 304.3 2240 304.3 2240V2214.65C304.3 2214.65 273.1 2173.7 222.4 2173.7C171.7 2173.7 140.5 2214.65 140.5 2214.65V2240C140.5 2240 177.55 2214.65 222.4 2214.65Z" fill="black"/>
<path d="M179 2245.5C179 2230 191.5 2217.5 209.5 2217.5C227.5 2217.5 240 2230 240 2245.5C240 2261 227.5 2273.5 209.5 2273.5C191.5 2273.5 179 2261 179 2245.5ZM216 2245.5C216 2241 213 2238 209.5 2238C206 2238 203 2241 203 2245.5C203 2250 206 2253 209.5 2253C213 2253 216 2250 216 2245.5Z" fill="black"/>
<path d="M475.623 2275.35C520.473 2275.35 557.523 2250 557.523 2250V2275.35C557.523 2275.35 526.323 2316.3 475.623 2316.3C424.923 2316.3 393.723 2275.35 393.723 2275.35V2250C393.723 2250 430.773 2275.35 475.623 2275.35Z" fill="black"/>
<path d="M475.623 2214.65C520.473 2214.65 557.523 2240 557.523 2240V2214.65C557.523 2214.65 526.323 2173.7 475.623 2173.7C424.923 2173.7 393.723 2214.65 393.723 2214.65V2240C393.723 2240 430.773 2214.65 475.623 2214.65Z" fill="black"/>
<path d="M432.547 2245.5C432.547 2230 445.047 2217.5 463.047 2217.5C481.047 2217.5 493.547 2230 493.547 2245.5C493.547 2261 481.047 2273.5 463.047 2273.5C445.047 2273.5 432.547 2261 432.547 2245.5ZM469.547 2245.5C469.547 2241 466.547 2238 463.047 2238C459.547 2238 456.547 2241 456.547 2245.5C456.547 2250 459.547 2253 463.047 2253C466.547 2253 469.547 2250 469.547 2245.5Z" fill="black"/>
<path d="M728.845 2275.35C773.695 2275.35 810.745 2250 810.745 2250V2275.35C810.745 2275.35 779.545 2316.3 728.845 2316.3C678.145 2316.3 646.945 2275.35 646.945 2275.35V2250C646.945 2250 683.995 2275.35 728.845 2275.35Z" fill="black"/>
<path d="M728.845 2214.65C773.695 2214.65 810.745 2240 810.745 2240V2214.65C810.745 2214.65 779.545 2173.7 728.845 2173.7C678.145 2173.7 646.945 2214.65 646.945 2214.65V2240C646.945 2240 683.995 2214.65 728.845 2214.65Z" fill="black"/>
<path d="M712 2256.5C712 2241 724.5 2228.5 742.5 2228.5C760.5 2228.5 773 2241 773 2256.5C773 2272 760.5 2284.5 742.5 2284.5C724.5 2284.5 712 2272 712 2256.5ZM749 2256.5C749 2252 746 2249 742.5 2249C739 2249 736 2252 736 2256.5C736 2261 739 2264 742.5 2264C746 2264 749 2261 749 2256.5Z" fill="black"/>
<path d="M982.068 2275.35C1026.92 2275.35 1063.97 2250 1063.97 2250V2275.35C1063.97 2275.35 1032.77 2316.3 982.068 2316.3C931.368 2316.3 900.168 2275.35 900.168 2275.35V2250C900.168 2250 937.218 2275.35 982.068 2275.35Z" fill="black"/>
<path d="M982.068 2214.65C1026.92 2214.65 1063.97 2240 1063.97 2240V2214.65C1063.97 2214.65 1032.77 2173.7 982.068 2173.7C931.368 2173.7 900.168 2214.65 900.168 2214.65V2240C900.168 2240 937.218 2214.65 982.068 2214.65Z" fill="black"/>
<path d="M932 2252.5C932 2237 944.5 2224.5 962.5 2224.5C980.5 2224.5 993 2237 993 2252.5C993 2268 980.5 2280.5 962.5 2280.5C944.5 2280.5 932 2268 932 2252.5ZM969 2252.5C969 2248 966 2245 962.5 2245C959 2245 956 2248 956 2252.5C956 2257 959 2260 962.5 2260C966 2260 969 2257 969 2252.5Z" fill="black"/>
<path d="M1235.29 2275.35C1280.14 2275.35 1317.19 2250 1317.19 2250V2275.35C1317.19 2275.35 1285.99 2316.3 1235.29 2316.3C1184.59 2316.3 1153.39 2275.35 1153.39 2275.35V2250C1153.39 2250 1190.44 2275.35 1235.29 2275.35Z" fill="black"/>
<path d="M1235.29 2214.65C1280.14 2214.65 1317.19 2240 1317.19 2240V2214.65C1317.19 2214.65 1285.99 2173.7 1235.29 2173.7C1184.59 2173.7 1153.39 2214.65 1153.39 2214.65V2240C1153.39 2240 1190.44 2214.65 1235.29 2214.65Z" fill="black"/>
<path d="M1224.98 2243.5C1224.98 2228 1237.48 2215.5 1255.48 2215.5C1273.48 2215.5 1285.98 2228 1285.98 2243.5C1285.98 2259 1273.48 2271.5 1255.48 2271.5C1237.48 2271.5 1224.98 2259 1224.98 2243.5ZM1261.98 2243.5C1261.98 2239 1258.98 2236 1255.48 2236C1251.98 2236 1248.98 2239 1248.98 2243.5C1248.98 2248 1251.98 2251 1255.48 2251C1258.98 2251 1261.98 2248 1261.98 2243.5Z" fill="black"/>
<path d="M222.4 1919.35C267.25 1919.35 304.3 1894 304.3 1894V1919.35C304.3 1919.35 273.1 1960.3 222.4 1960.3C171.7 1960.3 140.5 1919.35 140.5 1919.35V1894C140.5 1894 177.55 1919.35 222.4 1919.35Z" fill="black"/>
<path d="M193.227 1887.5C193.227 1872 205.727 1859.5 223.727 1859.5C241.727 1859.5 254.227 1872 254.227 1887.5C254.227 1903 241.727 1915.5 223.727 1915.5C205.727 1915.5 193.227 1903 193.227 1887.5ZM230.227 1887.5C230.227 1883 227.227 1880 223.727 1880C220.227 1880 217.227 1883 217.227 1887.5C217.227 1892 220.227 1895 223.727 1895C227.227 1895 230.227 1892 230.227 1887.5Z" fill="black"/>
<path d="M475.623 1919.35C520.473 1919.35 557.523 1894 557.523 1894V1919.35C557.523 1919.35 526.323 1960.3 475.623 1960.3C424.923 1960.3 393.723 1919.35 393.723 1919.35V1894C393.723 1894 430.773 1919.35 475.623 1919.35Z" fill="black"/>
<path d="M432.547 1889.5C432.547 1874 445.047 1861.5 463.047 1861.5C481.047 1861.5 493.547 1874 493.547 1889.5C493.547 1905 481.047 1917.5 463.047 1917.5C445.047 1917.5 432.547 1905 432.547 1889.5ZM469.547 1889.5C469.547 1885 466.547 1882 463.047 1882C459.547 1882 456.547 1885 456.547 1889.5C456.547 1894 459.547 1897 463.047 1897C466.547 1897 469.547 1894 469.547 1889.5Z" fill="black"/>
<path d="M728.845 1919.35C773.695 1919.35 810.745 1894 810.745 1894V1919.35C810.745 1919.35 779.545 1960.3 728.845 1960.3C678.145 1960.3 646.945 1919.35 646.945 1919.35V1894C646.945 1894 683.995 1919.35 728.845 1919.35Z" fill="black"/>
<path d="M699.672 1887.5C699.672 1872 712.172 1859.5 730.172 1859.5C748.172 1859.5 760.672 1872 760.672 1887.5C760.672 1903 748.172 1915.5 730.172 1915.5C712.172 1915.5 699.672 1903 699.672 1887.5ZM736.672 1887.5C736.672 1883 733.672 1880 730.172 1880C726.672 1880 723.672 1883 723.672 1887.5C723.672 1892 726.672 1895 730.172 1895C733.672 1895 736.672 1892 736.672 1887.5Z" fill="black"/>
<path d="M982.064 1919.35C1026.91 1919.35 1063.96 1894 1063.96 1894V1919.35C1063.96 1919.35 1032.76 1960.3 982.064 1960.3C931.364 1960.3 900.164 1919.35 900.164 1919.35V1894C900.164 1894 937.214 1919.35 982.064 1919.35Z" fill="black"/>
<path d="M965.805 1887.5C965.805 1872 978.305 1859.5 996.305 1859.5C1014.3 1859.5 1026.8 1872 1026.8 1887.5C1026.8 1903 1014.3 1915.5 996.305 1915.5C978.305 1915.5 965.805 1903 965.805 1887.5ZM1002.8 1887.5C1002.8 1883 999.805 1880 996.305 1880C992.805 1880 989.805 1883 989.805 1887.5C989.805 1892 992.805 1895 996.305 1895C999.805 1895 1002.8 1892 1002.8 1887.5Z" fill="black"/>
<path d="M1235.29 1919.35C1280.14 1919.35 1317.19 1894 1317.19 1894V1919.35C1317.19 1919.35 1285.99 1960.3 1235.29 1960.3C1184.59 1960.3 1153.39 1919.35 1153.39 1919.35V1894C1153.39 1894 1190.44 1919.35 1235.29 1919.35Z" fill="black"/>
<path d="M1224.98 1887.5C1224.98 1872 1237.48 1859.5 1255.48 1859.5C1273.48 1859.5 1285.98 1872 1285.98 1887.5C1285.98 1903 1273.48 1915.5 1255.48 1915.5C1237.48 1915.5 1224.98 1903 1224.98 1887.5ZM1261.98 1887.5C1261.98 1883 1258.98 1880 1255.48 1880C1251.98 1880 1248.98 1883 1248.98 1887.5C1248.98 1892 1251.98 1895 1255.48 1895C1258.98 1895 1261.98 1892 1261.98 1887.5Z" fill="black"/>
<path d="M222.4 2097.35C267.25 2097.35 304.3 2072 304.3 2072V2097.35C304.3 2097.35 273.1 2138.3 222.4 2138.3C171.7 2138.3 140.5 2097.35 140.5 2097.35V2072C140.5 2072 177.55 2097.35 222.4 2097.35Z" fill="black"/>
<path d="M222.4 2036.65C267.25 2036.65 304.3 2062 304.3 2062V2036.65C304.3 2036.65 273.1 1995.7 222.4 1995.7C171.7 1995.7 140.5 2036.65 140.5 2036.65V2062C140.5 2062 177.55 2036.65 222.4 2036.65Z" fill="black"/>
<path d="M206 2067.5C206 2052 218.5 2039.5 236.5 2039.5C254.5 2039.5 267 2052 267 2067.5C267 2083 254.5 2095.5 236.5 2095.5C218.5 2095.5 206 2083 206 2067.5ZM243 2067.5C243 2063 240 2060 236.5 2060C233 2060 230 2063 230 2067.5C230 2072 233 2075 236.5 2075C240 2075 243 2072 243 2067.5Z" fill="black"/>
<path d="M475.623 2097.35C520.473 2097.35 557.523 2072 557.523 2072V2097.35C557.523 2097.35 526.323 2138.3 475.623 2138.3C424.923 2138.3 393.723 2097.35 393.723 2097.35V2072C393.723 2072 430.773 2097.35 475.623 2097.35Z" fill="black"/>
<path d="M475.623 2036.65C520.473 2036.65 557.523 2062 557.523 2062V2036.65C557.523 2036.65 526.323 1995.7 475.623 1995.7C424.923 1995.7 393.723 2036.65 393.723 2036.65V2062C393.723 2062 430.773 2036.65 475.623 2036.65Z" fill="black"/>
<path d="M458 2065.5C458 2050 470.5 2037.5 488.5 2037.5C506.5 2037.5 519 2050 519 2065.5C519 2081 506.5 2093.5 488.5 2093.5C470.5 2093.5 458 2081 458 2065.5ZM495 2065.5C495 2061 492 2058 488.5 2058C485 2058 482 2061 482 2065.5C482 2070 485 2073 488.5 2073C492 2073 495 2070 495 2065.5Z" fill="black"/>
<path d="M728.845 2097.35C773.695 2097.35 810.745 2072 810.745 2072V2097.35C810.745 2097.35 779.545 2138.3 728.845 2138.3C678.145 2138.3 646.945 2097.35 646.945 2097.35V2072C646.945 2072 683.995 2097.35 728.845 2097.35Z" fill="black"/>
<path d="M728.845 2036.65C773.695 2036.65 810.745 2062 810.745 2062V2036.65C810.745 2036.65 779.545 1995.7 728.845 1995.7C678.145 1995.7 646.945 2036.65 646.945 2036.65V2062C646.945 2062 683.995 2036.65 728.845 2036.65Z" fill="black"/>
<path d="M679 2065.5C679 2050 691.5 2037.5 709.5 2037.5C727.5 2037.5 740 2050 740 2065.5C740 2081 727.5 2093.5 709.5 2093.5C691.5 2093.5 679 2081 679 2065.5ZM716 2065.5C716 2061 713 2058 709.5 2058C706 2058 703 2061 703 2065.5C703 2070 706 2073 709.5 2073C713 2073 716 2070 716 2065.5Z" fill="black"/>
<path d="M982.064 2097.35C1026.91 2097.35 1063.96 2072 1063.96 2072V2097.35C1063.96 2097.35 1032.76 2138.3 982.064 2138.3C931.364 2138.3 900.164 2097.35 900.164 2097.35V2072C900.164 2072 937.214 2097.35 982.064 2097.35Z" fill="black"/>
<path d="M982.064 2036.65C1026.91 2036.65 1063.96 2062 1063.96 2062V2036.65C1063.96 2036.65 1032.76 1995.7 982.064 1995.7C931.364 1995.7 900.164 2036.65 900.164 2036.65V2062C900.164 2062 937.214 2036.65 982.064 2036.65Z" fill="black"/>
<path d="M944 2065.5C944 2050 956.5 2037.5 974.5 2037.5C992.5 2037.5 1005 2050 1005 2065.5C1005 2081 992.5 2093.5 974.5 2093.5C956.5 2093.5 944 2081 944 2065.5ZM981 2065.5C981 2061 978 2058 974.5 2058C971 2058 968 2061 968 2065.5C968 2070 971 2073 974.5 2073C978 2073 981 2070 981 2065.5Z" fill="black"/>
<path d="M1235.29 2097.35C1280.14 2097.35 1317.19 2072 1317.19 2072V2097.35C1317.19 2097.35 1285.99 2138.3 1235.29 2138.3C1184.59 2138.3 1153.39 2097.35 1153.39 2097.35V2072C1153.39 2072 1190.44 2097.35 1235.29 2097.35Z" fill="black"/>
<path d="M1235.29 2036.65C1280.14 2036.65 1317.19 2062 1317.19 2062V2036.65C1317.19 2036.65 1285.99 1995.7 1235.29 1995.7C1184.59 1995.7 1153.39 2036.65 1153.39 2036.65V2062C1153.39 2062 1190.44 2036.65 1235.29 2036.65Z" fill="black"/>
<path d="M1192 2065.5C1192 2050 1204.5 2037.5 1222.5 2037.5C1240.5 2037.5 1253 2050 1253 2065.5C1253 2081 1240.5 2093.5 1222.5 2093.5C1204.5 2093.5 1192 2081 1192 2065.5ZM1229 2065.5C1229 2061 1226 2058 1222.5 2058C1219 2058 1216 2061 1216 2065.5C1216 2070 1219 2073 1222.5 2073C1226 2073 1229 2070 1229 2065.5Z" fill="black"/>
<path d="M222.4 2275.35C267.25 2275.35 304.3 2250 304.3 2250V2275.35C304.3 2275.35 273.1 2316.3 222.4 2316.3C171.7 2316.3 140.5 2275.35 140.5 2275.35V2250C140.5 2250 177.55 2275.35 222.4 2275.35Z" fill="black"/>
<path d="M222.4 2214.65C267.25 2214.65 304.3 2240 304.3 2240V2214.65C304.3 2214.65 273.1 2173.7 222.4 2173.7C171.7 2173.7 140.5 2214.65 140.5 2214.65V2240C140.5 2240 177.55 2214.65 222.4 2214.65Z" fill="black"/>
<path d="M179 2245.5C179 2230 191.5 2217.5 209.5 2217.5C227.5 2217.5 240 2230 240 2245.5C240 2261 227.5 2273.5 209.5 2273.5C191.5 2273.5 179 2261 179 2245.5ZM216 2245.5C216 2241 213 2238 209.5 2238C206 2238 203 2241 203 2245.5C203 2250 206 2253 209.5 2253C213 2253 216 2250 216 2245.5Z" fill="black"/>
<path d="M475.623 2275.35C520.473 2275.35 557.523 2250 557.523 2250V2275.35C557.523 2275.35 526.323 2316.3 475.623 2316.3C424.923 2316.3 393.723 2275.35 393.723 2275.35V2250C393.723 2250 430.773 2275.35 475.623 2275.35Z" fill="black"/>
<path d="M475.623 2214.65C520.473 2214.65 557.523 2240 557.523 2240V2214.65C557.523 2214.65 526.323 2173.7 475.623 2173.7C424.923 2173.7 393.723 2214.65 393.723 2214.65V2240C393.723 2240 430.773 2214.65 475.623 2214.65Z" fill="black"/>
<path d="M432.547 2245.5C432.547 2230 445.047 2217.5 463.047 2217.5C481.047 2217.5 493.547 2230 493.547 2245.5C493.547 2261 481.047 2273.5 463.047 2273.5C445.047 2273.5 432.547 2261 432.547 2245.5ZM469.547 2245.5C469.547 2241 466.547 2238 463.047 2238C459.547 2238 456.547 2241 456.547 2245.5C456.547 2250 459.547 2253 463.047 2253C466.547 2253 469.547 2250 469.547 2245.5Z" fill="black"/>
<path d="M728.845 2275.35C773.695 2275.35 810.745 2250 810.745 2250V2275.35C810.745 2275.35 779.545 2316.3 728.845 2316.3C678.145 2316.3 646.945 2275.35 646.945 2275.35V2250C646.945 2250 683.995 2275.35 728.845 2275.35Z" fill="black"/>
<path d="M728.845 2214.65C773.695 2214.65 810.745 2240 810.745 2240V2214.65C810.745 2214.65 779.545 2173.7 728.845 2173.7C678.145 2173.7 646.945 2214.65 646.945 2214.65V2240C646.945 2240 683.995 2214.65 728.845 2214.65Z" fill="black"/>
<path d="M712 2256.5C712 2241 724.5 2228.5 742.5 2228.5C760.5 2228.5 773 2241 773 2256.5C773 2272 760.5 2284.5 742.5 2284.5C724.5 2284.5 712 2272 712 2256.5ZM749 2256.5C749 2252 746 2249 742.5 2249C739 2249 736 2252 736 2256.5C736 2261 739 2264 742.5 2264C746 2264 749 2261 749 2256.5Z" fill="black"/>
<path d="M982.064 2275.35C1026.91 2275.35 1063.96 2250 1063.96 2250V2275.35C1063.96 2275.35 1032.76 2316.3 982.064 2316.3C931.364 2316.3 900.164 2275.35 900.164 2275.35V2250C900.164 2250 937.214 2275.35 982.064 2275.35Z" fill="black"/>
<path d="M982.064 2214.65C1026.91 2214.65 1063.96 2240 1063.96 2240V2214.65C1063.96 2214.65 1032.76 2173.7 982.064 2173.7C931.364 2173.7 900.164 2214.65 900.164 2214.65V2240C900.164 2240 937.214 2214.65 982.064 2214.65Z" fill="black"/>
<path d="M932 2252.5C932 2237 944.5 2224.5 962.5 2224.5C980.5 2224.5 993 2237 993 2252.5C993 2268 980.5 2280.5 962.5 2280.5C944.5 2280.5 932 2268 932 2252.5ZM969 2252.5C969 2248 966 2245 962.5 2245C959 2245 956 2248 956 2252.5C956 2257 959 2260 962.5 2260C966 2260 969 2257 969 2252.5Z" fill="black"/>
<path d="M1235.29 2275.35C1280.14 2275.35 1317.19 2250 1317.19 2250V2275.35C1317.19 2275.35 1285.99 2316.3 1235.29 2316.3C1184.59 2316.3 1153.39 2275.35 1153.39 2275.35V2250C1153.39 2250 1190.44 2275.35 1235.29 2275.35Z" fill="black"/>
<path d="M1235.29 2214.65C1280.14 2214.65 1317.19 2240 1317.19 2240V2214.65C1317.19 2214.65 1285.99 2173.7 1235.29 2173.7C1184.59 2173.7 1153.39 2214.65 1153.39 2214.65V2240C1153.39 2240 1190.44 2214.65 1235.29 2214.65Z" fill="black"/>
<path d="M1224.98 2243.5C1224.98 2228 1237.48 2215.5 1255.48 2215.5C1273.48 2215.5 1285.98 2228 1285.98 2243.5C1285.98 2259 1273.48 2271.5 1255.48 2271.5C1237.48 2271.5 1224.98 2259 1224.98 2243.5ZM1261.98 2243.5C1261.98 2239 1258.98 2236 1255.48 2236C1251.98 2236 1248.98 2239 1248.98 2243.5C1248.98 2248 1251.98 2251 1255.48 2251C1258.98 2251 1261.98 2248 1261.98 2243.5Z" fill="black"/>
<path d="M210.4 2455.35C255.25 2455.35 292.3 2430 292.3 2430V2455.35C292.3 2455.35 261.1 2496.3 210.4 2496.3C159.7 2496.3 128.5 2455.35 128.5 2455.35V2430C128.5 2430 165.55 2455.35 210.4 2455.35Z" fill="black"/>
<path d="M210.4 2394.65C255.25 2394.65 292.3 2420 292.3 2420V2394.65C292.3 2394.65 261.1 2353.7 210.4 2353.7C159.7 2353.7 128.5 2394.65 128.5 2394.65V2420C128.5 2420 165.55 2394.65 210.4 2394.65Z" fill="black"/>
<path d="M167 2425.5C167 2410 179.5 2397.5 197.5 2397.5C215.5 2397.5 228 2410 228 2425.5C228 2441 215.5 2453.5 197.5 2453.5C179.5 2453.5 167 2441 167 2425.5ZM204 2425.5C204 2421 201 2418 197.5 2418C194 2418 191 2421 191 2425.5C191 2430 194 2433 197.5 2433C201 2433 204 2430 204 2425.5Z" fill="black"/>
<path d="M463.623 2455.35C508.473 2455.35 545.523 2430 545.523 2430V2455.35C545.523 2455.35 514.323 2496.3 463.623 2496.3C412.923 2496.3 381.723 2455.35 381.723 2455.35V2430C381.723 2430 418.773 2455.35 463.623 2455.35Z" fill="black"/>
<path d="M463.623 2394.65C508.473 2394.65 545.523 2420 545.523 2420V2394.65C545.523 2394.65 514.323 2353.7 463.623 2353.7C412.923 2353.7 381.723 2394.65 381.723 2394.65V2420C381.723 2420 418.773 2394.65 463.623 2394.65Z" fill="black"/>
<path d="M420.547 2425.5C420.547 2410 433.047 2397.5 451.047 2397.5C469.047 2397.5 481.547 2410 481.547 2425.5C481.547 2441 469.047 2453.5 451.047 2453.5C433.047 2453.5 420.547 2441 420.547 2425.5ZM457.547 2425.5C457.547 2421 454.547 2418 451.047 2418C447.547 2418 444.547 2421 444.547 2425.5C444.547 2430 447.547 2433 451.047 2433C454.547 2433 457.547 2430 457.547 2425.5Z" fill="black"/>
<path d="M716.845 2455.35C761.695 2455.35 798.745 2430 798.745 2430V2455.35C798.745 2455.35 767.545 2496.3 716.845 2496.3C666.145 2496.3 634.945 2455.35 634.945 2455.35V2430C634.945 2430 671.995 2455.35 716.845 2455.35Z" fill="black"/>
<path d="M716.845 2394.65C761.695 2394.65 798.745 2420 798.745 2420V2394.65C798.745 2394.65 767.545 2353.7 716.845 2353.7C666.145 2353.7 634.945 2394.65 634.945 2394.65V2420C634.945 2420 671.995 2394.65 716.845 2394.65Z" fill="black"/>
<path d="M700 2436.5C700 2421 712.5 2408.5 730.5 2408.5C748.5 2408.5 761 2421 761 2436.5C761 2452 748.5 2464.5 730.5 2464.5C712.5 2464.5 700 2452 700 2436.5ZM737 2436.5C737 2432 734 2429 730.5 2429C727 2429 724 2432 724 2436.5C724 2441 727 2444 730.5 2444C734 2444 737 2441 737 2436.5Z" fill="black"/>
<path d="M970.068 2455.35C1014.92 2455.35 1051.97 2430 1051.97 2430V2455.35C1051.97 2455.35 1020.77 2496.3 970.068 2496.3C919.368 2496.3 888.168 2455.35 888.168 2455.35V2430C888.168 2430 925.218 2455.35 970.068 2455.35Z" fill="black"/>
<path d="M970.068 2394.65C1014.92 2394.65 1051.97 2420 1051.97 2420V2394.65C1051.97 2394.65 1020.77 2353.7 970.068 2353.7C919.368 2353.7 888.168 2394.65 888.168 2394.65V2420C888.168 2420 925.218 2394.65 970.068 2394.65Z" fill="black"/>
<path d="M920 2432.5C920 2417 932.5 2404.5 950.5 2404.5C968.5 2404.5 981 2417 981 2432.5C981 2448 968.5 2460.5 950.5 2460.5C932.5 2460.5 920 2448 920 2432.5ZM957 2432.5C957 2428 954 2425 950.5 2425C947 2425 944 2428 944 2432.5C944 2437 947 2440 950.5 2440C954 2440 957 2437 957 2432.5Z" fill="black"/>
<path d="M1223.29 2455.35C1268.14 2455.35 1305.19 2430 1305.19 2430V2455.35C1305.19 2455.35 1273.99 2496.3 1223.29 2496.3C1172.59 2496.3 1141.39 2455.35 1141.39 2455.35V2430C1141.39 2430 1178.44 2455.35 1223.29 2455.35Z" fill="black"/>
<path d="M1223.29 2394.65C1268.14 2394.65 1305.19 2420 1305.19 2420V2394.65C1305.19 2394.65 1273.99 2353.7 1223.29 2353.7C1172.59 2353.7 1141.39 2394.65 1141.39 2394.65V2420C1141.39 2420 1178.44 2394.65 1223.29 2394.65Z" fill="black"/>
<path d="M1212.98 2423.5C1212.98 2408 1225.48 2395.5 1243.48 2395.5C1261.48 2395.5 1273.98 2408 1273.98 2423.5C1273.98 2439 1261.48 2451.5 1243.48 2451.5C1225.48 2451.5 1212.98 2439 1212.98 2423.5ZM1249.98 2423.5C1249.98 2419 1246.98 2416 1243.48 2416C1239.98 2416 1236.98 2419 1236.98 2423.5C1236.98 2428 1239.98 2431 1243.48 2431C1246.98 2431 1249.98 2428 1249.98 2423.5Z" fill="black"/>
<path d="M210.4 2455.35C255.25 2455.35 292.3 2430 292.3 2430V2455.35C292.3 2455.35 261.1 2496.3 210.4 2496.3C159.7 2496.3 128.5 2455.35 128.5 2455.35V2430C128.5 2430 165.55 2455.35 210.4 2455.35Z" fill="black"/>
<path d="M210.4 2394.65C255.25 2394.65 292.3 2420 292.3 2420V2394.65C292.3 2394.65 261.1 2353.7 210.4 2353.7C159.7 2353.7 128.5 2394.65 128.5 2394.65V2420C128.5 2420 165.55 2394.65 210.4 2394.65Z" fill="black"/>
<path d="M167 2425.5C167 2410 179.5 2397.5 197.5 2397.5C215.5 2397.5 228 2410 228 2425.5C228 2441 215.5 2453.5 197.5 2453.5C179.5 2453.5 167 2441 167 2425.5ZM204 2425.5C204 2421 201 2418 197.5 2418C194 2418 191 2421 191 2425.5C191 2430 194 2433 197.5 2433C201 2433 204 2430 204 2425.5Z" fill="black"/>
<path d="M463.623 2455.35C508.473 2455.35 545.523 2430 545.523 2430V2455.35C545.523 2455.35 514.323 2496.3 463.623 2496.3C412.923 2496.3 381.723 2455.35 381.723 2455.35V2430C381.723 2430 418.773 2455.35 463.623 2455.35Z" fill="black"/>
<path d="M463.623 2394.65C508.473 2394.65 545.523 2420 545.523 2420V2394.65C545.523 2394.65 514.323 2353.7 463.623 2353.7C412.923 2353.7 381.723 2394.65 381.723 2394.65V2420C381.723 2420 418.773 2394.65 463.623 2394.65Z" fill="black"/>
<path d="M420.547 2425.5C420.547 2410 433.047 2397.5 451.047 2397.5C469.047 2397.5 481.547 2410 481.547 2425.5C481.547 2441 469.047 2453.5 451.047 2453.5C433.047 2453.5 420.547 2441 420.547 2425.5ZM457.547 2425.5C457.547 2421 454.547 2418 451.047 2418C447.547 2418 444.547 2421 444.547 2425.5C444.547 2430 447.547 2433 451.047 2433C454.547 2433 457.547 2430 457.547 2425.5Z" fill="black"/>
<path d="M716.845 2455.35C761.695 2455.35 798.745 2430 798.745 2430V2455.35C798.745 2455.35 767.545 2496.3 716.845 2496.3C666.145 2496.3 634.945 2455.35 634.945 2455.35V2430C634.945 2430 671.995 2455.35 716.845 2455.35Z" fill="black"/>
<path d="M716.845 2394.65C761.695 2394.65 798.745 2420 798.745 2420V2394.65C798.745 2394.65 767.545 2353.7 716.845 2353.7C666.145 2353.7 634.945 2394.65 634.945 2394.65V2420C634.945 2420 671.995 2394.65 716.845 2394.65Z" fill="black"/>
<path d="M700 2436.5C700 2421 712.5 2408.5 730.5 2408.5C748.5 2408.5 761 2421 761 2436.5C761 2452 748.5 2464.5 730.5 2464.5C712.5 2464.5 700 2452 700 2436.5ZM737 2436.5C737 2432 734 2429 730.5 2429C727 2429 724 2432 724 2436.5C724 2441 727 2444 730.5 2444C734 2444 737 2441 737 2436.5Z" fill="black"/>
<path d="M970.064 2455.35C1014.91 2455.35 1051.96 2430 1051.96 2430V2455.35C1051.96 2455.35 1020.76 2496.3 970.064 2496.3C919.364 2496.3 888.164 2455.35 888.164 2455.35V2430C888.164 2430 925.214 2455.35 970.064 2455.35Z" fill="black"/>
<path d="M970.064 2394.65C1014.91 2394.65 1051.96 2420 1051.96 2420V2394.65C1051.96 2394.65 1020.76 2353.7 970.064 2353.7C919.364 2353.7 888.164 2394.65 888.164 2394.65V2420C888.164 2420 925.214 2394.65 970.064 2394.65Z" fill="black"/>
<path d="M920 2432.5C920 2417 932.5 2404.5 950.5 2404.5C968.5 2404.5 981 2417 981 2432.5C981 2448 968.5 2460.5 950.5 2460.5C932.5 2460.5 920 2448 920 2432.5ZM957 2432.5C957 2428 954 2425 950.5 2425C947 2425 944 2428 944 2432.5C944 2437 947 2440 950.5 2440C954 2440 957 2437 957 2432.5Z" fill="black"/>
<path d="M1223.29 2455.35C1268.14 2455.35 1305.19 2430 1305.19 2430V2455.35C1305.19 2455.35 1273.99 2496.3 1223.29 2496.3C1172.59 2496.3 1141.39 2455.35 1141.39 2455.35V2430C1141.39 2430 1178.44 2455.35 1223.29 2455.35Z" fill="black"/>
<path d="M1223.29 2394.65C1268.14 2394.65 1305.19 2420 1305.19 2420V2394.65C1305.19 2394.65 1273.99 2353.7 1223.29 2353.7C1172.59 2353.7 1141.39 2394.65 1141.39 2394.65V2420C1141.39 2420 1178.44 2394.65 1223.29 2394.65Z" fill="black"/>
<path d="M1212.98 2423.5C1212.98 2408 1225.48 2395.5 1243.48 2395.5C1261.48 2395.5 1273.98 2408 1273.98 2423.5C1273.98 2439 1261.48 2451.5 1243.48 2451.5C1225.48 2451.5 1212.98 2439 1212.98 2423.5ZM1249.98 2423.5C1249.98 2419 1246.98 2416 1243.48 2416C1239.98 2416 1236.98 2419 1236.98 2423.5C1236.98 2428 1239.98 2431 1243.48 2431C1246.98 2431 1249.98 2428 1249.98 2423.5Z" fill="black"/>
<path d="M210.4 2572.65C255.25 2572.65 292.3 2598 292.3 2598V2572.65C292.3 2572.65 261.1 2531.7 210.4 2531.7C159.7 2531.7 128.5 2572.65 128.5 2572.65V2598C128.5 2598 165.55 2572.65 210.4 2572.65Z" fill="black"/>
<path d="M181.227 2601.5C181.227 2586 193.727 2573.5 211.727 2573.5C229.727 2573.5 242.227 2586 242.227 2601.5C242.227 2617 229.727 2629.5 211.727 2629.5C193.727 2629.5 181.227 2617 181.227 2601.5ZM218.227 2601.5C218.227 2597 215.227 2594 211.727 2594C208.227 2594 205.227 2597 205.227 2601.5C205.227 2606 208.227 2609 211.727 2609C215.227 2609 218.227 2606 218.227 2601.5Z" fill="black"/>
<path d="M463.623 2572.65C508.473 2572.65 545.523 2598 545.523 2598V2572.65C545.523 2572.65 514.323 2531.7 463.623 2531.7C412.923 2531.7 381.723 2572.65 381.723 2572.65V2598C381.723 2598 418.773 2572.65 463.623 2572.65Z" fill="black"/>
<path d="M420.547 2603.5C420.547 2588 433.047 2575.5 451.047 2575.5C469.047 2575.5 481.547 2588 481.547 2603.5C481.547 2619 469.047 2631.5 451.047 2631.5C433.047 2631.5 420.547 2619 420.547 2603.5ZM457.547 2603.5C457.547 2599 454.547 2596 451.047 2596C447.547 2596 444.547 2599 444.547 2603.5C444.547 2608 447.547 2611 451.047 2611C454.547 2611 457.547 2608 457.547 2603.5Z" fill="black"/>
<path d="M716.845 2572.65C761.695 2572.65 798.745 2598 798.745 2598V2572.65C798.745 2572.65 767.545 2531.7 716.845 2531.7C666.145 2531.7 634.945 2572.65 634.945 2572.65V2598C634.945 2598 671.995 2572.65 716.845 2572.65Z" fill="black"/>
<path d="M687.672 2601.5C687.672 2586 700.172 2573.5 718.172 2573.5C736.172 2573.5 748.672 2586 748.672 2601.5C748.672 2617 736.172 2629.5 718.172 2629.5C700.172 2629.5 687.672 2617 687.672 2601.5ZM724.672 2601.5C724.672 2597 721.672 2594 718.172 2594C714.672 2594 711.672 2597 711.672 2601.5C711.672 2606 714.672 2609 718.172 2609C721.672 2609 724.672 2606 724.672 2601.5Z" fill="black"/>
<path d="M970.068 2572.65C1014.92 2572.65 1051.97 2598 1051.97 2598V2572.65C1051.97 2572.65 1020.77 2531.7 970.068 2531.7C919.368 2531.7 888.168 2572.65 888.168 2572.65V2598C888.168 2598 925.218 2572.65 970.068 2572.65Z" fill="black"/>
<path d="M953.801 2601.5C953.801 2586 966.301 2573.5 984.301 2573.5C1002.3 2573.5 1014.8 2586 1014.8 2601.5C1014.8 2617 1002.3 2629.5 984.301 2629.5C966.301 2629.5 953.801 2617 953.801 2601.5ZM990.801 2601.5C990.801 2597 987.801 2594 984.301 2594C980.801 2594 977.801 2597 977.801 2601.5C977.801 2606 980.801 2609 984.301 2609C987.801 2609 990.801 2606 990.801 2601.5Z" fill="black"/>
<path d="M1223.29 2572.65C1268.14 2572.65 1305.19 2598 1305.19 2598V2572.65C1305.19 2572.65 1273.99 2531.7 1223.29 2531.7C1172.59 2531.7 1141.39 2572.65 1141.39 2572.65V2598C1141.39 2598 1178.44 2572.65 1223.29 2572.65Z" fill="black"/>
<path d="M1212.98 2601.5C1212.98 2586 1225.48 2573.5 1243.48 2573.5C1261.48 2573.5 1273.98 2586 1273.98 2601.5C1273.98 2617 1261.48 2629.5 1243.48 2629.5C1225.48 2629.5 1212.98 2617 1212.98 2601.5ZM1249.98 2601.5C1249.98 2597 1246.98 2594 1243.48 2594C1239.98 2594 1236.98 2597 1236.98 2601.5C1236.98 2606 1239.98 2609 1243.48 2609C1246.98 2609 1249.98 2606 1249.98 2601.5Z" fill="black"/>
<path d="M181.227 2601.5C181.227 2586 193.727 2573.5 211.727 2573.5C229.727 2573.5 242.227 2586 242.227 2601.5C242.227 2617 229.727 2629.5 211.727 2629.5C193.727 2629.5 181.227 2617 181.227 2601.5ZM218.227 2601.5C218.227 2597 215.227 2594 211.727 2594C208.227 2594 205.227 2597 205.227 2601.5C205.227 2606 208.227 2609 211.727 2609C215.227 2609 218.227 2606 218.227 2601.5Z" fill="black"/>
<path d="M420.547 2603.5C420.547 2588 433.047 2575.5 451.047 2575.5C469.047 2575.5 481.547 2588 481.547 2603.5C481.547 2619 469.047 2631.5 451.047 2631.5C433.047 2631.5 420.547 2619 420.547 2603.5ZM457.547 2603.5C457.547 2599 454.547 2596 451.047 2596C447.547 2596 444.547 2599 444.547 2603.5C444.547 2608 447.547 2611 451.047 2611C454.547 2611 457.547 2608 457.547 2603.5Z" fill="black"/>
<path d="M687.672 2601.5C687.672 2586 700.172 2573.5 718.172 2573.5C736.172 2573.5 748.672 2586 748.672 2601.5C748.672 2617 736.172 2629.5 718.172 2629.5C700.172 2629.5 687.672 2617 687.672 2601.5ZM724.672 2601.5C724.672 2597 721.672 2594 718.172 2594C714.672 2594 711.672 2597 711.672 2601.5C711.672 2606 714.672 2609 718.172 2609C721.672 2609 724.672 2606 724.672 2601.5Z" fill="black"/>
<path d="M953.805 2601.5C953.805 2586 966.305 2573.5 984.305 2573.5C1002.3 2573.5 1014.8 2586 1014.8 2601.5C1014.8 2617 1002.3 2629.5 984.305 2629.5C966.305 2629.5 953.805 2617 953.805 2601.5ZM990.805 2601.5C990.805 2597 987.805 2594 984.305 2594C980.805 2594 977.805 2597 977.805 2601.5C977.805 2606 980.805 2609 984.305 2609C987.805 2609 990.805 2606 990.805 2601.5Z" fill="black"/>
<path d="M1212.98 2601.5C1212.98 2586 1225.48 2573.5 1243.48 2573.5C1261.48 2573.5 1273.98 2586 1273.98 2601.5C1273.98 2617 1261.48 2629.5 1243.48 2629.5C1225.48 2629.5 1212.98 2617 1212.98 2601.5ZM1249.98 2601.5C1249.98 2597 1246.98 2594 1243.48 2594C1239.98 2594 1236.98 2597 1236.98 2601.5C1236.98 2606 1239.98 2609 1243.48 2609C1246.98 2609 1249.98 2606 1249.98 2601.5Z" fill="black"/>
<rect x="579" y="1193" width="35" height="1411" fill="url(#paint3_linear_32_9264)"/>
<rect x="844" y="1219" width="35" height="1411" fill="url(#paint4_linear_32_9264)"/>
<rect x="1099" y="1452" width="35" height="1166" fill="url(#paint5_linear_32_9264)"/>
<rect x="332" y="1462" width="35" height="1166" fill="url(#paint6_linear_32_9264)"/>
<defs>
<linearGradient id="paint0_linear_32_9264" x1="720" y1="0" x2="720" y2="1283" gradientUnits="userSpaceOnUse">
<stop offset="0.0208333" stop-color="#D9D9D9"/>
<stop offset="1" stop-color="white"/>
</linearGradient>
<linearGradient id="paint1_linear_32_9264" x1="710.5" y1="1268.58" x2="694.808" y2="2842.36" gradientUnits="userSpaceOnUse">
<stop stop-color="#FEFEFE"/>
<stop offset="0.868609"/>
<stop offset="1"/>
</linearGradient>
<linearGradient id="paint2_linear_32_9264" x1="386" y1="374" x2="386" y2="1158" gradientUnits="userSpaceOnUse">
<stop stop-color="white"/>
<stop offset="1"/>
</linearGradient>
<linearGradient id="paint3_linear_32_9264" x1="596.5" y1="1193" x2="596.5" y2="2604" gradientUnits="userSpaceOnUse">
<stop offset="0.00520833" stop-color="white" stop-opacity="0"/>
<stop offset="0.40625" stop-color="white"/>
<stop offset="1" stop-color="white" stop-opacity="0"/>
</linearGradient>
<linearGradient id="paint4_linear_32_9264" x1="861.5" y1="1219" x2="861.5" y2="2630" gradientUnits="userSpaceOnUse">
<stop offset="0.00520833" stop-color="white" stop-opacity="0"/>
<stop offset="0.40625" stop-color="white"/>
<stop offset="1" stop-color="white" stop-opacity="0"/>
</linearGradient>
<linearGradient id="paint5_linear_32_9264" x1="1116.5" y1="1452" x2="1116.5" y2="2618" gradientUnits="userSpaceOnUse">
<stop offset="0.015625" stop-color="white" stop-opacity="0"/>
<stop offset="0.0923866" stop-color="white"/>
<stop offset="1" stop-color="white" stop-opacity="0"/>
</linearGradient>
<linearGradient id="paint6_linear_32_9264" x1="349.5" y1="1462" x2="349.5" y2="2628" gradientUnits="userSpaceOnUse">
<stop offset="0.015625" stop-color="white" stop-opacity="0"/>
<stop offset="0.0923866" stop-color="white"/>
<stop offset="1" stop-color="white" stop-opacity="0"/>
</linearGradient>
</defs>
</svg>
