<svg width="1440" height="1074" viewBox="0 0 1440 1074" fill="none" xmlns="http://www.w3.org/2000/svg">
<rect y="53" width="1440" height="66" fill="white"/>
<rect x="408" y="3" width="626" height="161" fill="white" stroke="white" stroke-width="6"/>
<path d="M185.9 351.4L183.3 369.6H197.6L200.2 351.4H185.9ZM188.5 333.2H202.8L205.4 315H226.2L223.6 333.2H239.2L236.6 351.4H221L218.4 369.6H234L231.4 387.8H215.8L213.2 406H192.4L195 387.8H180.7L178.1 406H157.3L159.9 387.8H144.3L146.9 369.6H162.5L165.1 351.4H149.5L152.1 333.2H167.7L170.3 315H191.1L188.5 333.2Z" fill="white"/>
<path d="M384.8 406H358.8L419.9 315H445.9L384.8 406ZM374.4 328C371.8 328 369.2 330.6 369.2 334.5C369.2 338.4 371.8 341 374.4 341C377 341 379.6 338.4 379.6 334.5C379.6 330.6 377 328 374.4 328ZM374.4 355.3C362.7 355.3 353.6 346.2 353.6 334.5C353.6 322.8 362.7 313.7 374.4 313.7C386.1 313.7 395.2 322.8 395.2 334.5C395.2 346.2 386.1 355.3 374.4 355.3ZM430.3 380C427.7 380 425.1 382.6 425.1 386.5C425.1 390.4 427.7 393 430.3 393C432.9 393 435.5 390.4 435.5 386.5C435.5 382.6 432.9 380 430.3 380ZM430.3 407.3C418.6 407.3 409.5 398.2 409.5 386.5C409.5 374.8 418.6 365.7 430.3 365.7C442 365.7 451.1 374.8 451.1 386.5C451.1 398.2 442 407.3 430.3 407.3Z" fill="white"/>
<path d="M677.95 389.1L662.35 407.3L650 396.25C650 396.25 639.6 407.95 621.4 407.95C600.6 407.95 588.9 396.25 588.9 381.3C588.9 365.7 604.5 356.6 604.5 356.6C604.5 356.6 596.7 349.45 596.7 338.4C596.7 324.1 608.4 312.4 625.95 312.4C642.2 312.4 653.9 324.1 653.9 337.1C653.9 347.5 641.55 357.9 641.55 357.9L648.05 363.75L660.4 348.8L677.95 363.75L665.6 378.7L677.95 389.1ZM620.1 339.7C620.1 343.6 625.95 347.5 625.95 347.5C625.95 347.5 631.8 343.6 631.8 339.7C631.8 335.8 629.2 333.2 625.95 333.2C622.7 333.2 620.1 335.8 620.1 339.7ZM616.2 378.05C616.2 381.95 619.45 385.2 623.35 385.2C629.2 385.2 632.45 381.3 632.45 381.3L620.1 370.9C620.1 370.9 616.2 374.15 616.2 378.05Z" fill="white"/>
<path d="M879 357.9C879 338.4 863.4 322.8 842.6 322.8C821.8 322.8 806.2 338.4 806.2 357.9C806.2 377.4 821.8 393 842.6 393C854.3 393 863.4 387.8 863.4 387.8L868.6 399.5C868.6 399.5 858.2 406 842.6 406C815.3 406 793.2 383.9 793.2 357.9C793.2 331.9 815.3 309.8 842.6 309.8C869.9 309.8 892 331.9 892 357.9C892 372.2 881.6 382.6 869.9 382.6C858.2 382.6 854.3 373.5 854.3 373.5C854.3 373.5 850.4 382.6 836.75 382.6C827 382.6 817.9 373.5 817.9 357.9C817.9 342.3 827 333.2 836.75 333.2C843.9 333.2 846.5 338.4 846.5 338.4L847.8 334.5H866V359.2C866 365.05 869.25 368.3 872.5 368.3C875.75 368.3 879 365.05 879 357.9ZM846.5 366.35V349.45C846.5 349.45 845.2 348.8 843.9 348.8C840.65 348.8 838.05 351.4 838.05 357.9C838.05 364.4 840.65 367 843.9 367C845.2 367 846.5 366.35 846.5 366.35Z" fill="white"/>
<path d="M1088.6 309.8L1084.05 372.2H1059.35L1054.8 309.8H1088.6ZM1058.05 380H1085.35V406H1058.05V380Z" fill="white"/>
<path d="M1321.1 346.1C1321.1 363 1299 368.2 1299 381.2H1271.7C1271.7 361.7 1287.3 359.1 1287.3 350C1287.3 347.4 1284.7 344.8 1282.1 344.8C1275.6 344.8 1274.3 352.6 1274.3 352.6L1249.6 343.5C1249.6 343.5 1254.8 318.8 1286 318.8C1308.1 318.8 1321.1 331.8 1321.1 346.1ZM1271.7 389H1299V415H1271.7V389Z" fill="white"/>
<path d="M174.2 620.7V610.3C153.4 607.7 144.3 595.35 144.3 595.35L156.65 575.85C156.65 575.85 165.75 584.3 178.75 584.3C182 584.3 183.95 582.35 183.95 580.4C183.95 573.9 148.85 573.9 148.85 545.3C148.85 523.85 174.2 517.35 174.2 517.35V506.3H191.1V516.05C210.6 518 221 530.35 221 530.35L208.65 549.85C208.65 549.85 200.85 542.7 191.75 542.7C188.5 542.7 186.55 544.65 186.55 546.6C186.55 553.1 221.65 553.1 221.65 581.7C221.65 606.4 191.1 610.3 191.1 610.3V620.7H174.2Z" fill="white"/>
<path d="M367 563.5L391.7 518H412.5L437.2 563.5H412.5L402.1 544L391.7 563.5H367Z" fill="white"/>
<path d="M630.85 558.95L622.4 571.3L607.45 560.25L616.55 548.55L602.9 544.65L608.75 527.75L622.4 532.3L621.75 518H639.95L639.3 532.3L652.95 527.75L658.8 544.65L645.15 548.55L654.25 560.25L639.3 571.3L630.85 558.95Z" fill="white"/>
<path d="M843.1 559.6C843.1 589.5 860 614.2 860 614.2H843.1C843.1 614.2 815.8 593.4 815.8 559.6C815.8 525.8 843.1 505 843.1 505H860C860 505 843.1 529.7 843.1 559.6Z" fill="white"/>
<path d="M1073.9 572.6C1073.9 542.7 1057 518 1057 518H1073.9C1073.9 518 1101.2 538.8 1101.2 572.6C1101.2 606.4 1073.9 627.2 1073.9 627.2H1057C1057 627.2 1073.9 602.5 1073.9 572.6Z" fill="white"/>
<path d="M1264.9 579.1V554.4H1320.8V579.1H1264.9Z" fill="white"/>
<path d="M204.5 757.4H221.4V782.1H204.5V800.3H179.8V782.1H162.9V757.4H179.8V739.2H204.5V757.4Z" fill="white"/>
<path d="M377.9 775.6H433.8V797.7H377.9V775.6ZM377.9 765.2V743.1H433.8V765.2H377.9Z" fill="white"/>
<path d="M622.4 818.5V714.5H644.5V818.5H622.4Z" fill="white"/>
<path d="M833.3 822.4H808.6L850.2 710.6H874.9L833.3 822.4Z" fill="white"/>
<path d="M1112.9 822.4H1088.2L1046.6 710.6H1071.3L1112.9 822.4Z" fill="white"/>
<path d="M1313.9 789.8C1313.9 789.8 1320.4 793.7 1320.4 803.45C1320.4 815.8 1310 826.2 1292.45 826.2C1274.9 826.2 1263.85 815.15 1263.85 815.15L1273.6 799.55C1273.6 799.55 1278.8 804.75 1285.95 804.75C1287.9 804.75 1289.2 803.45 1289.2 802.15C1289.2 795 1263.2 796.3 1263.2 776.8C1263.2 766.4 1272.95 761.2 1272.95 761.2C1272.95 761.2 1266.45 757.3 1266.45 747.55C1266.45 735.2 1276.85 724.8 1294.4 724.8C1311.95 724.8 1323 735.85 1323 735.85L1313.25 751.45C1313.25 751.45 1308.05 746.25 1300.9 746.25C1298.95 746.25 1297.65 747.55 1297.65 748.85C1297.65 756 1323.65 754.7 1323.65 774.2C1323.65 784.6 1313.9 789.8 1313.9 789.8ZM1298.3 780.7C1298.3 780.7 1300.25 779.4 1300.25 776.8C1300.25 772.9 1288.55 770.3 1288.55 770.3C1288.55 770.3 1286.6 771.6 1286.6 774.2C1286.6 778.1 1298.3 780.7 1298.3 780.7Z" fill="white"/>
<path d="M164.2 986.27V970.93C169.4 970.8 172 968.2 172 963V943.5C172 931.8 179.8 924 191.5 924H207.1V944.8H200.6C198 944.8 196.7 946.1 196.7 948.7V963C196.7 976 186.3 978.6 186.3 978.6C186.3 978.6 196.7 981.2 196.7 994.2V1008.5C196.7 1011.1 198 1012.4 200.6 1012.4H207.1V1033.2H191.5C179.8 1033.2 172 1025.4 172 1013.7V994.2C172 989 169.4 986.4 164.2 986.27Z" fill="white"/>
<path d="M431.1 970.93V986.27C425.9 986.4 423.3 989 423.3 994.2V1013.7C423.3 1025.4 415.5 1033.2 403.8 1033.2H388.2V1012.4H394.7C397.3 1012.4 398.6 1011.1 398.6 1008.5V994.2C398.6 981.2 409 978.6 409 978.6C409 978.6 398.6 976 398.6 963V948.7C398.6 946.1 397.3 944.8 394.7 944.8H388.2V924H403.8C415.5 924 423.3 931.8 423.3 943.5V963C423.3 968.2 425.9 970.8 431.1 970.93Z" fill="white"/>
<path d="M644.1 1012.4H658.4V1033.2H619.4V924H658.4V944.8H644.1V1012.4Z" fill="white"/>
<path d="M818.9 1015.4H833.2V947.8H818.9V927H857.9V1036.2H818.9V1015.4Z" fill="white"/>
<path d="M1044.2 1020.1V995.4H1059.8V983.7H1042.9V959H1059.8V940.8H1084.5V959H1101.4V983.7H1084.5V995.4H1100.1V1020.1H1044.2Z" fill="white"/>
<path d="M1283.1 989H1310.4L1294.8 1028H1274L1283.1 989Z" fill="white"/>
<rect x="76" y="259" width="1308" height="812" stroke="white" stroke-width="6"/>
<line x1="286" y1="1070" x2="286" y2="262" stroke="white" stroke-width="6"/>
<line x1="508" y1="1068" x2="508" y2="260.999" stroke="white" stroke-width="6"/>
<line x1="730" y1="1069" x2="730" y2="261" stroke="white" stroke-width="6"/>
<line x1="951.242" y1="1069" x2="951.242" y2="260.999" stroke="white" stroke-width="6"/>
<line x1="1173.5" y1="1069" x2="1173.5" y2="260.999" stroke="white" stroke-width="6"/>
<line x1="76" y1="461.5" x2="1387" y2="461.5" stroke="white" stroke-width="6"/>
<line x1="76" y1="663.5" x2="1385" y2="663.5" stroke="white" stroke-width="6"/>
<line x1="76" y1="867.5" x2="1387" y2="867.5" stroke="white" stroke-width="6"/>
</svg>
